<svg width="6" height="11" viewBox="0 0 6 11" fill="none" xmlns="http://www.w3.org/2000/svg">
<path d="M1.95715 10.5C1.91145 10.5 1.8663 10.4879 1.82487 10.4643C1.78344 10.4408 1.74673 10.4064 1.71733 10.3636C1.68792 10.3209 1.66654 10.2708 1.65467 10.2169C1.6428 10.1629 1.64073 10.1065 1.64862 10.0515V10.0492L2.12778 6.83358H0.272701C0.221209 6.83358 0.170772 6.81576 0.127221 6.78218C0.0836707 6.74861 0.048787 6.70065 0.0266049 6.64386C0.00442276 6.58707 -0.00415154 6.52377 0.00187385 6.46127C0.00789924 6.39877 0.0282781 6.33964 0.0606532 6.2907L3.79654 0.646504C3.83907 0.580534 3.8981 0.533402 3.96462 0.512314C4.03113 0.491227 4.10147 0.497344 4.16487 0.529732C4.22827 0.56212 4.28125 0.618995 4.3157 0.691659C4.35015 0.764324 4.36418 0.848779 4.35564 0.93211C4.35564 0.938359 4.35427 0.944401 4.35342 0.95065L3.87257 4.1671H5.7273C5.77879 4.1671 5.82923 4.18493 5.87278 4.2185C5.91633 4.25207 5.95121 4.30003 5.9734 4.35682C5.99558 4.41361 6.00415 4.47692 5.99813 4.53941C5.9921 4.60191 5.97172 4.66104 5.93935 4.70998L2.20295 10.3542C2.17359 10.3995 2.13624 10.4362 2.09368 10.4614C2.05113 10.4867 2.00446 10.4999 1.95715 10.5Z" fill="#FF7A00"/>
</svg>
