<svg width="7" height="11" viewBox="0 0 7 11" fill="none" xmlns="http://www.w3.org/2000/svg">
<path d="M2.52746 10.7002C2.48177 10.7002 2.43662 10.6881 2.39519 10.6645C2.35375 10.6409 2.31705 10.6066 2.28764 10.5638C2.25824 10.5211 2.23685 10.471 2.22498 10.4171C2.21311 10.3631 2.21105 10.3067 2.21894 10.2517V10.2494L2.69809 7.03378H0.843013C0.791522 7.03377 0.741084 7.01595 0.697534 6.98238C0.653983 6.9488 0.6191 6.90085 0.596917 6.84406C0.574735 6.78727 0.566161 6.72396 0.572186 6.66146C0.578212 6.59897 0.598591 6.53983 0.630966 6.4909L4.36685 0.846699C4.40938 0.78073 4.46841 0.733597 4.53493 0.71251C4.60144 0.691422 4.67178 0.69754 4.73518 0.729927C4.79858 0.762315 4.85156 0.81919 4.88601 0.891855C4.92046 0.96452 4.93449 1.04897 4.92595 1.1323C4.92595 1.13855 4.92459 1.1446 4.92373 1.15085L4.44288 4.36729H6.29761C6.3491 4.3673 6.39954 4.38512 6.44309 4.4187C6.48664 4.45227 6.52153 4.50023 6.54371 4.55702C6.56589 4.61381 6.57446 4.67711 6.56844 4.73961C6.56241 4.8021 6.54203 4.86124 6.50966 4.91017L2.77326 10.5544C2.7439 10.5997 2.70655 10.6364 2.664 10.6616C2.62144 10.6869 2.57477 10.7 2.52746 10.7002Z" fill="url(#paint0_linear_2612_145495)"/>
<defs>
<linearGradient id="paint0_linear_2612_145495" x1="6.57031" y1="5.70018" x2="0.570312" y2="5.70018" gradientUnits="userSpaceOnUse">
<stop stop-color="#095AD3"/>
<stop offset="1" stop-color="#166FF4"/>
</linearGradient>
</defs>
</svg>
