<svg width="12" height="13" viewBox="0 0 12 13" fill="none" xmlns="http://www.w3.org/2000/svg">
<g clip-path="url(#clip0_2696_38397)">
<path d="M9.1014 2.10565C8.55036 1.73669 7.92265 1.47315 7.25182 1.33419C6.95473 1.27669 6.67682 1.5019 6.67682 1.80857C6.67682 2.02898 6.82536 2.23023 7.04098 2.27336C7.60161 2.38357 8.1239 2.60877 8.57911 2.91544C8.76598 3.04002 9.01036 3.00648 9.16848 2.84836C9.3889 2.63273 9.35536 2.27336 9.1014 2.10565ZM5.71848 1.80857C5.71848 1.5019 5.44057 1.27669 5.14348 1.33419C4.47265 1.47315 3.84494 1.73669 3.2939 2.10565C3.04473 2.27336 3.01119 2.63273 3.22202 2.84357C3.38015 3.00169 3.62453 3.03523 3.8114 2.91065C4.2714 2.60398 4.7889 2.38357 5.34952 2.26857C5.56994 2.23023 5.71848 2.02898 5.71848 1.80857ZM2.5464 3.52398C2.49635 3.47372 2.43576 3.4352 2.36901 3.4112C2.30226 3.3872 2.23102 3.37831 2.16042 3.38519C2.08982 3.39207 2.02163 3.41453 1.96077 3.45096C1.89991 3.48739 1.8479 3.53688 1.80848 3.59586C1.43172 4.1554 1.16953 4.78402 1.03702 5.44544C1.02281 5.51507 1.02426 5.58698 1.04128 5.65598C1.05829 5.72498 1.09043 5.78932 1.13538 5.84436C1.18033 5.8994 1.23696 5.94376 1.30116 5.97421C1.36537 6.00466 1.43555 6.02045 1.50661 6.02044C1.72702 6.02044 1.92827 5.8719 1.9714 5.65627C2.08161 5.09565 2.30682 4.57336 2.61348 4.11336C2.73327 3.93127 2.69973 3.68211 2.5464 3.52398ZM10.8887 6.02044C10.9598 6.02045 11.0299 6.00466 11.0941 5.97421C11.1583 5.94376 11.215 5.8994 11.2599 5.84436C11.3049 5.78932 11.337 5.72498 11.354 5.65598C11.371 5.58698 11.3725 5.51507 11.3583 5.44544C11.2193 4.77461 10.9558 4.15169 10.5868 3.59586C10.4191 3.34669 10.0597 3.30836 9.8489 3.52398C9.69078 3.68211 9.65723 3.92648 9.78182 4.11336C10.0885 4.57336 10.3089 5.09565 10.4239 5.65627C10.467 5.8719 10.6683 6.02044 10.8887 6.02044ZM4.28098 6.72002L5.45015 7.2519L5.97723 8.41627C5.99629 8.4581 6.02698 8.49357 6.06564 8.51843C6.10429 8.5433 6.14929 8.55652 6.19525 8.55652C6.24122 8.55652 6.28621 8.5433 6.32487 8.51843C6.36353 8.49357 6.39422 8.4581 6.41327 8.41627L6.94515 7.24711L8.11432 6.72002C8.15615 6.70097 8.19161 6.67028 8.21648 6.63162C8.24134 6.59296 8.25457 6.54797 8.25457 6.502C8.25457 6.45604 8.24134 6.41104 8.21648 6.37239C8.19161 6.33373 8.15615 6.30304 8.11432 6.28398L6.94515 5.75211L6.41807 4.58294C6.39901 4.54111 6.36832 4.50565 6.32966 4.48078C6.29101 4.45591 6.24601 4.44269 6.20005 4.44269C6.15408 4.44269 6.10909 4.45591 6.07043 4.48078C6.03177 4.50565 6.00108 4.54111 5.98203 4.58294L5.45015 5.75211L4.28098 6.27919C4.09411 6.36544 4.09411 6.63377 4.28098 6.72002Z" fill="#FFC700"/>
<path d="M6.20052 10.8125C5.49289 10.8123 4.79626 10.6373 4.17262 10.3029C3.54898 9.96851 3.01766 9.48515 2.62594 8.89583H3.32552C3.58906 8.89583 3.80469 8.68021 3.80469 8.41667C3.80469 8.15313 3.58906 7.9375 3.32552 7.9375H1.40885C1.14531 7.9375 0.929688 8.15313 0.929688 8.41667V10.3333C0.929688 10.5969 1.14531 10.8125 1.40885 10.8125C1.6724 10.8125 1.88802 10.5969 1.88802 10.3333V9.51875C2.84156 10.8796 4.41323 11.7708 6.20052 11.7708C8.33281 11.7708 10.1632 10.5058 10.9922 8.68979C11.0208 8.62487 11.0348 8.55446 11.0332 8.48353C11.0316 8.4126 11.0144 8.34289 10.9829 8.27934C10.9513 8.21579 10.9062 8.15995 10.8507 8.11579C10.7951 8.07162 10.7306 8.0402 10.6616 8.02375C10.4459 7.97583 10.2159 8.07646 10.1249 8.2825C9.44448 9.77271 7.94469 10.8125 6.20052 10.8125Z" fill="#FFC700"/>
</g>
<defs>
<clipPath id="clip0_2696_38397">
<rect width="11.5" height="11.5" fill="white" transform="translate(0.449219 0.75)"/>
</clipPath>
</defs>
</svg>
