<svg width="40" height="40" viewBox="0 0 40 40" fill="none" xmlns="http://www.w3.org/2000/svg">
<rect width="40" height="40" rx="10" fill="url(#paint0_linear_2342_28598)"/>
<g clip-path="url(#clip0_2342_28598)">
<g clip-path="url(#clip1_2342_28598)">
<path d="M21.832 26.4176C25.2888 26.4176 27.0176 26.4176 28.091 25.3433C29.1654 24.2699 29.1654 22.5411 29.1654 19.0843C29.1654 15.6276 29.1654 13.8987 28.091 12.8253C27.0176 11.751 25.2888 11.751 21.832 11.751M11.9064 12.8253C10.832 13.8987 10.832 15.6276 10.832 19.0843C10.832 22.5411 10.832 24.2699 11.9064 25.3433C12.5049 25.9428 13.307 26.2077 14.4987 26.3241" stroke="white" stroke-width="1.83333" stroke-linecap="round" stroke-linejoin="round"/>
<path d="M21.8328 26.416C20.6998 26.416 19.4513 26.8743 18.3119 27.4656C16.4804 28.4162 15.5647 28.8919 15.1137 28.5885C14.6627 28.286 14.7479 27.3464 14.9193 25.4682L14.9578 25.041" stroke="white" stroke-width="1.83333" stroke-linecap="round"/>
<g clip-path="url(#clip2_2342_28598)">
<path d="M22.4355 20.2992L22.6435 22.4697C22.6495 22.5322 22.637 22.5951 22.6076 22.6506C22.5782 22.7061 22.5332 22.7517 22.4781 22.7819C22.423 22.812 22.3602 22.8253 22.2977 22.8201C22.2351 22.8149 22.1754 22.7915 22.126 22.7527L20.4108 21.4064C20.1374 21.1917 19.9104 20.9237 19.7437 20.6186L14.9894 11.9257C14.8162 11.609 14.7759 11.2364 14.8774 10.8899C14.9789 10.5435 15.2139 10.2515 15.5306 10.0783C15.8473 9.90512 16.2199 9.86483 16.5664 9.96632C16.9128 10.0678 17.2048 10.3028 17.378 10.6195L22.1328 19.3126C22.2995 19.6176 22.4025 19.9533 22.4355 20.2992Z" fill="white"/>
</g>
</g>
</g>
<defs>
<linearGradient id="paint0_linear_2342_28598" x1="1.22222" y1="3.80952" x2="38.8159" y2="5.24492" gradientUnits="userSpaceOnUse">
<stop stop-color="#095AD3"/>
<stop offset="1" stop-color="#166FF4"/>
</linearGradient>
<clipPath id="clip0_2342_28598">
<rect width="22" height="22" fill="white" transform="translate(9 8.99902)"/>
</clipPath>
<clipPath id="clip1_2342_28598">
<rect width="22" height="22" fill="white" transform="translate(9 9.00098)"/>
</clipPath>
<clipPath id="clip2_2342_28598">
<rect width="12.8333" height="12.8333" fill="white" transform="matrix(-0.959668 -0.281134 -0.281134 0.959668 26.7578 11.6934)"/>
</clipPath>
</defs>
</svg>
