<svg width="40" height="40" viewBox="0 0 40 40" fill="none" xmlns="http://www.w3.org/2000/svg">
<rect width="40" height="40" rx="10" fill="#F0F5FC"/>
<path d="M15.0004 20.9995C14.5639 21.0002 14.1328 21.0961 13.7372 21.2805C13.3415 21.465 12.9909 21.7336 12.7098 22.0675C12.4287 22.4015 12.2238 22.7927 12.1095 23.214C11.9952 23.6353 11.9743 24.0764 12.0481 24.5067C12.1219 24.9369 12.2887 25.3459 12.5368 25.705C12.785 26.0641 13.1085 26.3647 13.4848 26.5859C13.8612 26.8071 14.2812 26.9435 14.7157 26.9855C15.1502 27.0276 15.5886 26.9744 16.0004 26.8295" stroke="url(#paint0_linear_816_59451)" stroke-width="1.5" stroke-linecap="round" stroke-linejoin="round"/>
<path d="M12.2649 22.6046C11.6665 22.3165 11.1492 21.8839 10.7597 21.3459C10.3703 20.8078 10.121 20.1813 10.0342 19.5228C9.94752 18.8643 10.0261 18.1946 10.263 17.5741C10.4998 16.9536 10.8875 16.4018 11.3909 15.9686M11.4209 15.8876C11.0929 15.3968 10.9492 14.8059 11.0151 14.2193C11.081 13.6328 11.3524 13.0885 11.7811 12.6827C12.2098 12.277 12.7682 12.0361 13.3575 12.0026C13.9468 11.969 14.5289 12.1451 15.0009 12.4996M15.2389 12.5646C15.0794 12.2256 14.9981 11.8552 15.001 11.4806C15.0039 11.1059 15.0909 10.7368 15.2557 10.4004C15.4205 10.0639 15.6588 9.76882 15.953 9.53686C16.2471 9.30491 16.5897 9.14203 16.9553 9.06027C17.3208 8.97851 17.7001 8.97995 18.0651 9.0645C18.43 9.14904 18.7713 9.31452 19.0637 9.54871C19.3561 9.7829 19.5922 10.0798 19.7544 10.4175C19.9166 10.7552 20.0008 11.125 20.0009 11.4996M20.0009 11.4996V26.9996M20.0009 11.4996C20.001 11.125 20.0852 10.7552 20.2474 10.4175C20.4096 10.0798 20.6457 9.7829 20.9381 9.54871C21.2304 9.31452 21.5717 9.14904 21.9367 9.0645C22.3016 8.97995 22.6809 8.97851 23.0465 9.06027C23.4121 9.14203 23.7547 9.30491 24.0488 9.53686C24.343 9.76882 24.5813 10.0639 24.7461 10.4004C24.9108 10.7368 24.9979 11.1059 25.0008 11.4806C25.0037 11.8552 24.9224 12.2256 24.7629 12.5646M20.0009 26.9996C20.0009 27.53 19.7902 28.0387 19.4151 28.4138C19.04 28.7889 18.5313 28.9996 18.0009 28.9996C17.4705 28.9996 16.9617 28.7889 16.5867 28.4138C16.2116 28.0387 16.0009 27.53 16.0009 26.9996M20.0009 26.9996C20.0009 27.53 20.2116 28.0387 20.5867 28.4138C20.9617 28.7889 21.4705 28.9996 22.0009 28.9996M20.0009 13.9996C20.0009 14.7952 20.317 15.5583 20.8796 16.1209C21.4422 16.6835 22.2052 16.9996 23.0009 16.9996M28.6109 15.9686C29.0475 16.3437 29.3978 16.8087 29.6377 17.3319C29.8776 17.8551 30.0015 18.424 30.0009 18.9996C30.0009 19.7026 29.8199 20.3636 29.5009 20.9376M28.5809 15.8876C28.9088 15.3968 29.0526 14.8059 28.9867 14.2193C28.9207 13.6328 28.6494 13.0885 28.2207 12.6827C27.792 12.277 27.2336 12.0361 26.6443 12.0026C26.055 11.969 25.4728 12.1451 25.0009 12.4996M26.6679 22.9996L25.0009 25.9996H29.0009L27.3339 28.9996" stroke="url(#paint1_linear_816_59451)" stroke-width="1.5" stroke-linecap="round" stroke-linejoin="round"/>
<defs>
<linearGradient id="paint0_linear_816_59451" x1="12.127" y1="21.5709" x2="15.8852" y2="21.6665" gradientUnits="userSpaceOnUse">
<stop stop-color="#095AD3"/>
<stop offset="1" stop-color="#166FF4"/>
</linearGradient>
<linearGradient id="paint1_linear_816_59451" x1="10.6111" y1="10.9047" x2="29.4088" y2="11.6225" gradientUnits="userSpaceOnUse">
<stop stop-color="#095AD3"/>
<stop offset="1" stop-color="#166FF4"/>
</linearGradient>
</defs>
</svg>
