<svg width="40" height="40" viewBox="0 0 90 90" fill="none" xmlns="http://www.w3.org/2000/svg">
<rect width="89.0117" height="89.0117" rx="22.2529" fill="url(#paint0_linear_872_22206)"/>
<path d="M33.3805 46.7301C32.4092 46.7315 31.4498 46.9449 30.5695 47.3554C29.6891 47.7658 28.909 48.3635 28.2834 49.1066C27.6579 49.8497 27.2021 50.7203 26.9477 51.6578C26.6934 52.5952 26.6467 53.5769 26.8109 54.5342C26.9751 55.4916 27.3463 56.4015 27.8985 57.2007C28.4507 57.9998 29.1706 58.6687 30.008 59.1609C30.8454 59.653 31.7802 59.9565 32.747 60.0502C33.7138 60.1438 34.6894 60.0253 35.6057 59.703" stroke="white" stroke-width="3.33794" stroke-linecap="round" stroke-linejoin="round"/>
<path d="M27.292 50.3016C25.9603 49.6605 24.8092 48.6979 23.9426 47.5006C23.076 46.3034 22.5212 44.9091 22.3282 43.4438C22.1352 41.9785 22.3101 40.4881 22.8372 39.1073C23.3642 37.7265 24.2268 36.4987 25.3471 35.5346M25.4139 35.3543C24.684 34.2623 24.3642 32.9472 24.5109 31.642C24.6576 30.3367 25.2614 29.1254 26.2153 28.2226C27.1693 27.3198 28.412 26.7836 29.7234 26.709C31.0347 26.6344 32.3302 27.0262 33.3804 27.8151M33.91 27.9597C33.555 27.2054 33.3741 26.381 33.3806 25.5474C33.3871 24.7138 33.5808 23.8923 33.9475 23.1436C34.3142 22.395 34.8444 21.7383 35.499 21.2221C36.1536 20.7059 36.9159 20.3435 37.7294 20.1616C38.543 19.9796 39.387 19.9828 40.1991 20.171C41.0113 20.3591 41.7707 20.7273 42.4214 21.2485C43.0721 21.7696 43.5973 22.4303 43.9583 23.1817C44.3192 23.9332 44.5067 24.7561 44.5069 25.5898M44.5069 25.5898V60.0818M44.5069 25.5898C44.507 24.7561 44.6945 23.9332 45.0555 23.1817C45.4164 22.4303 45.9417 21.7696 46.5923 21.2485C47.243 20.7273 48.0025 20.3591 48.8146 20.171C49.6267 19.9828 50.4708 19.9796 51.2843 20.1616C52.0978 20.3435 52.8601 20.7059 53.5147 21.2221C54.1693 21.7383 54.6996 22.395 55.0662 23.1436C55.4329 23.8923 55.6267 24.7138 55.6332 25.5474C55.6396 26.381 55.4587 27.2054 55.1037 27.9597M44.5069 60.0818C44.5069 61.2622 44.038 62.3942 43.2033 63.2288C42.3687 64.0635 41.2366 64.5324 40.0563 64.5324C38.8759 64.5324 37.7439 64.0635 36.9092 63.2288C36.0746 62.3942 35.6057 61.2622 35.6057 60.0818M44.5069 60.0818C44.5069 61.2622 44.9758 62.3942 45.8104 63.2288C46.6451 64.0635 47.7771 64.5324 48.9574 64.5324M44.5069 31.153C44.5069 32.9235 45.2102 34.6216 46.4622 35.8736C47.7142 37.1255 49.4122 37.8289 51.1827 37.8289M63.6666 35.5346C64.6382 36.3692 65.4177 37.4042 65.9516 38.5684C66.4855 39.7327 66.7612 40.9986 66.7598 42.2795C66.7598 43.8438 66.357 45.3148 65.6471 46.5921M63.5999 35.3543C64.3297 34.2623 64.6495 32.9472 64.5029 31.642C64.3562 30.3367 63.7524 29.1254 62.7984 28.2226C61.8444 27.3198 60.6017 26.7836 59.2904 26.709C57.979 26.6344 56.6835 27.0262 55.6333 27.8151M59.3429 51.1806L55.6333 57.8565H64.5345L60.8249 64.5324" stroke="white" stroke-width="3.33794" stroke-linecap="round" stroke-linejoin="round"/>
<defs>
<linearGradient id="paint0_linear_872_22206" x1="2.7198" y1="8.4773" x2="86.3768" y2="11.6715" gradientUnits="userSpaceOnUse">
<stop stop-color="#095AD3"/>
<stop offset="1" stop-color="#166FF4"/>
</linearGradient>
</defs>
</svg>
