<svg width="22" height="22" viewBox="0 0 22 22" fill="none" xmlns="http://www.w3.org/2000/svg">
<rect width="22" height="22" rx="5" fill="#FFF3E7"/>
<path d="M15.3096 4V9.07014V4ZM13.6192 5.26753H14.042C14.7417 5.26753 15.3096 4.69968 15.3096 4M16.9999 9.07014H13.6192H16.9999ZM14.5541 14.7416H15.2193C15.595 14.7316 15.9519 14.5754 16.2141 14.3062C16.4763 14.0369 16.623 13.676 16.623 13.3002C16.623 12.9243 16.4763 12.5634 16.2141 12.2942C15.9519 12.0249 15.595 11.8687 15.2193 11.8587H14.5541C14.1784 11.8687 13.8215 12.0249 13.5593 12.2942C13.2971 12.5634 13.1504 12.9243 13.1504 13.3002C13.1504 13.676 13.2971 14.0369 13.5593 14.3062C13.8215 14.5754 14.1784 14.7316 14.5541 14.7416Z" fill="#FFF3E7"/>
<path d="M15.3096 9.07014V4C15.3096 4.69968 14.7417 5.26753 14.042 5.26753H13.6192M16.9999 9.07014H13.6192M14.5541 14.7416H15.2193C15.595 14.7316 15.9519 14.5754 16.2141 14.3062C16.4763 14.0369 16.623 13.676 16.623 13.3002C16.623 12.9243 16.4763 12.5634 16.2141 12.2942C15.9519 12.0249 15.595 11.8687 15.2193 11.8587H14.5541C14.1784 11.8687 13.8215 12.0249 13.5593 12.2942C13.2971 12.5634 13.1504 12.9243 13.1504 13.3002C13.1504 13.676 13.2971 14.0369 13.5593 14.3062C13.8215 14.5754 14.1784 14.7316 14.5541 14.7416Z" stroke="#FF7A00" stroke-width="1.01403" stroke-linecap="round" stroke-linejoin="round"/>
<path d="M16.6613 13.1891V15.8509C16.6613 16.5861 16.0651 17.1824 15.3309 17.1824H14.4436C14.1682 17.1823 13.8996 17.0969 13.6747 16.9378C13.4499 16.7787 13.2799 16.5538 13.1883 16.2941M10.0701 14.6473L7.53507 17.1824L5 14.6473M7.53507 4V17.1824V4Z" fill="#FFF3E7"/>
<path d="M16.6613 13.1891V15.8509C16.6613 16.5861 16.0651 17.1824 15.3309 17.1824H14.4436C14.1682 17.1823 13.8996 17.0969 13.6747 16.9378C13.4499 16.7787 13.2799 16.5538 13.1883 16.2941M10.0701 14.6473L7.53507 17.1824M7.53507 17.1824L5 14.6473M7.53507 17.1824V4" stroke="#FF7A00" stroke-width="1.01403" stroke-linecap="round" stroke-linejoin="round"/>
</svg>
