<svg width="40" height="40" viewBox="0 0 40 40" fill="none" xmlns="http://www.w3.org/2000/svg">
<rect width="40" height="40" rx="10" fill="#F0F5FC"/>
<path d="M21.6923 13.1154C21.6924 13.2864 21.6324 13.4521 21.5229 13.5835C21.4134 13.7148 21.2613 13.8037 21.0931 13.8345L20.9615 13.8462H15.1154C14.9328 13.8465 14.7566 13.7784 14.6217 13.6554C14.4868 13.5324 14.4028 13.3633 14.3863 13.1814C14.3698 12.9995 14.4219 12.8181 14.5326 12.6728C14.6432 12.5275 14.8042 12.4288 14.9838 12.3963L15.1154 12.3846H20.9615C21.1554 12.3846 21.3412 12.4616 21.4783 12.5987C21.6153 12.7357 21.6923 12.9216 21.6923 13.1154ZM21.6923 18.2308C21.6924 18.4018 21.6324 18.5674 21.5229 18.6988C21.4134 18.8302 21.2613 18.9191 21.0931 18.9498L20.9615 18.9615H15.1154C14.9328 18.9619 14.7566 18.8938 14.6217 18.7708C14.4868 18.6478 14.4028 18.4787 14.3863 18.2968C14.3698 18.1149 14.4219 17.9335 14.5326 17.7882C14.6432 17.6429 14.8042 17.5442 14.9838 17.5117L15.1154 17.5H20.9615C21.1554 17.5 21.3412 17.577 21.4783 17.714C21.6153 17.8511 21.6923 18.037 21.6923 18.2308ZM21.6923 23.3462C21.6924 23.5172 21.6324 23.6828 21.5229 23.8142C21.4134 23.9456 21.2613 24.0344 21.0931 24.0652L20.9615 24.0769H15.1154C14.9328 24.0773 14.7566 24.0092 14.6217 23.8862C14.4868 23.7631 14.4028 23.5941 14.3863 23.4122C14.3698 23.2303 14.4219 23.0489 14.5326 22.9036C14.6432 22.7582 14.8042 22.6596 14.9838 22.6271L15.1154 22.6154H20.9615C21.1554 22.6154 21.3412 22.6924 21.4783 22.8294C21.6153 22.9665 21.6923 23.1523 21.6923 23.3462ZM12.9231 8C12.1478 8 11.4043 8.30797 10.8561 8.85615C10.308 9.40433 10 10.1478 10 10.9231V25.5385C10 26.3137 10.308 27.0572 10.8561 27.6054C11.4043 28.1536 12.1478 28.4615 12.9231 28.4615H23.1538C23.9291 28.4615 24.6726 28.1536 25.2208 27.6054C25.769 27.0572 26.0769 26.3137 26.0769 25.5385V10.9231C26.0769 10.1478 25.769 9.40433 25.2208 8.85615C24.6726 8.30797 23.9291 8 23.1538 8H12.9231ZM11.4615 25.5385V10.9231C11.4615 10.5355 11.6155 10.1637 11.8896 9.88961C12.1637 9.61552 12.5355 9.46154 12.9231 9.46154H23.1538C23.5415 9.46154 23.9132 9.61552 24.1873 9.88961C24.4614 10.1637 24.6154 10.5355 24.6154 10.9231V25.5385C24.6154 25.9261 24.4614 26.2978 24.1873 26.5719C23.9132 26.846 23.5415 27 23.1538 27H12.9231C12.5355 27 12.1637 26.846 11.8896 26.5719C11.6155 26.2978 11.4615 25.9261 11.4615 25.5385ZM27.5385 16.7692C27.9261 16.7692 28.2978 16.9232 28.5719 17.1973C28.846 17.4714 29 17.8431 29 18.2308V25.6262C29 26.3824 28.8511 27.1312 28.5617 27.8298C28.2723 28.5285 27.8481 29.1633 27.3134 29.698C26.7787 30.2327 26.1439 30.6569 25.4452 30.9463C24.7466 31.2357 23.9978 31.3846 23.2415 31.3846H14.3846C13.997 31.3846 13.6252 31.2306 13.3512 30.9565C13.0771 30.6824 12.9231 30.3107 12.9231 29.9231H23.1538C24.3167 29.9231 25.432 29.4611 26.2542 28.6389C27.0765 27.8166 27.5385 26.7013 27.5385 25.5385V16.7692Z" fill="url(#paint0_linear_816_59462)"/>
<defs>
<linearGradient id="paint0_linear_816_59462" x1="10.5806" y1="10.2271" x2="28.4464" y2="10.7814" gradientUnits="userSpaceOnUse">
<stop stop-color="#095AD3"/>
<stop offset="1" stop-color="#166FF4"/>
</linearGradient>
</defs>
</svg>
