<svg width="40" height="40" viewBox="0 0 40 40" fill="none" xmlns="http://www.w3.org/2000/svg">
<rect width="40" height="40" rx="10" fill="#F0F5FC"/>
<path d="M22 10.75C23.907 10.75 25.262 10.752 26.29 10.89C27.295 11.025 27.875 11.279 28.298 11.702C28.785 12.189 28.998 12.567 29.115 13.24C29.247 13.999 29.25 15.08 29.25 17C29.25 17.1989 29.329 17.3897 29.4697 17.5303C29.6103 17.671 29.8011 17.75 30 17.75C30.1989 17.75 30.3897 17.671 30.5303 17.5303C30.671 17.3897 30.75 17.1989 30.75 17V16.904C30.75 15.104 30.75 13.886 30.592 12.982C30.417 11.977 30.043 11.326 29.359 10.642C28.61 9.892 27.661 9.561 26.489 9.403C25.349 9.25 23.894 9.25 22.056 9.25H22C21.8011 9.25 21.6103 9.32902 21.4697 9.46967C21.329 9.61032 21.25 9.80109 21.25 10C21.25 10.1989 21.329 10.3897 21.4697 10.5303C21.6103 10.671 21.8011 10.75 22 10.75ZM10 22.25C10.1989 22.25 10.3897 22.329 10.5303 22.4697C10.671 22.6103 10.75 22.8011 10.75 23C10.75 24.92 10.753 26.001 10.885 26.76C11.003 27.433 11.215 27.811 11.702 28.298C12.125 28.721 12.705 28.975 13.711 29.11C14.739 29.248 16.093 29.25 18 29.25C18.1989 29.25 18.3897 29.329 18.5303 29.4697C18.671 29.6103 18.75 29.8011 18.75 30C18.75 30.1989 18.671 30.3897 18.5303 30.5303C18.3897 30.671 18.1989 30.75 18 30.75H17.944C16.106 30.75 14.65 30.75 13.511 30.597C12.339 30.439 11.39 30.107 10.641 29.359C9.957 28.674 9.583 28.023 9.408 27.018C9.25 26.114 9.25 24.895 9.25 23.096V23C9.25 22.8011 9.32902 22.6103 9.46967 22.4697C9.61032 22.329 9.80109 22.25 10 22.25ZM30 22.25C30.1989 22.25 30.3897 22.329 30.5303 22.4697C30.671 22.6103 30.75 22.8011 30.75 23V23.096C30.75 24.896 30.75 26.114 30.592 27.018C30.417 28.023 30.043 28.674 29.359 29.358C28.61 30.108 27.661 30.439 26.489 30.597C25.349 30.75 23.894 30.75 22.056 30.75H22C21.8011 30.75 21.6103 30.671 21.4697 30.5303C21.329 30.3897 21.25 30.1989 21.25 30C21.25 29.8011 21.329 29.6103 21.4697 29.4697C21.6103 29.329 21.8011 29.25 22 29.25C23.907 29.25 25.262 29.248 26.29 29.11C27.295 28.975 27.875 28.721 28.298 28.298C28.785 27.811 28.998 27.433 29.115 26.76C29.247 26.001 29.25 24.92 29.25 23C29.25 22.8011 29.329 22.6103 29.4697 22.4697C29.6103 22.329 29.8011 22.25 30 22.25ZM17.944 9.25H18C18.1989 9.25 18.3897 9.32902 18.5303 9.46967C18.671 9.61032 18.75 9.80109 18.75 10C18.75 10.1989 18.671 10.3897 18.5303 10.5303C18.3897 10.671 18.1989 10.75 18 10.75C16.093 10.75 14.739 10.752 13.71 10.89C12.705 11.025 12.125 11.279 11.702 11.702C11.215 12.189 11.002 12.567 10.885 13.24C10.753 13.999 10.75 15.08 10.75 17C10.75 17.1989 10.671 17.3897 10.5303 17.5303C10.3897 17.671 10.1989 17.75 10 17.75C9.80109 17.75 9.61032 17.671 9.46967 17.5303C9.32902 17.3897 9.25 17.1989 9.25 17V16.904C9.25 15.104 9.25 13.886 9.408 12.982C9.583 11.977 9.957 11.326 10.641 10.642C11.39 9.892 12.339 9.561 13.511 9.403C14.651 9.25 16.106 9.25 17.944 9.25ZM20 18.75C19.6685 18.75 19.3505 18.8817 19.1161 19.1161C18.8817 19.3505 18.75 19.6685 18.75 20C18.75 20.3315 18.8817 20.6495 19.1161 20.8839C19.3505 21.1183 19.6685 21.25 20 21.25C20.3315 21.25 20.6495 21.1183 20.8839 20.8839C21.1183 20.6495 21.25 20.3315 21.25 20C21.25 19.6685 21.1183 19.3505 20.8839 19.1161C20.6495 18.8817 20.3315 18.75 20 18.75Z" fill="url(#paint0_linear_904_14820)"/>
<path fill-rule="evenodd" clip-rule="evenodd" d="M13.892 22.06C13.297 21.37 13 21.025 13 20C13 18.975 13.297 18.63 13.892 17.94C15.08 16.562 17.072 15 20 15C22.927 15 24.92 16.562 26.108 17.94C26.703 18.63 27 18.975 27 20C27 21.025 26.703 21.37 26.108 22.06C24.92 23.438 22.928 25 20 25C17.073 25 15.08 23.438 13.892 22.06ZM17.25 20C17.25 19.2707 17.5397 18.5712 18.0555 18.0555C18.5712 17.5397 19.2707 17.25 20 17.25C20.7293 17.25 21.4288 17.5397 21.9445 18.0555C22.4603 18.5712 22.75 19.2707 22.75 20C22.75 20.7293 22.4603 21.4288 21.9445 21.9445C21.4288 22.4603 20.7293 22.75 20 22.75C19.2707 22.75 18.5712 22.4603 18.0555 21.9445C17.5397 21.4288 17.25 20.7293 17.25 20Z" fill="url(#paint1_linear_904_14820)"/>
<defs>
<linearGradient id="paint0_linear_904_14820" x1="9.90694" y1="11.2976" x2="30.1135" y2="12.0691" gradientUnits="userSpaceOnUse">
<stop stop-color="#095AD3"/>
<stop offset="1" stop-color="#166FF4"/>
</linearGradient>
<linearGradient id="paint1_linear_904_14820" x1="13.4278" y1="15.9524" x2="26.5672" y2="16.6547" gradientUnits="userSpaceOnUse">
<stop stop-color="#095AD3"/>
<stop offset="1" stop-color="#166FF4"/>
</linearGradient>
</defs>
</svg>
