<svg width="40" height="40" viewBox="0 0 40 40" fill="none" xmlns="http://www.w3.org/2000/svg">
<rect width="40" height="40" rx="10" fill="url(#paint0_linear_1312_13239)"/>
<path d="M25.7461 17.7601V10.9999C25.7461 11.9328 24.9889 12.6899 24.056 12.6899H23.4922M27.9999 17.7601H23.4922M24.7388 25.322H25.6257C26.1266 25.3087 26.6026 25.1004 26.9521 24.7414C27.3017 24.3824 27.4974 23.9012 27.4974 23.4001C27.4974 22.899 27.3017 22.4177 26.9521 22.0588C26.6026 21.6998 26.1266 21.4915 25.6257 21.4782H24.7388C24.2379 21.4915 23.762 21.6998 23.4124 22.0588C23.0628 22.4177 22.8672 22.899 22.8672 23.4001C22.8672 23.9012 23.0628 24.3824 23.4124 24.7414C23.762 25.1004 24.2379 25.3087 24.7388 25.322Z" stroke="white" stroke-width="1.35204" stroke-linecap="round" stroke-linejoin="round"/>
<path d="M27.5484 23.2522V26.8013C27.5484 27.7815 26.7534 28.5765 25.7745 28.5765H24.5915C24.2243 28.5764 23.8661 28.4625 23.5663 28.2504C23.2665 28.0383 23.0399 27.7384 22.9177 27.3921M18.7602 25.1964L15.3801 28.5765M15.3801 28.5765L12 25.1964M15.3801 28.5765V11" stroke="white" stroke-width="1.35204" stroke-linecap="round" stroke-linejoin="round"/>
<defs>
<linearGradient id="paint0_linear_1312_13239" x1="1.22222" y1="3.80952" x2="38.8159" y2="5.24492" gradientUnits="userSpaceOnUse">
<stop stop-color="#095AD3"/>
<stop offset="1" stop-color="#166FF4"/>
</linearGradient>
</defs>
</svg>
