<svg width="14" height="13" viewBox="0 0 14 13" fill="none" xmlns="http://www.w3.org/2000/svg">
<path d="M3.10268 2.08998C2.88719 2.08998 2.68053 2.17559 2.52815 2.32796C2.37578 2.48033 2.29018 2.68699 2.29018 2.90248V10.0989C2.29018 10.2943 2.36059 10.4831 2.48849 10.6308C2.6164 10.7785 2.79324 10.8751 2.98661 10.9031V7.54534C2.98661 7.26828 3.09667 7.00258 3.29258 6.80667C3.48848 6.61076 3.75419 6.5007 4.03125 6.5007H9.37054C9.64759 6.5007 9.9133 6.61076 10.1092 6.80667C10.3051 7.00258 10.4152 7.26828 10.4152 7.54534V10.9031C10.6085 10.8751 10.7854 10.7785 10.9133 10.6308C11.0412 10.4831 11.1116 10.2943 11.1116 10.0989V4.07991C11.1116 3.86402 11.0262 3.65741 10.8734 3.50513L9.69646 2.32816C9.621 2.25265 9.5314 2.19274 9.43277 2.15187C9.33415 2.11101 9.22844 2.08998 9.12168 2.08998H9.02232V4.0632C9.02232 4.20038 8.9953 4.33622 8.9428 4.46297C8.89031 4.58971 8.81336 4.70487 8.71635 4.80187C8.61935 4.89888 8.50419 4.97582 8.37745 5.02832C8.2507 5.08082 8.11486 5.10784 7.97768 5.10784H4.95982C4.68277 5.10784 4.41706 4.99778 4.22115 4.80187C4.02524 4.60596 3.91518 4.34025 3.91518 4.0632V2.08998H3.10268ZM4.61161 2.08998V4.0632C4.61161 4.25541 4.76761 4.41141 4.95982 4.41141H7.97768C8.07003 4.41141 8.1586 4.37473 8.2239 4.30942C8.28921 4.24412 8.32589 4.15555 8.32589 4.0632V2.08998H4.61161ZM9.71875 10.9114V7.54534C9.71875 7.45299 9.68206 7.36442 9.61676 7.29912C9.55146 7.23381 9.46289 7.19713 9.37054 7.19713H4.03125C3.9389 7.19713 3.85033 7.23381 3.78503 7.29912C3.71972 7.36442 3.68304 7.45299 3.68304 7.54534V10.9114H9.71875ZM1.59375 2.90248C1.59375 2.50229 1.75273 2.11849 2.0357 1.83551C2.31868 1.55253 2.70249 1.39355 3.10268 1.39355H9.12214C9.52233 1.39358 9.90611 1.55257 10.1891 1.83555L11.366 3.01252C11.6493 3.29573 11.808 3.6797 11.808 4.07991V10.0989C11.808 10.4991 11.6491 10.8829 11.3661 11.1659C11.0831 11.4489 10.6993 11.6078 10.2991 11.6078H3.10268C2.70249 11.6078 2.31868 11.4489 2.0357 11.1659C1.75273 10.8829 1.59375 10.4991 1.59375 10.0989V2.90248Z" fill="#10C900"/>
</svg>
