<svg width="12" height="11" viewBox="0 0 12 11" fill="none" xmlns="http://www.w3.org/2000/svg">
<path d="M8.14286 1.92857C8.14286 1.54969 8.29337 1.18633 8.56128 0.918419C8.82919 0.65051 9.19255 0.500001 9.57143 0.500001C9.95031 0.500001 10.3137 0.65051 10.5816 0.91842C10.8495 1.18633 11 1.54969 11 1.92857C11 2.30745 10.8495 2.67082 10.5816 2.93872C10.3137 3.20663 9.95031 3.35714 9.57143 3.35714C9.19255 3.35714 8.82918 3.20663 8.56128 2.93872C8.29337 2.67082 8.14286 2.30745 8.14286 1.92857ZM8.14286 1.92857L3.85714 1.92857M3.85714 1.92857C3.85714 1.64603 3.77336 1.36983 3.61638 1.1349C3.45941 0.899973 3.2363 0.716869 2.97526 0.608744C2.71422 0.500619 2.42699 0.472328 2.14987 0.52745C1.87276 0.582572 1.61821 0.71863 1.41842 0.918419C1.21863 1.11821 1.08257 1.37276 1.02745 1.64987C0.972327 1.92699 1.00062 2.21422 1.10874 2.47526C1.21687 2.7363 1.39997 2.95941 1.6349 3.11639C1.86983 3.27336 2.14603 3.35714 2.42857 3.35714M3.85714 1.92857C3.85714 2.30745 3.70663 2.67082 3.43872 2.93872C3.17081 3.20663 2.80745 3.35714 2.42857 3.35714M2.42857 3.35714L2.42857 6.92857C2.42857 7.49689 2.65434 8.04194 3.0562 8.4438C3.45806 8.84566 4.00311 9.07143 4.57143 9.07143L6 9.07143M6 9.07143C6 8.69255 6.15051 8.32919 6.41842 8.06128C6.68633 7.79337 7.04969 7.64286 7.42857 7.64286C7.80745 7.64286 8.17081 7.79337 8.43872 8.06128C8.70663 8.32919 8.85714 8.69255 8.85714 9.07143C8.85714 9.45031 8.70663 9.81367 8.43872 10.0816C8.17081 10.3495 7.80745 10.5 7.42857 10.5C7.04969 10.5 6.68633 10.3495 6.41842 10.0816C6.15051 9.81367 6 9.45031 6 9.07143Z" stroke="#A3A7AF" stroke-width="0.714286"/>
</svg>
