<svg width="40" height="40" viewBox="0 0 40 40" fill="none" xmlns="http://www.w3.org/2000/svg">
<rect width="40" height="40" rx="10" fill="url(#paint0_linear_904_14815)"/>
<path d="M11.5294 20.1176V17.5882C11.5294 15.5757 12.3289 13.6456 13.752 12.2225C15.175 10.7995 17.1051 10 19.1176 10C21.1302 10 23.0603 10.7995 24.4833 12.2225C25.9064 13.6456 26.7059 15.5757 26.7059 17.5882V20.1176M9 27.7059C9 28.3767 9.26649 29.0201 9.74085 29.4944C10.2152 29.9688 10.8586 30.2353 11.5294 30.2353C12.2003 30.2353 12.8436 29.9688 13.318 29.4944C13.7923 29.0201 14.0588 28.3767 14.0588 27.7059C14.0588 27.035 13.7923 26.3917 13.318 25.9173C12.8436 25.443 12.2003 25.1765 11.5294 25.1765C10.8586 25.1765 10.2152 25.443 9.74085 25.9173C9.26649 26.3917 9 27.035 9 27.7059ZM24.1765 27.7059C24.1765 28.3767 24.443 29.0201 24.9173 29.4944C25.3917 29.9688 26.035 30.2353 26.7059 30.2353C27.3767 30.2353 28.0201 29.9688 28.4944 29.4944C28.9688 29.0201 29.2353 28.3767 29.2353 27.7059C29.2353 27.035 28.9688 26.3917 28.4944 25.9173C28.0201 25.443 27.3767 25.1765 26.7059 25.1765C26.035 25.1765 25.3917 25.443 24.9173 25.9173C24.443 26.3917 24.1765 27.035 24.1765 27.7059Z" stroke="white" stroke-width="1.7" stroke-linecap="round" stroke-linejoin="round"/>
<path d="M22.9102 16.3235L26.7043 20.1176L30.4984 16.3235" stroke="white" stroke-width="1.7" stroke-linecap="round" stroke-linejoin="round"/>
<defs>
<linearGradient id="paint0_linear_904_14815" x1="1.22222" y1="3.80952" x2="38.8159" y2="5.24492" gradientUnits="userSpaceOnUse">
<stop stop-color="#095AD3"/>
<stop offset="1" stop-color="#166FF4"/>
</linearGradient>
</defs>
</svg>
