<svg width="20" height="21" viewBox="0 0 20 21" fill="none" xmlns="http://www.w3.org/2000/svg">
<path d="M6.54746 18.9225V14.8157L3.48228 17.0774C4.34529 17.8809 5.38686 18.5058 6.54746 18.9225ZM12.4993 18.9225C13.6599 18.5058 14.7014 17.8809 15.5644 17.0774L12.4993 14.786V18.9225ZM1.10156 13.4766C1.19084 13.7742 1.30988 14.042 1.45867 14.3396L2.61927 13.4766H1.10156ZM16.4274 13.4766L17.588 14.3396C17.7071 14.0717 17.8261 13.7742 17.9451 13.4766H16.4274Z" fill="#2A5F9E"/>
<path d="M6.99111 12.2852H0.771484C0.860761 12.7018 0.979797 13.0886 1.09883 13.4755H2.61654L1.45594 14.3385C1.69401 14.8444 1.96184 15.2908 2.28919 15.7372L5.35437 13.4755H6.54473V14.0707L3.06293 16.63L3.47955 17.0466L6.54473 14.8147V18.9214C6.93159 19.0702 7.31846 19.1595 7.73509 19.2488V12.2852H6.99111ZM18.2698 12.2852H11.3062V19.2488C11.7228 19.1595 12.1097 19.0404 12.4965 18.9214V14.8147L15.5617 17.0466C15.9783 16.6597 16.3354 16.2431 16.6925 15.7967L13.5083 13.4755H15.5319L17.3472 14.8147C17.4365 14.6659 17.5258 14.4873 17.5853 14.3385L16.4247 13.4755H17.9424C18.0615 13.0886 18.1805 12.7018 18.2698 12.2852Z" fill="white"/>
<path d="M2.29102 15.7382C2.52909 16.0656 2.76716 16.3632 3.03499 16.6608L6.54655 14.1015V13.5063H5.35619L2.29102 15.7382ZM13.5399 13.4766L16.7241 15.7978C16.8432 15.649 16.9324 15.5002 17.0515 15.3514C17.0812 15.3216 17.0812 15.2919 17.111 15.2919C17.2003 15.1431 17.3193 14.9645 17.4086 14.8157L15.5338 13.4766H13.5399Z" fill="#ED4C5C"/>
<path d="M12.4993 2.07812V6.18486L15.5644 3.92318C14.7014 3.11969 13.6599 2.49475 12.4993 2.07812ZM6.54746 2.07812C5.38686 2.49475 4.34529 3.11969 3.48228 3.92318L6.54746 6.21462V2.07812ZM17.9451 7.52402C17.8559 7.22643 17.7368 6.9586 17.588 6.66101L16.4274 7.52402H17.9451ZM2.61927 7.52402L1.45867 6.66101C1.33963 6.9586 1.2206 7.22643 1.10156 7.52402H2.61927Z" fill="#2A5F9E"/>
<path d="M12.0501 8.7136H18.24C18.1507 8.29698 18.0317 7.91011 17.9127 7.52324H16.395L17.5556 6.66023C17.3175 6.15433 17.0496 5.70794 16.7223 5.26156L13.6869 7.52324H12.4965V6.92806L15.9783 4.36879L15.5617 3.95216L12.4965 6.18409V2.07735C12.1097 1.92855 11.7228 1.83928 11.3062 1.75V8.7136H12.0501ZM0.771484 8.7136H7.73509V1.75C7.31846 1.83928 6.93159 1.95831 6.54473 2.07735V6.18409L3.47955 3.95216C3.06293 4.33903 2.70582 4.75566 2.34871 5.20204L5.53292 7.52324H3.50931L1.69401 6.18409C1.60474 6.33288 1.51546 6.51144 1.45594 6.66023L2.61654 7.52324H1.09883C0.979797 7.91011 0.860761 8.29698 0.771484 8.7136Z" fill="white"/>
<path d="M16.7538 5.26237C16.5157 4.93502 16.2777 4.63743 16.0098 4.33984L12.4983 6.89912V7.4943H13.6886L16.7538 5.26237ZM5.50492 7.52405L2.35047 5.20285C2.23144 5.35165 2.14216 5.50044 2.02312 5.64924C1.99336 5.679 1.99336 5.70876 1.96361 5.70876C1.87433 5.85755 1.75529 6.03611 1.66602 6.1849L3.48131 7.52405H5.50492Z" fill="#ED4C5C"/>
<path d="M18.2725 8.71247H11.3089V1.74887C10.7435 1.62983 10.1483 1.57031 9.5234 1.57031C8.89846 1.57031 8.30328 1.62983 7.73786 1.74887V8.71247H0.774257C0.655221 9.27789 0.595703 9.87307 0.595703 10.498C0.595703 11.1229 0.655221 11.7181 0.774257 12.2835H7.73786V19.2471C8.30328 19.3662 8.89846 19.4257 9.5234 19.4257C10.1483 19.4257 10.7435 19.3662 11.3089 19.2471V12.2835H18.2725C18.3916 11.7181 18.4511 11.1229 18.4511 10.498C18.4511 9.87307 18.3916 9.27789 18.2725 8.71247Z" fill="#ED4C5C"/>
</svg>
