<svg width="42" height="42" viewBox="0 0 42 42" fill="none" xmlns="http://www.w3.org/2000/svg">
<rect width="42" height="42" rx="10" fill="url(#paint0_linear_4806_118080)"/>
<path fill-rule="evenodd" clip-rule="evenodd" d="M15.6176 10.2344C13.6358 10.2344 12.0293 11.8409 12.0293 13.8226V28.1639L12.0293 28.176C12.0293 30.1577 13.6358 31.7643 15.6176 31.7643H26.3823C28.3641 31.7643 29.9706 30.1577 29.9706 28.176C29.9706 26.1947 28.3647 24.5884 26.3835 24.5877V16.4414C26.3835 14.9953 25.2112 13.823 23.7651 13.823H19.207V21.9693C19.207 23.4154 20.3793 24.5878 21.8255 24.5878H26.383V28.176H15.6182V13.823H19.2058V13.8226C19.2058 11.8409 17.5993 10.2344 15.6176 10.2344Z" fill="white"/>
<defs>
<linearGradient id="paint0_linear_4806_118080" x1="0.229469" y1="-4.04241e-06" x2="46.8531" y2="7.83782" gradientUnits="userSpaceOnUse">
<stop stop-color="#095AD3"/>
<stop offset="1" stop-color="#166FF4"/>
</linearGradient>
</defs>
</svg>
