<svg width="164" height="20" viewBox="0 0 164 20" fill="none" xmlns="http://www.w3.org/2000/svg">
<rect width="164" height="20" rx="4.82869" fill="#095AD3" fill-opacity="0.1"/>
<path d="M8 5.625C8 5.45924 8.06585 5.30027 8.18306 5.18306C8.30027 5.06585 8.45924 5 8.625 5H17.375C17.5408 5 17.6997 5.06585 17.8169 5.18306C17.9342 5.30027 18 5.45924 18 5.625V6.875C18 7.04076 17.9342 7.19973 17.8169 7.31694C17.6997 7.43415 17.5408 7.5 17.375 7.5H8.625C8.45924 7.5 8.30027 7.43415 8.18306 7.31694C8.06585 7.19973 8 7.04076 8 6.875V5.625ZM8 10.625C8 10.4592 8.06585 10.3003 8.18306 10.1831C8.30027 10.0658 8.45924 10 8.625 10H12.375C12.5408 10 12.6997 10.0658 12.8169 10.1831C12.9342 10.3003 13 10.4592 13 10.625V14.375C13 14.5408 12.9342 14.6997 12.8169 14.8169C12.6997 14.9342 12.5408 15 12.375 15H8.625C8.45924 15 8.30027 14.9342 8.18306 14.8169C8.06585 14.6997 8 14.5408 8 14.375V10.625ZM15.5 10.625C15.5 10.4592 15.5658 10.3003 15.6831 10.1831C15.8003 10.0658 15.9592 10 16.125 10H17.375C17.5408 10 17.6997 10.0658 17.8169 10.1831C17.9342 10.3003 18 10.4592 18 10.625V14.375C18 14.5408 17.9342 14.6997 17.8169 14.8169C17.6997 14.9342 17.5408 15 17.375 15H16.125C15.9592 15 15.8003 14.9342 15.6831 14.8169C15.5658 14.6997 15.5 14.5408 15.5 14.375V10.625Z" stroke="url(#paint0_linear_186_2972)" stroke-width="1.08333" stroke-linecap="round" stroke-linejoin="round"/>
<path d="M32.8182 4L32.1309 5.5L30.6364 6.18182L32.1309 6.86909L32.8182 8.36364L33.5 6.86909L35 6.18182L33.5 5.5M27.3636 5.63636L26 8.63636L23 10L26 11.3636L27.3636 14.3636L28.7273 11.3636L31.7273 10L28.7273 8.63636M32.8182 11.6364L32.1309 13.1309L30.6364 13.8182L32.1309 14.5L32.8182 16L33.5 14.5L35 13.8182L33.5 13.1309" fill="url(#paint1_linear_186_2972)"/>
<path d="M46.9105 7.04204H48.0803V11.2612C48.0803 11.7236 47.971 12.1304 47.7524 12.4815C47.5359 12.8326 47.231 13.1069 46.8379 13.3045C46.4448 13.5 45.9855 13.5978 45.4599 13.5978C44.9323 13.5978 44.4719 13.5 44.0788 13.3045C43.6857 13.1069 43.3809 12.8326 43.1643 12.4815C42.9478 12.1304 42.8395 11.7236 42.8395 11.2612V7.04204H44.0094V11.1634C44.0094 11.4325 44.0683 11.6721 44.186 11.8824C44.3058 12.0926 44.474 12.2576 44.6905 12.3774C44.9071 12.4951 45.1635 12.554 45.4599 12.554C45.7564 12.554 46.0128 12.4951 46.2293 12.3774C46.448 12.2576 46.6162 12.0926 46.7339 11.8824C46.8516 11.6721 46.9105 11.4325 46.9105 11.1634V7.04204ZM49.3014 15.3163V8.65653H50.424V9.45747H50.4902C50.5491 9.33975 50.6321 9.21466 50.7394 9.08223C50.8466 8.94768 50.9916 8.83311 51.1745 8.73852C51.3574 8.64181 51.5907 8.59346 51.8745 8.59346C52.2487 8.59346 52.5861 8.68911 52.8868 8.88041C53.1895 9.06961 53.4291 9.35026 53.6057 9.72235C53.7844 10.0923 53.8737 10.5464 53.8737 11.0846C53.8737 11.6164 53.7865 12.0684 53.612 12.4405C53.4375 12.8126 53.2 13.0964 52.8994 13.2919C52.5988 13.4874 52.2582 13.5851 51.8777 13.5851C51.6002 13.5851 51.37 13.5389 51.1871 13.4464C51.0042 13.3539 50.8571 13.2425 50.7457 13.1121C50.6363 12.9797 50.5512 12.8546 50.4902 12.7369H50.4429V15.3163H49.3014ZM50.4209 11.0783C50.4209 11.3915 50.465 11.6658 50.5533 11.9013C50.6437 12.1367 50.773 12.3207 50.9412 12.4531C51.1114 12.5834 51.3175 12.6486 51.5592 12.6486C51.8115 12.6486 52.0227 12.5813 52.193 12.4468C52.3633 12.3102 52.4915 12.1241 52.5777 11.8887C52.666 11.6511 52.7102 11.381 52.7102 11.0783C52.7102 10.7777 52.6671 10.5107 52.5809 10.2773C52.4947 10.044 52.3665 9.86109 52.1962 9.72865C52.0259 9.59621 51.8136 9.52999 51.5592 9.52999C51.3154 9.52999 51.1083 9.59411 50.938 9.72235C50.7677 9.85058 50.6384 10.0303 50.5502 10.2616C50.464 10.4928 50.4209 10.765 50.4209 11.0783ZM56.6486 13.5851C56.2681 13.5851 55.9276 13.4874 55.627 13.2919C55.3264 13.0964 55.0888 12.8126 54.9143 12.4405C54.7398 12.0684 54.6526 11.6164 54.6526 11.0846C54.6526 10.5464 54.7409 10.0923 54.9175 9.72235C55.0962 9.35026 55.3369 9.06961 55.6396 8.88041C55.9423 8.68911 56.2797 8.59346 56.6518 8.59346C56.9356 8.59346 57.1689 8.64181 57.3518 8.73852C57.5347 8.83311 57.6798 8.94768 57.787 9.08223C57.8942 9.21466 57.9772 9.33975 58.0361 9.45747H58.0834V7.04204H59.228V13.5H58.1055V12.7369H58.0361C57.9772 12.8546 57.8921 12.9797 57.7807 13.1121C57.6693 13.2425 57.5221 13.3539 57.3392 13.4464C57.1563 13.5389 56.9261 13.5851 56.6486 13.5851ZM56.9671 12.6486C57.2089 12.6486 57.4149 12.5834 57.5852 12.4531C57.7554 12.3207 57.8847 12.1367 57.973 11.9013C58.0613 11.6658 58.1055 11.3915 58.1055 11.0783C58.1055 10.765 58.0613 10.4928 57.973 10.2616C57.8868 10.0303 57.7586 9.85058 57.5883 9.72235C57.4201 9.59411 57.2131 9.52999 56.9671 9.52999C56.7128 9.52999 56.5004 9.59621 56.3302 9.72865C56.1599 9.86109 56.0316 10.044 55.9455 10.2773C55.8593 10.5107 55.8162 10.7777 55.8162 11.0783C55.8162 11.381 55.8593 11.6511 55.9455 11.8887C56.0337 12.1241 56.163 12.3102 56.3333 12.4468C56.5057 12.5813 56.717 12.6486 56.9671 12.6486ZM61.8382 13.5978C61.5313 13.5978 61.2548 13.5431 61.0089 13.4338C60.765 13.3224 60.5716 13.1584 60.4287 12.9419C60.2878 12.7253 60.2174 12.4584 60.2174 12.1409C60.2174 11.8676 60.2678 11.6417 60.3687 11.463C60.4697 11.2843 60.6073 11.1413 60.7818 11.0341C60.9563 10.9269 61.1529 10.846 61.3715 10.7913C61.5922 10.7346 61.8203 10.6936 62.0558 10.6683C62.3396 10.6389 62.5698 10.6126 62.7463 10.5895C62.9229 10.5643 63.0512 10.5264 63.131 10.476C63.213 10.4234 63.254 10.3425 63.254 10.2332V10.2143C63.254 9.97671 63.1836 9.79277 63.0427 9.66243C62.9019 9.5321 62.699 9.46693 62.4342 9.46693C62.1546 9.46693 61.9328 9.52789 61.7688 9.64982C61.6069 9.77175 61.4976 9.91575 61.4409 10.0818L60.3751 9.93046C60.4591 9.63616 60.5979 9.3902 60.7913 9.19259C60.9847 8.99288 61.2212 8.84363 61.5008 8.74482C61.7804 8.64392 62.0894 8.59346 62.4279 8.59346C62.6612 8.59346 62.8935 8.62079 63.1247 8.67545C63.356 8.73011 63.5672 8.8205 63.7585 8.94663C63.9498 9.07066 64.1033 9.23989 64.2189 9.45431C64.3367 9.66874 64.3955 9.93677 64.3955 10.2584V13.5H63.2982V12.8347H63.2603C63.191 12.9692 63.0932 13.0953 62.9671 13.213C62.843 13.3287 62.6864 13.4222 62.4972 13.4937C62.3101 13.5631 62.0904 13.5978 61.8382 13.5978ZM62.1346 12.759C62.3637 12.759 62.5624 12.7138 62.7306 12.6234C62.8987 12.5309 63.028 12.409 63.1184 12.2576C63.2109 12.1062 63.2572 11.9412 63.2572 11.7625V11.1918C63.2214 11.2212 63.1605 11.2485 63.0743 11.2738C62.9902 11.299 62.8956 11.3211 62.7905 11.34C62.6854 11.3589 62.5813 11.3757 62.4783 11.3904C62.3753 11.4052 62.286 11.4178 62.2103 11.4283C62.04 11.4514 61.8876 11.4892 61.753 11.5418C61.6185 11.5944 61.5123 11.6679 61.4346 11.7625C61.3568 11.855 61.3179 11.9749 61.3179 12.122C61.3179 12.3322 61.3946 12.4909 61.5481 12.5982C61.7015 12.7054 61.897 12.759 62.1346 12.759ZM67.9619 8.65653V9.53945H65.1775V8.65653H67.9619ZM65.8649 7.49612H67.0064V12.0432C67.0064 12.1966 67.0296 12.3144 67.0758 12.3963C67.1242 12.4762 67.1872 12.5309 67.265 12.5603C67.3428 12.5897 67.429 12.6045 67.5236 12.6045C67.5951 12.6045 67.6602 12.5992 67.7191 12.5887C67.7801 12.5782 67.8263 12.5687 67.8578 12.5603L68.0502 13.4527C67.9892 13.4737 67.902 13.4968 67.7885 13.5221C67.677 13.5473 67.5404 13.562 67.3785 13.5662C67.0926 13.5746 66.8351 13.5315 66.606 13.4369C66.3768 13.3402 66.195 13.191 66.0605 12.9892C65.928 12.7874 65.8628 12.5351 65.8649 12.2324V7.49612ZM71.0088 13.5946C70.5232 13.5946 70.1038 13.4937 69.7506 13.2919C69.3995 13.088 69.1294 12.8 68.9402 12.4279C68.751 12.0537 68.6564 11.6133 68.6564 11.1066C68.6564 10.6084 68.751 10.1712 68.9402 9.79487C69.1315 9.41648 69.3985 9.12217 69.7411 8.91195C70.0838 8.69963 70.4864 8.59346 70.9489 8.59346C71.2474 8.59346 71.5291 8.64181 71.7939 8.73852C72.0609 8.83311 72.2964 8.98027 72.5003 9.17998C72.7063 9.37969 72.8682 9.63405 72.9859 9.94308C73.1036 10.25 73.1625 10.6158 73.1625 11.0404V11.3904H69.1925V10.621H72.0683C72.0662 10.4024 72.0189 10.208 71.9264 10.0377C71.8339 9.8653 71.7046 9.7297 71.5385 9.6309C71.3746 9.5321 71.1833 9.48269 70.9646 9.48269C70.7313 9.48269 70.5263 9.53945 70.3497 9.65297C70.1731 9.76439 70.0355 9.91154 69.9366 10.0944C69.8399 10.2752 69.7905 10.4739 69.7884 10.6904V11.3621C69.7884 11.6438 69.8399 11.8855 69.943 12.0873C70.046 12.287 70.19 12.4405 70.375 12.5477C70.56 12.6528 70.7765 12.7054 71.0245 12.7054C71.1906 12.7054 71.3409 12.6822 71.4755 12.636C71.61 12.5876 71.7267 12.5172 71.8255 12.4247C71.9243 12.3322 71.9989 12.2177 72.0494 12.081L73.1152 12.2008C73.0479 12.4825 72.9197 12.7285 72.7305 12.9387C72.5434 13.1468 72.3037 13.3087 72.0115 13.4243C71.7193 13.5378 71.3851 13.5946 71.0088 13.5946ZM75.9256 13.5851C75.5451 13.5851 75.2045 13.4874 74.9039 13.2919C74.6033 13.0964 74.3657 12.8126 74.1912 12.4405C74.0168 12.0684 73.9295 11.6164 73.9295 11.0846C73.9295 10.5464 74.0178 10.0923 74.1944 9.72235C74.3731 9.35026 74.6138 9.06961 74.9165 8.88041C75.2192 8.68911 75.5566 8.59346 75.9287 8.59346C76.2125 8.59346 76.4459 8.64181 76.6287 8.73852C76.8116 8.83311 76.9567 8.94768 77.0639 9.08223C77.1711 9.21466 77.2541 9.33975 77.313 9.45747H77.3603V7.04204H78.505V13.5H77.3824V12.7369H77.313C77.2541 12.8546 77.169 12.9797 77.0576 13.1121C76.9462 13.2425 76.799 13.3539 76.6161 13.4464C76.4332 13.5389 76.203 13.5851 75.9256 13.5851ZM76.244 12.6486C76.4858 12.6486 76.6918 12.5834 76.8621 12.4531C77.0324 12.3207 77.1616 12.1367 77.2499 11.9013C77.3382 11.6658 77.3824 11.3915 77.3824 11.0783C77.3824 10.765 77.3382 10.4928 77.2499 10.2616C77.1638 10.0303 77.0355 9.85058 76.8652 9.72235C76.6971 9.59411 76.49 9.52999 76.244 9.52999C75.9897 9.52999 75.7774 9.59621 75.6071 9.72865C75.4368 9.86109 75.3086 10.044 75.2224 10.2773C75.1362 10.5107 75.0931 10.7777 75.0931 11.0783C75.0931 11.381 75.1362 11.6511 75.2224 11.8887C75.3107 12.1241 75.4399 12.3102 75.6102 12.4468C75.7826 12.5813 75.9939 12.6486 76.244 12.6486ZM87.5021 9.22097H86.3228C86.2891 9.02757 86.2271 8.85624 86.1367 8.70698C86.0463 8.55562 85.9339 8.42739 85.7993 8.32228C85.6648 8.21717 85.5113 8.13834 85.3389 8.08578C85.1687 8.03113 84.9847 8.0038 84.7871 8.0038C84.4361 8.0038 84.1249 8.09209 83.8537 8.26867C83.5826 8.44316 83.3702 8.69962 83.2168 9.03808C83.0633 9.37443 82.9866 9.78541 82.9866 10.271C82.9866 10.765 83.0633 11.1813 83.2168 11.5197C83.3723 11.8561 83.5847 12.1104 83.8537 12.2828C84.1249 12.4531 84.435 12.5382 84.784 12.5382C84.9774 12.5382 85.1582 12.513 85.3263 12.4626C85.4966 12.41 85.649 12.3333 85.7836 12.2324C85.9202 12.1315 86.0348 12.0074 86.1273 11.8603C86.2219 11.7131 86.287 11.545 86.3228 11.3558L87.5021 11.3621C87.458 11.669 87.3623 11.957 87.2152 12.2261C87.0701 12.4951 86.8799 12.7327 86.6444 12.9387C86.409 13.1426 86.1336 13.3024 85.8183 13.418C85.5029 13.5315 85.1529 13.5883 84.7682 13.5883C84.2006 13.5883 83.694 13.4569 83.2483 13.1941C82.8026 12.9314 82.4516 12.5519 82.1951 12.0558C81.9386 11.5597 81.8104 10.9647 81.8104 10.271C81.8104 9.57519 81.9397 8.98027 82.1983 8.48625C82.4568 7.99013 82.809 7.61069 83.2546 7.34791C83.7003 7.08513 84.2048 6.95375 84.7682 6.95375C85.1277 6.95375 85.4619 7.0042 85.771 7.10511C86.08 7.20601 86.3554 7.35422 86.5971 7.54972C86.8389 7.74312 87.0375 7.98067 87.1931 8.26237C87.3508 8.54196 87.4538 8.86149 87.5021 9.22097ZM90.6357 13.5946C90.1627 13.5946 89.7528 13.4905 89.4059 13.2824C89.0591 13.0743 88.79 12.7831 88.5987 12.409C88.4095 12.0348 88.3149 11.5975 88.3149 11.0972C88.3149 10.5969 88.4095 10.1586 88.5987 9.78226C88.79 9.40596 89.0591 9.11376 89.4059 8.90564C89.7528 8.69752 90.1627 8.59346 90.6357 8.59346C91.1087 8.59346 91.5186 8.69752 91.8655 8.90564C92.2124 9.11376 92.4804 9.40596 92.6696 9.78226C92.8609 10.1586 92.9565 10.5969 92.9565 11.0972C92.9565 11.5975 92.8609 12.0348 92.6696 12.409C92.4804 12.7831 92.2124 13.0743 91.8655 13.2824C91.5186 13.4905 91.1087 13.5946 90.6357 13.5946ZM90.642 12.6801C90.8985 12.6801 91.1129 12.6097 91.2853 12.4689C91.4577 12.3259 91.5859 12.1346 91.67 11.895C91.7562 11.6553 91.7993 11.3883 91.7993 11.094C91.7993 10.7976 91.7562 10.5296 91.67 10.2899C91.5859 10.0482 91.4577 9.85584 91.2853 9.71289C91.1129 9.56994 90.8985 9.49846 90.642 9.49846C90.3792 9.49846 90.1606 9.56994 89.9861 9.71289C89.8137 9.85584 89.6845 10.0482 89.5983 10.2899C89.5142 10.5296 89.4721 10.7976 89.4721 11.094C89.4721 11.3883 89.5142 11.6553 89.5983 11.895C89.6845 12.1346 89.8137 12.3259 89.9861 12.4689C90.1606 12.6097 90.3792 12.6801 90.642 12.6801ZM93.9254 13.5V8.65653H95.0164V9.47954H95.0732C95.1741 9.20205 95.3412 8.98552 95.5746 8.82996C95.8079 8.6723 96.0864 8.59346 96.4102 8.59346C96.7381 8.59346 97.0146 8.67335 97.2395 8.83311C97.4665 8.99078 97.6263 9.20626 97.7188 9.47954H97.7693C97.8765 9.21046 98.0573 8.99604 98.3116 8.83627C98.5681 8.6744 98.8719 8.59346 99.2229 8.59346C99.6686 8.59346 100.032 8.73431 100.314 9.01601C100.596 9.2977 100.737 9.70868 100.737 10.2489V13.5H99.5919V10.4255C99.5919 10.1249 99.512 9.90524 99.3522 9.76649C99.1924 9.62564 98.9969 9.55522 98.7657 9.55522C98.4903 9.55522 98.2748 9.64141 98.1193 9.81379C97.9658 9.98407 97.8891 10.2059 97.8891 10.4791V13.5H96.7697V10.3782C96.7697 10.1281 96.694 9.92836 96.5426 9.77911C96.3934 9.62985 96.1979 9.55522 95.9561 9.55522C95.7921 9.55522 95.6429 9.59726 95.5083 9.68135C95.3738 9.76334 95.2666 9.88001 95.1867 10.0314C95.1068 10.1806 95.0669 10.3551 95.0669 10.5548V13.5H93.9254ZM101.895 15.3163V8.65653H103.017V9.45747H103.083C103.142 9.33975 103.225 9.21466 103.332 9.08223C103.44 8.94768 103.585 8.83311 103.768 8.73852C103.951 8.64181 104.184 8.59346 104.468 8.59346C104.842 8.59346 105.179 8.68911 105.48 8.88041C105.783 9.06961 106.022 9.35026 106.199 9.72235C106.378 10.0923 106.467 10.5464 106.467 11.0846C106.467 11.6164 106.38 12.0684 106.205 12.4405C106.031 12.8126 105.793 13.0964 105.492 13.2919C105.192 13.4874 104.851 13.5851 104.471 13.5851C104.193 13.5851 103.963 13.5389 103.78 13.4464C103.597 13.3539 103.45 13.2425 103.339 13.1121C103.229 12.9797 103.144 12.8546 103.083 12.7369H103.036V15.3163H101.895ZM103.014 11.0783C103.014 11.3915 103.058 11.6658 103.146 11.9013C103.237 12.1367 103.366 12.3207 103.534 12.4531C103.705 12.5834 103.911 12.6486 104.152 12.6486C104.405 12.6486 104.616 12.5813 104.786 12.4468C104.956 12.3102 105.085 12.1241 105.171 11.8887C105.259 11.6511 105.303 11.381 105.303 11.0783C105.303 10.7777 105.26 10.5107 105.174 10.2773C105.088 10.044 104.96 9.86109 104.789 9.72865C104.619 9.59621 104.407 9.52999 104.152 9.52999C103.908 9.52999 103.701 9.59411 103.531 9.72235C103.361 9.85058 103.232 10.0303 103.143 10.2616C103.057 10.4928 103.014 10.765 103.014 11.0783ZM108.838 13.5978C108.531 13.5978 108.255 13.5431 108.009 13.4338C107.765 13.3224 107.572 13.1584 107.429 12.9419C107.288 12.7253 107.217 12.4584 107.217 12.1409C107.217 11.8676 107.268 11.6417 107.369 11.463C107.47 11.2843 107.607 11.1413 107.782 11.0341C107.956 10.9269 108.153 10.846 108.371 10.7913C108.592 10.7346 108.82 10.6936 109.056 10.6683C109.34 10.6389 109.57 10.6126 109.746 10.5895C109.923 10.5643 110.051 10.5264 110.131 10.476C110.213 10.4234 110.254 10.3425 110.254 10.2332V10.2143C110.254 9.97671 110.184 9.79277 110.043 9.66243C109.902 9.5321 109.699 9.46693 109.434 9.46693C109.155 9.46693 108.933 9.52789 108.769 9.64982C108.607 9.77175 108.498 9.91575 108.441 10.0818L107.375 9.93046C107.459 9.63616 107.598 9.3902 107.791 9.19259C107.985 8.99288 108.221 8.84363 108.501 8.74482C108.78 8.64392 109.089 8.59346 109.428 8.59346C109.661 8.59346 109.893 8.62079 110.125 8.67545C110.356 8.73011 110.567 8.8205 110.758 8.94663C110.95 9.07066 111.103 9.23989 111.219 9.45431C111.337 9.66874 111.395 9.93677 111.395 10.2584V13.5H110.298V12.8347H110.26C110.191 12.9692 110.093 13.0953 109.967 13.213C109.843 13.3287 109.686 13.4222 109.497 13.4937C109.31 13.5631 109.09 13.5978 108.838 13.5978ZM109.135 12.759C109.364 12.759 109.562 12.7138 109.731 12.6234C109.899 12.5309 110.028 12.409 110.118 12.2576C110.211 12.1062 110.257 11.9412 110.257 11.7625V11.1918C110.221 11.2212 110.16 11.2485 110.074 11.2738C109.99 11.299 109.896 11.3211 109.79 11.34C109.685 11.3589 109.581 11.3757 109.478 11.3904C109.375 11.4052 109.286 11.4178 109.21 11.4283C109.04 11.4514 108.888 11.4892 108.753 11.5418C108.618 11.5944 108.512 11.6679 108.435 11.7625C108.357 11.855 108.318 11.9749 108.318 12.122C108.318 12.3322 108.395 12.4909 108.548 12.5982C108.701 12.7054 108.897 12.759 109.135 12.759ZM113.685 10.662V13.5H112.543V8.65653H113.634V9.47954H113.691C113.802 9.20836 113.98 8.99288 114.224 8.83311C114.47 8.67335 114.774 8.59346 115.135 8.59346C115.47 8.59346 115.761 8.66494 116.009 8.80789C116.259 8.95084 116.452 9.1579 116.589 9.42909C116.728 9.70027 116.796 10.0293 116.794 10.4161V13.5H115.652V10.5927C115.652 10.2689 115.568 10.0156 115.4 9.83271C115.234 9.64982 115.004 9.55837 114.71 9.55837C114.51 9.55837 114.332 9.60252 114.177 9.69081C114.023 9.777 113.902 9.90208 113.814 10.0661C113.728 10.23 113.685 10.4287 113.685 10.662ZM118.49 15.3163C118.335 15.3163 118.191 15.3037 118.058 15.2785C117.928 15.2553 117.824 15.228 117.746 15.1965L118.011 14.3072C118.177 14.3556 118.325 14.3787 118.456 14.3766C118.586 14.3745 118.701 14.3335 118.799 14.2536C118.9 14.1759 118.985 14.0455 119.055 13.8626L119.153 13.6009L117.396 8.65653H118.607L119.723 12.3144H119.774L120.893 8.65653H122.107L120.168 14.0865C120.078 14.343 119.958 14.5627 119.808 14.7456C119.659 14.9305 119.476 15.0714 119.26 15.1681C119.045 15.2669 118.789 15.3163 118.49 15.3163ZM125.15 13.5V7.04204H127.622C128.089 7.04204 128.477 7.11562 128.786 7.26277C129.097 7.40782 129.329 7.60648 129.483 7.85874C129.638 8.11101 129.716 8.39691 129.716 8.71644C129.716 8.97922 129.666 9.20415 129.565 9.39125C129.464 9.57624 129.328 9.72655 129.158 9.84217C128.988 9.95779 128.797 10.0408 128.587 10.0913V10.1543C128.816 10.167 129.036 10.2374 129.246 10.3656C129.459 10.4918 129.632 10.6704 129.767 10.9017C129.901 11.1329 129.968 11.4125 129.968 11.7405C129.968 12.0747 129.887 12.3753 129.726 12.6423C129.564 12.9072 129.32 13.1163 128.994 13.2698C128.668 13.4233 128.258 13.5 127.764 13.5H125.15ZM126.32 12.5225H127.578C128.003 12.5225 128.309 12.4415 128.496 12.2797C128.685 12.1157 128.78 11.9055 128.78 11.649C128.78 11.4577 128.732 11.2853 128.638 11.1319C128.543 10.9763 128.409 10.8544 128.234 10.7661C128.06 10.6757 127.851 10.6305 127.61 10.6305H126.32V12.5225ZM126.32 9.78857H127.477C127.679 9.78857 127.861 9.75178 128.023 9.6782C128.185 9.60252 128.312 9.49636 128.404 9.35972C128.499 9.22097 128.546 9.057 128.546 8.8678C128.546 8.61764 128.458 8.41162 128.281 8.24975C128.107 8.08788 127.847 8.00695 127.503 8.00695H126.32V9.78857ZM131.645 15.3163C131.49 15.3163 131.346 15.3037 131.213 15.2785C131.083 15.2553 130.979 15.228 130.901 15.1965L131.166 14.3072C131.332 14.3556 131.48 14.3787 131.61 14.3766C131.741 14.3745 131.855 14.3335 131.954 14.2536C132.055 14.1759 132.14 14.0455 132.21 13.8626L132.307 13.6009L130.551 8.65653H131.762L132.878 12.3144H132.929L134.048 8.65653H135.262L133.323 14.0865C133.232 14.343 133.113 14.5627 132.963 14.7456C132.814 14.9305 132.631 15.0714 132.415 15.1681C132.2 15.2669 131.944 15.3163 131.645 15.3163ZM137.193 7.04204V13.5H136.052V7.04204H137.193ZM139.761 13.5978C139.454 13.5978 139.178 13.5431 138.932 13.4338C138.688 13.3224 138.494 13.1584 138.351 12.9419C138.211 12.7253 138.14 12.4584 138.14 12.1409C138.14 11.8676 138.191 11.6417 138.292 11.463C138.392 11.2843 138.53 11.1413 138.705 11.0341C138.879 10.9269 139.076 10.846 139.294 10.7913C139.515 10.7346 139.743 10.6936 139.979 10.6683C140.262 10.6389 140.493 10.6126 140.669 10.5895C140.846 10.5643 140.974 10.5264 141.054 10.476C141.136 10.4234 141.177 10.3425 141.177 10.2332V10.2143C141.177 9.97671 141.106 9.79277 140.966 9.66243C140.825 9.5321 140.622 9.46693 140.357 9.46693C140.077 9.46693 139.856 9.52789 139.692 9.64982C139.53 9.77175 139.42 9.91575 139.364 10.0818L138.298 9.93046C138.382 9.63616 138.521 9.3902 138.714 9.19259C138.907 8.99288 139.144 8.84363 139.424 8.74482C139.703 8.64392 140.012 8.59346 140.351 8.59346C140.584 8.59346 140.816 8.62079 141.048 8.67545C141.279 8.73011 141.49 8.8205 141.681 8.94663C141.873 9.07066 142.026 9.23989 142.142 9.45431C142.259 9.66874 142.318 9.93677 142.318 10.2584V13.5H141.221V12.8347H141.183C141.114 12.9692 141.016 13.0953 140.89 13.213C140.766 13.3287 140.609 13.4222 140.42 13.4937C140.233 13.5631 140.013 13.5978 139.761 13.5978ZM140.057 12.759C140.287 12.759 140.485 12.7138 140.653 12.6234C140.822 12.5309 140.951 12.409 141.041 12.2576C141.134 12.1062 141.18 11.9412 141.18 11.7625V11.1918C141.144 11.2212 141.083 11.2485 140.997 11.2738C140.913 11.299 140.818 11.3211 140.713 11.34C140.608 11.3589 140.504 11.3757 140.401 11.3904C140.298 11.4052 140.209 11.4178 140.133 11.4283C139.963 11.4514 139.81 11.4892 139.676 11.5418C139.541 11.5944 139.435 11.6679 139.357 11.7625C139.28 11.855 139.241 11.9749 139.241 12.122C139.241 12.3322 139.317 12.4909 139.471 12.5982C139.624 12.7054 139.82 12.759 140.057 12.759ZM144.466 13.5L143.097 8.65653H144.261L145.112 12.0621H145.156L146.027 8.65653H147.178L148.048 12.0432H148.095L148.934 8.65653H150.101L148.729 13.5H147.54L146.632 10.2269H146.566L145.658 13.5H144.466ZM154.726 9.93677L153.685 10.0503C153.656 9.94518 153.604 9.84638 153.531 9.75388C153.459 9.66138 153.362 9.58675 153.241 9.52999C153.119 9.47323 152.969 9.44486 152.793 9.44486C152.555 9.44486 152.356 9.49636 152.194 9.59937C152.034 9.70237 151.955 9.83586 151.957 9.99984C151.955 10.1407 152.007 10.2553 152.112 10.3435C152.219 10.4318 152.395 10.5044 152.641 10.5611L153.468 10.7377C153.926 10.8365 154.266 10.9931 154.489 11.2076C154.714 11.422 154.828 11.7026 154.83 12.0495C154.828 12.3543 154.738 12.6234 154.562 12.8567C154.387 13.088 154.144 13.2688 153.833 13.3991C153.522 13.5294 153.165 13.5946 152.761 13.5946C152.168 13.5946 151.691 13.4706 151.33 13.2225C150.968 12.9723 150.753 12.6244 150.683 12.1788L151.796 12.0716C151.847 12.2902 151.954 12.4552 152.118 12.5666C152.282 12.678 152.495 12.7337 152.758 12.7337C153.029 12.7337 153.247 12.678 153.411 12.5666C153.577 12.4552 153.66 12.3175 153.66 12.1535C153.66 12.0148 153.606 11.9002 153.499 11.8098C153.394 11.7194 153.23 11.6501 153.007 11.6017L152.181 11.4283C151.716 11.3316 151.373 11.1687 151.15 10.9395C150.927 10.7083 150.817 10.4161 150.819 10.0629C150.817 9.76439 150.898 9.50582 151.062 9.28719C151.228 9.06646 151.458 8.89618 151.752 8.77636C152.049 8.65443 152.39 8.59346 152.777 8.59346C153.345 8.59346 153.791 8.71434 154.117 8.95609C154.445 9.19785 154.648 9.52474 154.726 9.93677Z" fill="url(#paint2_linear_186_2972)"/>
<defs>
<linearGradient id="paint0_linear_186_2972" x1="8.30556" y1="5.95238" x2="17.704" y2="6.31123" gradientUnits="userSpaceOnUse">
<stop stop-color="#095AD3"/>
<stop offset="1" stop-color="#166FF4"/>
</linearGradient>
<linearGradient id="paint1_linear_186_2972" x1="23.3667" y1="5.14286" x2="34.6448" y2="5.57347" gradientUnits="userSpaceOnUse">
<stop stop-color="#095AD3"/>
<stop offset="1" stop-color="#166FF4"/>
</linearGradient>
<linearGradient id="paint2_linear_186_2972" x1="43.5444" y1="5.54762" x2="137.494" y2="43.3758" gradientUnits="userSpaceOnUse">
<stop stop-color="#095AD3"/>
<stop offset="1" stop-color="#166FF4"/>
</linearGradient>
</defs>
</svg>
