<svg width="86" height="25" viewBox="0 0 86 25" fill="none" xmlns="http://www.w3.org/2000/svg">
<rect width="86" height="25" rx="4.82869" fill="white"/>
<path d="M16.4995 5.4165C16.6873 5.4165 16.8675 5.49113 17.0004 5.62397C17.1332 5.75681 17.2078 5.93698 17.2078 6.12484V8.24984C17.2078 8.4377 17.1332 8.61787 17.0004 8.7507C16.8675 8.88354 16.6873 8.95817 16.4995 8.95817C16.3116 8.95817 16.1315 8.88354 15.9986 8.7507C15.8658 8.61787 15.7912 8.4377 15.7912 8.24984V6.12484C15.7912 5.93698 15.8658 5.75681 15.9986 5.62397C16.1315 5.49113 16.3116 5.4165 16.4995 5.4165ZM16.4995 16.0415C16.6873 16.0415 16.8675 16.1161 17.0004 16.249C17.1332 16.3818 17.2078 16.562 17.2078 16.7498V18.8748C17.2078 19.0627 17.1332 19.2429 17.0004 19.3757C16.8675 19.5085 16.6873 19.5832 16.4995 19.5832C16.3116 19.5832 16.1315 19.5085 15.9986 19.3757C15.8658 19.2429 15.7912 19.0627 15.7912 18.8748V16.7498C15.7912 16.562 15.8658 16.3818 15.9986 16.249C16.1315 16.1161 16.3116 16.0415 16.4995 16.0415ZM22.6337 8.95817C22.7276 9.12086 22.753 9.3142 22.7044 9.49565C22.6558 9.67711 22.5371 9.83182 22.3744 9.92575L20.5342 10.9883C20.4536 11.0355 20.3644 11.0663 20.2719 11.079C20.1793 11.0916 20.0852 11.0859 19.9949 11.062C19.9046 11.0381 19.8199 10.9966 19.7457 10.9399C19.6714 10.8831 19.6092 10.8123 19.5625 10.7314C19.5158 10.6505 19.4855 10.5611 19.4735 10.4685C19.4615 10.3759 19.4679 10.2817 19.4923 10.1916C19.5168 10.1014 19.5589 10.017 19.6161 9.9432C19.6733 9.86937 19.7446 9.80759 19.8258 9.76142L21.6661 8.69892C21.8288 8.60499 22.0221 8.57954 22.2036 8.62816C22.385 8.67678 22.5397 8.79549 22.6337 8.95817ZM13.4324 14.2707C13.4789 14.3513 13.509 14.4402 13.5211 14.5325C13.5332 14.6247 13.527 14.7185 13.5029 14.8083C13.4787 14.8982 13.4371 14.9824 13.3804 15.0562C13.3237 15.1299 13.2531 15.1918 13.1724 15.2383L11.3322 16.3008C11.2516 16.348 11.1625 16.3788 11.0699 16.3915C10.9774 16.4041 10.8832 16.3984 10.7929 16.3745C10.7026 16.3506 10.6179 16.3091 10.5437 16.2524C10.4695 16.1956 10.4072 16.1248 10.3605 16.0439C10.3138 15.963 10.2836 15.8736 10.2715 15.781C10.2595 15.6884 10.2659 15.5942 10.2904 15.5041C10.3148 15.4139 10.3569 15.3295 10.4141 15.2557C10.4714 15.1819 10.5427 15.1201 10.6239 15.0739L12.4641 14.0114C12.6268 13.9175 12.8201 13.892 13.0016 13.9407C13.183 13.9893 13.3385 14.108 13.4324 14.2707ZM22.6337 16.0415C22.5397 16.2042 22.385 16.3229 22.2036 16.3715C22.0221 16.4201 21.8288 16.3947 21.6661 16.3008L19.8258 15.2383C19.6645 15.1437 19.5471 14.9891 19.4993 14.8082C19.4514 14.6274 19.4771 14.435 19.5706 14.273C19.6642 14.111 19.818 13.9926 19.9985 13.9436C20.179 13.8946 20.3715 13.919 20.5342 14.0114L22.3744 15.0739C22.5371 15.1679 22.6558 15.3226 22.7044 15.504C22.753 15.6855 22.7276 15.8788 22.6337 16.0415ZM13.4324 10.729C13.3859 10.8097 13.3239 10.8803 13.2501 10.937C13.1762 10.9937 13.0919 11.0353 13.002 11.0594C12.9121 11.0834 12.8183 11.0895 12.726 11.0773C12.6337 11.0651 12.5447 11.0349 12.4641 10.9883L10.6239 9.92575C10.5427 9.87958 10.4714 9.81781 10.4141 9.74398C10.3569 9.67015 10.3148 9.58573 10.2904 9.49558C10.2659 9.40543 10.2595 9.31132 10.2715 9.21869C10.2836 9.12605 10.3138 9.03671 10.3605 8.95581C10.4072 8.87491 10.4695 8.80405 10.5437 8.74731C10.6179 8.69057 10.7026 8.64906 10.7929 8.62518C10.8832 8.60131 10.9774 8.59553 11.0699 8.60818C11.1625 8.62084 11.2516 8.65168 11.3322 8.69892L13.1724 9.76142C13.2531 9.80787 13.3237 9.86975 13.3804 9.94352C13.4371 10.0173 13.4787 10.1015 13.5029 10.1914C13.527 10.2812 13.5332 10.3749 13.5211 10.4672C13.509 10.5594 13.4789 10.6484 13.4324 10.729Z" fill="url(#paint0_linear_764_9869)"/>
<path d="M30.637 16V9.54204H33.0587C33.5548 9.54204 33.9711 9.63454 34.3074 9.81953C34.6459 10.0045 34.9013 10.2589 35.0737 10.5826C35.2481 10.9043 35.3354 11.27 35.3354 11.68C35.3354 12.0941 35.2481 12.462 35.0737 12.7836C34.8992 13.1053 34.6417 13.3586 34.3011 13.5436C33.9605 13.7265 33.5412 13.8179 33.0429 13.8179H31.4379V12.8562H32.8853C33.1754 12.8562 33.4129 12.8057 33.5979 12.7048C33.7829 12.6039 33.9196 12.4651 34.0078 12.2886C34.0982 12.112 34.1434 11.9091 34.1434 11.68C34.1434 11.4508 34.0982 11.249 34.0078 11.0745C33.9196 10.9001 33.7819 10.7645 33.5948 10.6678C33.4098 10.569 33.1712 10.5196 32.879 10.5196H31.8068V16H30.637ZM36.3011 16V11.1565H37.4079V11.9638H37.4583C37.5466 11.6842 37.698 11.4687 37.9124 11.3173C38.1289 11.1639 38.376 11.0872 38.6534 11.0872C38.7165 11.0872 38.7869 11.0903 38.8647 11.0966C38.9446 11.1008 39.0108 11.1082 39.0634 11.1187V12.1687C39.015 12.1519 38.9383 12.1372 38.8332 12.1246C38.7302 12.1099 38.6303 12.1025 38.5336 12.1025C38.3255 12.1025 38.1384 12.1477 37.9723 12.2381C37.8084 12.3264 37.6791 12.4494 37.5845 12.607C37.4899 12.7647 37.4426 12.9466 37.4426 13.1526V16H36.3011ZM41.735 16.0946C41.262 16.0946 40.8521 15.9905 40.5052 15.7824C40.1584 15.5743 39.8893 15.2831 39.698 14.909C39.5088 14.5348 39.4142 14.0975 39.4142 13.5972C39.4142 13.0969 39.5088 12.6586 39.698 12.2823C39.8893 11.906 40.1584 11.6138 40.5052 11.4056C40.8521 11.1975 41.262 11.0935 41.735 11.0935C42.208 11.0935 42.6179 11.1975 42.9648 11.4056C43.3117 11.6138 43.5797 11.906 43.7689 12.2823C43.9602 12.6586 44.0558 13.0969 44.0558 13.5972C44.0558 14.0975 43.9602 14.5348 43.7689 14.909C43.5797 15.2831 43.3117 15.5743 42.9648 15.7824C42.6179 15.9905 42.208 16.0946 41.735 16.0946ZM41.7413 15.1801C41.9978 15.1801 42.2122 15.1097 42.3846 14.9689C42.557 14.8259 42.6852 14.6346 42.7693 14.395C42.8555 14.1553 42.8986 13.8883 42.8986 13.594C42.8986 13.2976 42.8555 13.0296 42.7693 12.7899C42.6852 12.5482 42.557 12.3558 42.3846 12.2129C42.2122 12.0699 41.9978 11.9985 41.7413 11.9985C41.4785 11.9985 41.2599 12.0699 41.0854 12.2129C40.913 12.3558 40.7838 12.5482 40.6976 12.7899C40.6135 13.0296 40.5714 13.2976 40.5714 13.594C40.5714 13.8883 40.6135 14.1553 40.6976 14.395C40.7838 14.6346 40.913 14.8259 41.0854 14.9689C41.2599 15.1097 41.4785 15.1801 41.7413 15.1801ZM47.1374 16.0946C46.6539 16.0946 46.2387 15.9884 45.8918 15.7761C45.5471 15.5638 45.2812 15.2705 45.0941 14.8963C44.9091 14.5201 44.8166 14.087 44.8166 13.5972C44.8166 13.1053 44.9112 12.6712 45.1004 12.2949C45.2896 11.9165 45.5565 11.6222 45.9013 11.4119C46.2482 11.1996 46.6581 11.0935 47.1311 11.0935C47.5242 11.0935 47.8721 11.166 48.1748 11.311C48.4797 11.454 48.7225 11.6569 48.9032 11.9196C49.084 12.1803 49.187 12.4851 49.2123 12.8341H48.1212C48.0771 12.6007 47.972 12.4063 47.8059 12.2507C47.6419 12.0931 47.4222 12.0142 47.1469 12.0142C46.9135 12.0142 46.7086 12.0773 46.532 12.2034C46.3554 12.3275 46.2177 12.5061 46.1189 12.7395C46.0222 12.9728 45.9738 13.2524 45.9738 13.5783C45.9738 13.9083 46.0222 14.1921 46.1189 14.4297C46.2156 14.6651 46.3512 14.8469 46.5257 14.9752C46.7022 15.1013 46.9093 15.1644 47.1469 15.1644C47.315 15.1644 47.4653 15.1328 47.5978 15.0698C47.7323 15.0046 47.8448 14.9111 47.9352 14.7891C48.0256 14.6672 48.0876 14.519 48.1212 14.3445H49.2123C49.1849 14.6872 49.084 14.9909 48.9096 15.2558C48.7351 15.5186 48.4975 15.7246 48.1969 15.8739C47.8963 16.021 47.5431 16.0946 47.1374 16.0946ZM52.2938 16.0946C51.8082 16.0946 51.3888 15.9937 51.0357 15.7919C50.6846 15.588 50.4145 15.3 50.2253 14.9279C50.0361 14.5537 49.9415 14.1133 49.9415 13.6066C49.9415 13.1084 50.0361 12.6712 50.2253 12.2949C50.4166 11.9165 50.6836 11.6222 51.0262 11.4119C51.3689 11.1996 51.7714 11.0935 52.2339 11.0935C52.5324 11.0935 52.8141 11.1418 53.079 11.2385C53.346 11.3331 53.5814 11.4803 53.7853 11.68C53.9914 11.8797 54.1532 12.1341 54.271 12.4431C54.3887 12.75 54.4475 13.1158 54.4475 13.5404V13.8904H50.4775V13.121H53.3533C53.3512 12.9024 53.3039 12.708 53.2114 12.5377C53.119 12.3653 52.9897 12.2297 52.8236 12.1309C52.6596 12.0321 52.4683 11.9827 52.2497 11.9827C52.0163 11.9827 51.8114 12.0395 51.6348 12.153C51.4582 12.2644 51.3205 12.4115 51.2217 12.5944C51.125 12.7752 51.0756 12.9739 51.0735 13.1904V13.8621C51.0735 14.1438 51.125 14.3855 51.228 14.5873C51.331 14.787 51.475 14.9405 51.66 15.0477C51.845 15.1528 52.0615 15.2054 52.3096 15.2054C52.4757 15.2054 52.626 15.1822 52.7605 15.136C52.8951 15.0876 53.0117 15.0172 53.1105 14.9247C53.2093 14.8322 53.284 14.7177 53.3344 14.581L54.4002 14.7008C54.333 14.9825 54.2047 15.2285 54.0155 15.4387C53.8284 15.6468 53.5888 15.8087 53.2966 15.9243C53.0044 16.0378 52.6701 16.0946 52.2938 16.0946ZM59.2413 12.4368L58.2008 12.5503C58.1713 12.4452 58.1198 12.3464 58.0462 12.2539C57.9748 12.1614 57.8781 12.0868 57.7561 12.03C57.6342 11.9732 57.485 11.9449 57.3084 11.9449C57.0708 11.9449 56.8711 11.9964 56.7092 12.0994C56.5495 12.2024 56.4706 12.3359 56.4727 12.4998C56.4706 12.6407 56.5221 12.7553 56.6273 12.8435C56.7345 12.9318 56.9111 13.0044 57.157 13.0611L57.9832 13.2377C58.4415 13.3365 58.782 13.4931 59.0048 13.7076C59.2298 13.922 59.3433 14.2026 59.3454 14.5495C59.3433 14.8543 59.254 15.1234 59.0774 15.3567C58.9029 15.588 58.6601 15.7688 58.349 15.8991C58.0378 16.0294 57.6805 16.0946 57.2768 16.0946C56.684 16.0946 56.2068 15.9706 55.8452 15.7225C55.4837 15.4723 55.2682 15.1244 55.1988 14.6788L56.3119 14.5716C56.3624 14.7902 56.4696 14.9552 56.6336 15.0666C56.7975 15.178 57.0109 15.2337 57.2737 15.2337C57.5449 15.2337 57.7624 15.178 57.9264 15.0666C58.0925 14.9552 58.1755 14.8175 58.1755 14.6535C58.1755 14.5148 58.1219 14.4002 58.0147 14.3098C57.9096 14.2194 57.7456 14.1501 57.5228 14.1017L56.6966 13.9283C56.232 13.8316 55.8883 13.6687 55.6655 13.4395C55.4427 13.2083 55.3323 12.9161 55.3344 12.5629C55.3323 12.2644 55.4132 12.0058 55.5772 11.7872C55.7433 11.5665 55.9735 11.3962 56.2678 11.2764C56.5642 11.1544 56.9058 11.0935 57.2926 11.0935C57.8602 11.0935 58.3069 11.2143 58.6328 11.4561C58.9607 11.6978 59.1636 12.0247 59.2413 12.4368ZM64.1148 12.4368L63.0742 12.5503C63.0448 12.4452 62.9932 12.3464 62.9197 12.2539C62.8482 12.1614 62.7515 12.0868 62.6296 12.03C62.5076 11.9732 62.3584 11.9449 62.1818 11.9449C61.9443 11.9449 61.7445 11.9964 61.5827 12.0994C61.4229 12.2024 61.3441 12.3359 61.3462 12.4998C61.3441 12.6407 61.3956 12.7553 61.5007 12.8435C61.6079 12.9318 61.7845 13.0044 62.0304 13.0611L62.8566 13.2377C63.3149 13.3365 63.6554 13.4931 63.8783 13.7076C64.1032 13.922 64.2167 14.2026 64.2188 14.5495C64.2167 14.8543 64.1274 15.1234 63.9508 15.3567C63.7763 15.588 63.5335 15.7688 63.2224 15.8991C62.9113 16.0294 62.5539 16.0946 62.1503 16.0946C61.5574 16.0946 61.0802 15.9706 60.7187 15.7225C60.3571 15.4723 60.1416 15.1244 60.0722 14.6788L61.1854 14.5716C61.2358 14.7902 61.343 14.9552 61.507 15.0666C61.671 15.178 61.8843 15.2337 62.1471 15.2337C62.4183 15.2337 62.6359 15.178 62.7998 15.0666C62.9659 14.9552 63.049 14.8175 63.049 14.6535C63.049 14.5148 62.9954 14.4002 62.8881 14.3098C62.783 14.2194 62.6191 14.1501 62.3962 14.1017L61.5701 13.9283C61.1055 13.8316 60.7618 13.6687 60.5389 13.4395C60.3161 13.2083 60.2057 12.9161 60.2078 12.5629C60.2057 12.2644 60.2867 12.0058 60.4506 11.7872C60.6167 11.5665 60.8469 11.3962 61.1412 11.2764C61.4376 11.1544 61.7792 11.0935 62.166 11.0935C62.7336 11.0935 63.1803 11.2143 63.5062 11.4561C63.8341 11.6978 64.037 12.0247 64.1148 12.4368ZM65.1601 16V11.1565H66.3016V16H65.1601ZM65.734 10.4691C65.5532 10.4691 65.3976 10.4092 65.2673 10.2894C65.137 10.1674 65.0718 10.0213 65.0718 9.85106C65.0718 9.67868 65.137 9.53258 65.2673 9.41275C65.3976 9.29083 65.5532 9.22986 65.734 9.22986C65.9169 9.22986 66.0724 9.29083 66.2007 9.41275C66.331 9.53258 66.3962 9.67868 66.3962 9.85106C66.3962 10.0213 66.331 10.1674 66.2007 10.2894C66.0724 10.4092 65.9169 10.4691 65.734 10.4691ZM68.6169 13.162V16H67.4754V11.1565H68.5664V11.9795H68.6232C68.7346 11.7084 68.9123 11.4929 69.1561 11.3331C69.4021 11.1733 69.7058 11.0935 70.0674 11.0935C70.4017 11.0935 70.6928 11.1649 70.9409 11.3079C71.191 11.4508 71.3844 11.6579 71.5211 11.9291C71.6598 12.2003 71.7282 12.5293 71.7261 12.9161V16H70.5846V13.0927C70.5846 12.7689 70.5005 12.5156 70.3323 12.3327C70.1662 12.1498 69.936 12.0584 69.6417 12.0584C69.442 12.0584 69.2644 12.1025 69.1088 12.1908C68.9554 12.277 68.8345 12.4021 68.7462 12.5661C68.66 12.73 68.6169 12.9287 68.6169 13.162ZM74.9929 17.9172C74.5829 17.9172 74.2308 17.8615 73.9365 17.7501C73.6422 17.6408 73.4057 17.4936 73.227 17.3086C73.0483 17.1236 72.9243 16.9187 72.8549 16.6937L73.8829 16.4446C73.9292 16.5392 73.9964 16.6328 74.0847 16.7253C74.173 16.8199 74.2918 16.8976 74.441 16.9586C74.5924 17.0217 74.7827 17.0532 75.0118 17.0532C75.3355 17.0532 75.6036 16.9744 75.8159 16.8167C76.0282 16.6611 76.1344 16.4047 76.1344 16.0473V15.1297H76.0776C76.0187 15.2474 75.9326 15.3683 75.819 15.4923C75.7076 15.6163 75.5594 15.7204 75.3744 15.8045C75.1915 15.8886 74.9613 15.9306 74.6838 15.9306C74.3118 15.9306 73.9744 15.8434 73.6716 15.6689C73.371 15.4923 73.1314 15.2295 72.9527 14.8806C72.7761 14.5295 72.6878 14.0902 72.6878 13.5625C72.6878 13.0306 72.7761 12.5818 72.9527 12.216C73.1314 11.8482 73.3721 11.5696 73.6748 11.3804C73.9775 11.1891 74.3149 11.0935 74.687 11.0935C74.9708 11.0935 75.2041 11.1418 75.387 11.2385C75.572 11.3331 75.7192 11.4477 75.8285 11.5822C75.9378 11.7147 76.0208 11.8397 76.0776 11.9575H76.1407V11.1565H77.2664V16.0788C77.2664 16.493 77.1676 16.8356 76.97 17.1068C76.7724 17.378 76.5023 17.5809 76.1596 17.7154C75.8169 17.8499 75.428 17.9172 74.9929 17.9172ZM75.0023 15.0351C75.2441 15.0351 75.4501 14.9762 75.6204 14.8585C75.7907 14.7408 75.9199 14.5716 76.0082 14.3508C76.0965 14.1301 76.1407 13.8652 76.1407 13.5562C76.1407 13.2514 76.0965 12.9844 76.0082 12.7553C75.922 12.5261 75.7938 12.3485 75.6235 12.2223C75.4554 12.0941 75.2483 12.03 75.0023 12.03C74.748 12.03 74.5356 12.0962 74.3654 12.2287C74.1951 12.3611 74.0669 12.5429 73.9807 12.7742C73.8945 13.0033 73.8514 13.264 73.8514 13.5562C73.8514 13.8526 73.8945 14.1122 73.9807 14.3351C74.069 14.5558 74.1982 14.7282 74.3685 14.8522C74.5409 14.9741 74.7522 15.0351 75.0023 15.0351Z" fill="url(#paint1_linear_764_9869)"/>
<defs>
<linearGradient id="paint0_linear_764_9869" x1="10.6464" y1="6.76571" x2="22.3635" y2="7.15928" gradientUnits="userSpaceOnUse">
<stop stop-color="#095AD3"/>
<stop offset="1" stop-color="#166FF4"/>
</linearGradient>
<linearGradient id="paint1_linear_764_9869" x1="31.4667" y1="8.04762" x2="75.4246" y2="15.3715" gradientUnits="userSpaceOnUse">
<stop stop-color="#095AD3"/>
<stop offset="1" stop-color="#166FF4"/>
</linearGradient>
</defs>
</svg>
