<svg width="17" height="18" viewBox="0 0 17 18" fill="none" xmlns="http://www.w3.org/2000/svg">
<path d="M15.5178 10.2789H9.54942V16.6736C9.54942 17.0128 9.42365 17.3381 9.1998 17.5779C8.97594 17.8178 8.67232 17.9525 8.35574 17.9525C8.03916 17.9525 7.73554 17.8178 7.51168 17.5779C7.28782 17.3381 7.16206 17.0128 7.16206 16.6736V10.2789H1.19368C0.877094 10.2789 0.573478 10.1441 0.34962 9.90429C0.125762 9.66444 0 9.33914 0 8.99994C0 8.66075 0.125762 8.33544 0.34962 8.0956C0.573478 7.85575 0.877094 7.721 1.19368 7.721H7.16206V1.3263C7.16206 0.987107 7.28782 0.661803 7.51168 0.421956C7.73554 0.182108 8.03916 0.0473633 8.35574 0.0473633C8.67232 0.0473633 8.97594 0.182108 9.1998 0.421956C9.42365 0.661803 9.54942 0.987107 9.54942 1.3263V7.721H15.5178C15.8344 7.721 16.138 7.85575 16.3619 8.0956C16.5857 8.33544 16.7115 8.66075 16.7115 8.99994C16.7115 9.33914 16.5857 9.66444 16.3619 9.90429C16.138 10.1441 15.8344 10.2789 15.5178 10.2789Z" fill="white"/>
</svg>
