<svg width="22" height="22" viewBox="0 0 22 22" fill="none" xmlns="http://www.w3.org/2000/svg">
<rect width="22" height="22" rx="4.23077" fill="url(#paint0_linear_258_2217)"/>
<path d="M16.7088 12.3466H12.2564V17.117C12.2564 17.37 12.1626 17.6127 11.9956 17.7916C11.8286 17.9706 11.6021 18.0711 11.366 18.0711C11.1298 18.0711 10.9033 17.9706 10.7363 17.7916C10.5693 17.6127 10.4755 17.37 10.4755 17.117V12.3466H6.02311C5.78694 12.3466 5.56044 12.2461 5.39344 12.0671C5.22645 11.8882 5.13263 11.6455 5.13263 11.3925C5.13263 11.1395 5.22645 10.8968 5.39344 10.7179C5.56044 10.5389 5.78694 10.4384 6.02311 10.4384H10.4755V5.66801C10.4755 5.41497 10.5693 5.1723 10.7363 4.99337C10.9033 4.81445 11.1298 4.71393 11.366 4.71393C11.6021 4.71393 11.8286 4.81445 11.9956 4.99337C12.1626 5.1723 12.2564 5.41497 12.2564 5.66801V10.4384H16.7088C16.945 10.4384 17.1715 10.5389 17.3385 10.7179C17.5055 10.8968 17.5993 11.1395 17.5993 11.3925C17.5993 11.6455 17.5055 11.8882 17.3385 12.0671C17.1715 12.2461 16.945 12.3466 16.7088 12.3466Z" fill="white"/>
<defs>
<linearGradient id="paint0_linear_258_2217" x1="0.672222" y1="2.09524" x2="21.3487" y2="2.8847" gradientUnits="userSpaceOnUse">
<stop stop-color="#095AD3"/>
<stop offset="1" stop-color="#166FF4"/>
</linearGradient>
</defs>
</svg>
