<svg width="22" height="22" viewBox="0 0 22 22" fill="none" xmlns="http://www.w3.org/2000/svg">
<rect x="0.509155" y="0.2547" width="21.4908" height="21.4908" rx="3.58181" fill="white"/>
<path d="M16.8321 12.3156H12.4827V16.9756C12.4827 17.2228 12.3911 17.4598 12.228 17.6346C12.0648 17.8094 11.8436 17.9076 11.6129 17.9076C11.3822 17.9076 11.1609 17.8094 10.9978 17.6346C10.8347 17.4598 10.743 17.2228 10.743 16.9756V12.3156H6.39367C6.16297 12.3156 5.94171 12.2174 5.77858 12.0426C5.61545 11.8678 5.5238 11.6307 5.5238 11.3836C5.5238 11.1364 5.61545 10.8993 5.77858 10.7245C5.94171 10.5498 6.16297 10.4516 6.39367 10.4516H10.743V5.79156C10.743 5.54438 10.8347 5.30732 10.9978 5.13253C11.1609 4.95775 11.3822 4.85956 11.6129 4.85956C11.8436 4.85956 12.0648 4.95775 12.228 5.13253C12.3911 5.30732 12.4827 5.54438 12.4827 5.79156V10.4516H16.8321C17.0628 10.4516 17.284 10.5498 17.4472 10.7245C17.6103 10.8993 17.7019 11.1364 17.7019 11.3836C17.7019 11.6307 17.6103 11.8678 17.4472 12.0426C17.284 12.2174 17.0628 12.3156 16.8321 12.3156Z" fill="#095AD3"/>
</svg>
