<svg width="38" height="38" viewBox="0 0 38 38" fill="none" xmlns="http://www.w3.org/2000/svg">
<rect width="38" height="38" rx="10" fill="#F0F5FC"/>
<path d="M26.3253 20.3078H20.2221V26.8469C20.2221 27.1937 20.0935 27.5264 19.8646 27.7717C19.6357 28.0169 19.3252 28.1547 19.0015 28.1547C18.6777 28.1547 18.3673 28.0169 18.1383 27.7717C17.9094 27.5264 17.7808 27.1937 17.7808 26.8469V20.3078H11.6777C11.3539 20.3078 11.0435 20.17 10.8145 19.9247C10.5856 19.6795 10.457 19.3468 10.457 19C10.457 18.6531 10.5856 18.3205 10.8145 18.0752C11.0435 17.8299 11.3539 17.6921 11.6777 17.6921H17.7808V11.153C17.7808 10.8062 17.9094 10.4735 18.1383 10.2283C18.3673 9.983 18.6777 9.84521 19.0015 9.84521C19.3252 9.84521 19.6357 9.983 19.8646 10.2283C20.0935 10.4735 20.2221 10.8062 20.2221 11.153V17.6921H26.3253C26.649 17.6921 26.9595 17.8299 27.1884 18.0752C27.4173 18.3205 27.5459 18.6531 27.5459 19C27.5459 19.3468 27.4173 19.6795 27.1884 19.9247C26.9595 20.17 26.649 20.3078 26.3253 20.3078Z" fill="#095AD3"/>
</svg>
