<svg width="13" height="14" viewBox="0 0 13 14" fill="none" xmlns="http://www.w3.org/2000/svg">
<path d="M11.6806 7.92457H7.36384V12.5497C7.36384 12.795 7.27288 13.0303 7.11097 13.2037C6.94906 13.3772 6.72946 13.4747 6.50049 13.4747C6.27151 13.4747 6.05192 13.3772 5.89001 13.2037C5.7281 13.0303 5.63714 12.795 5.63714 12.5497V7.92457H1.32038C1.09141 7.92457 0.871811 7.82711 0.709901 7.65363C0.547991 7.48016 0.457031 7.24488 0.457031 6.99955C0.457031 6.75422 0.547991 6.51893 0.709901 6.34546C0.871811 6.17199 1.09141 6.07453 1.32038 6.07453H5.63714V1.44943C5.63714 1.2041 5.7281 0.96882 5.89001 0.795346C6.05192 0.621871 6.27151 0.524414 6.50049 0.524414C6.72946 0.524414 6.94906 0.621871 7.11097 0.795346C7.27288 0.96882 7.36384 1.2041 7.36384 1.44943V6.07453H11.6806C11.9096 6.07453 12.1292 6.17199 12.2911 6.34546C12.453 6.51893 12.5439 6.75422 12.5439 6.99955C12.5439 7.24488 12.453 7.48016 12.2911 7.65363C12.1292 7.82711 11.9096 7.92457 11.6806 7.92457Z" fill="url(#paint0_linear_2612_140215)"/>
<defs>
<linearGradient id="paint0_linear_2612_140215" x1="0.826354" y1="1.75777" x2="12.1883" y2="2.16267" gradientUnits="userSpaceOnUse">
<stop stop-color="#095AD3"/>
<stop offset="1" stop-color="#166FF4"/>
</linearGradient>
</defs>
</svg>
