<svg width="16" height="10" viewBox="0 0 16 10" fill="none" xmlns="http://www.w3.org/2000/svg">
<path d="M0.75 0.25H15.25C15.4489 0.25 15.6397 0.329018 15.7803 0.46967C15.921 0.610322 16 0.801088 16 1C16 1.19891 15.921 1.38968 15.7803 1.53033C15.6397 1.67098 15.4489 1.75 15.25 1.75H0.75C0.551088 1.75 0.360322 1.67098 0.21967 1.53033C0.0790176 1.38968 0 1.19891 0 1C0 0.801088 0.0790176 0.610322 0.21967 0.46967C0.360322 0.329018 0.551088 0.25 0.75 0.25ZM3 5C3 4.80109 3.07902 4.61032 3.21967 4.46967C3.36032 4.32902 3.55109 4.25 3.75 4.25H12.25C12.4489 4.25 12.6397 4.32902 12.7803 4.46967C12.921 4.61032 13 4.80109 13 5C13 5.19891 12.921 5.38968 12.7803 5.53033C12.6397 5.67098 12.4489 5.75 12.25 5.75H3.75C3.55109 5.75 3.36032 5.67098 3.21967 5.53033C3.07902 5.38968 3 5.19891 3 5ZM6 9C6 8.80109 6.07902 8.61032 6.21967 8.46967C6.36032 8.32902 6.55109 8.25 6.75 8.25H9.25C9.44891 8.25 9.63968 8.32902 9.78033 8.46967C9.92098 8.61032 10 8.80109 10 9C10 9.19891 9.92098 9.38968 9.78033 9.53033C9.63968 9.67098 9.44891 9.75 9.25 9.75H6.75C6.55109 9.75 6.36032 9.67098 6.21967 9.53033C6.07902 9.38968 6 9.19891 6 9Z" fill="#A3A7AF"/>
</svg>
