<svg width="6" height="10" viewBox="0 0 6 10" fill="none" xmlns="http://www.w3.org/2000/svg">
<path d="M1.95715 10C1.91145 10 1.8663 9.98787 1.82487 9.96431C1.78344 9.94075 1.74673 9.90639 1.71733 9.86365C1.68792 9.8209 1.66654 9.7708 1.65467 9.71688C1.6428 9.66295 1.64073 9.6065 1.64862 9.55149V9.5492L2.12778 6.33358H0.272701C0.221209 6.33358 0.170772 6.31576 0.127221 6.28218C0.0836707 6.24861 0.048787 6.20065 0.0266049 6.14386C0.00442276 6.08707 -0.00415154 6.02377 0.00187385 5.96127C0.00789924 5.89877 0.0282781 5.83964 0.0606532 5.7907L3.79654 0.146504C3.83907 0.0805345 3.8981 0.033402 3.96462 0.0123143C4.03113 -0.00877344 4.10147 -0.0026557 4.16487 0.029732C4.22827 0.0621197 4.28125 0.118995 4.3157 0.191659C4.35015 0.264324 4.36418 0.348779 4.35564 0.43211C4.35564 0.438359 4.35427 0.444401 4.35342 0.45065L3.87257 3.6671H5.7273C5.77879 3.6671 5.82923 3.68493 5.87278 3.7185C5.91633 3.75207 5.95121 3.80003 5.9734 3.85682C5.99558 3.91361 6.00415 3.97692 5.99813 4.03941C5.9921 4.10191 5.97172 4.16104 5.93935 4.20998L2.20295 9.85418C2.17359 9.89951 2.13624 9.93617 2.09368 9.96142C2.05113 9.98666 2.00446 9.99985 1.95715 10Z" fill="#FF7A00"/>
</svg>
