<svg width="81" height="19" viewBox="0 0 81 19" fill="none" xmlns="http://www.w3.org/2000/svg">
<rect y="0.599609" width="81" height="18" rx="5" fill="#D9FADB"/>
<path d="M11.3176 12.0648L9.03935 9.85712C8.91659 9.73816 8.75009 9.67133 8.57648 9.67133C8.40287 9.67133 8.23637 9.73816 8.1136 9.85712C7.99084 9.97608 7.92188 10.1374 7.92188 10.3056C7.92188 10.3889 7.93881 10.4714 7.9717 10.5484C8.0046 10.6253 8.05282 10.6953 8.1136 10.7542L10.858 13.4135C11.1141 13.6616 11.5277 13.6616 11.7838 13.4135L18.7301 6.68245C18.8529 6.56349 18.9219 6.40215 18.9219 6.23392C18.9219 6.06569 18.8529 5.90435 18.7301 5.7854C18.6074 5.66644 18.4409 5.59961 18.2673 5.59961C18.0937 5.59961 17.9272 5.66644 17.8044 5.7854L11.3176 12.0648Z" fill="#10C900"/>
<path d="M29.7608 13.5996H28.3278L30.9369 6.1886H32.5942L35.2069 13.5996H33.7739L31.7945 7.70843H31.7366L29.7608 13.5996ZM29.8078 10.6938H33.716V11.7722H29.8078V10.6938ZM36.1251 13.5996V8.04135H37.3953V8.96773H37.4532C37.5545 8.64687 37.7282 8.3996 37.9743 8.2259C38.2227 8.04979 38.5062 7.96174 38.8246 7.96174C38.897 7.96174 38.9778 7.96536 39.0671 7.97259C39.1588 7.97742 39.2348 7.98586 39.2951 7.99793V9.20294C39.2396 9.18364 39.1515 9.16675 39.0309 9.15228C38.9127 9.13539 38.7981 9.12695 38.6871 9.12695C38.4483 9.12695 38.2336 9.17881 38.043 9.28255C37.8548 9.38387 37.7065 9.525 37.5979 9.70593C37.4894 9.88687 37.4351 10.0955 37.4351 10.332V13.5996H36.1251ZM42.361 13.7082C41.8061 13.7082 41.3297 13.5863 40.9316 13.3427C40.536 13.099 40.2308 12.7625 40.0161 12.3331C39.8038 11.9013 39.6976 11.4043 39.6976 10.8422C39.6976 10.2777 39.8062 9.77951 40.0233 9.34769C40.2404 8.91345 40.5468 8.5757 40.9425 8.33446C41.3405 8.0908 41.8109 7.96898 42.3537 7.96898C42.8049 7.96898 43.2041 8.05221 43.5515 8.21866C43.9013 8.38271 44.18 8.61551 44.3874 8.91706C44.5949 9.21621 44.7131 9.56601 44.742 9.96648H43.49C43.4393 9.69869 43.3187 9.47554 43.1281 9.29702C42.94 9.11609 42.6879 9.02562 42.3718 9.02562C42.104 9.02562 41.8688 9.098 41.6662 9.24274C41.4635 9.38508 41.3055 9.59014 41.1921 9.85792C41.0812 10.1257 41.0257 10.4466 41.0257 10.8205C41.0257 11.1992 41.0812 11.5249 41.1921 11.7975C41.3031 12.0677 41.4587 12.2764 41.659 12.4235C41.8616 12.5683 42.0992 12.6407 42.3718 12.6407C42.5648 12.6407 42.7373 12.6045 42.8893 12.5321C43.0437 12.4573 43.1728 12.35 43.2765 12.21C43.3802 12.0701 43.4514 11.9 43.49 11.6998H44.742C44.7107 12.093 44.5949 12.4416 44.3947 12.7456C44.1944 13.0472 43.9218 13.2836 43.5768 13.4549C43.2319 13.6237 42.8266 13.7082 42.361 13.7082ZM47.1276 10.3428V13.5996H45.8177V6.1886H47.0987V8.98582H47.1638C47.2941 8.6722 47.4955 8.42493 47.7682 8.24399C48.0432 8.06065 48.393 7.96898 48.8176 7.96898C49.2036 7.96898 49.5401 8.04979 49.8272 8.21143C50.1142 8.37306 50.3362 8.60948 50.493 8.92068C50.6522 9.23189 50.7318 9.61185 50.7318 10.0606V13.5996H49.4219V10.2632C49.4219 9.88928 49.3254 9.59858 49.1324 9.39111C48.9418 9.18123 48.674 9.07629 48.329 9.07629C48.0975 9.07629 47.89 9.12695 47.7066 9.22827C47.5257 9.32718 47.3834 9.47072 47.2796 9.65889C47.1783 9.84706 47.1276 10.075 47.1276 10.3428ZM52.0671 13.5996V8.04135H53.3771V13.5996H52.0671ZM52.7257 7.25248C52.5182 7.25248 52.3397 7.18373 52.1902 7.04622C52.0406 6.9063 51.9658 6.73863 51.9658 6.54322C51.9658 6.3454 52.0406 6.17774 52.1902 6.04023C52.3397 5.90031 52.5182 5.83035 52.7257 5.83035C52.9356 5.83035 53.1141 5.90031 53.2613 6.04023C53.4108 6.17774 53.4856 6.3454 53.4856 6.54322C53.4856 6.73863 53.4108 6.9063 53.2613 7.04622C53.1141 7.18373 52.9356 7.25248 52.7257 7.25248ZM59.6889 8.04135L57.7095 13.5996H56.2621L54.2826 8.04135H55.6794L56.9568 12.1702H57.0147L58.2957 8.04135H59.6889ZM62.867 13.7082C62.3097 13.7082 61.8285 13.5924 61.4232 13.3608C61.0203 13.1268 60.7103 12.7963 60.4932 12.3693C60.276 11.9399 60.1675 11.4344 60.1675 10.853C60.1675 10.2813 60.276 9.77951 60.4932 9.34769C60.7127 8.91345 61.0191 8.5757 61.4123 8.33446C61.8055 8.0908 62.2675 7.96898 62.7983 7.96898C63.1408 7.96898 63.4641 8.02446 63.7681 8.13543C64.0744 8.24399 64.3446 8.41286 64.5786 8.64205C64.8151 8.87123 65.0008 9.16313 65.1359 9.51776C65.271 9.86998 65.3386 10.2897 65.3386 10.7771V11.1787H60.7827V10.2958H64.0829C64.0805 10.0449 64.0262 9.82173 63.92 9.62632C63.8139 9.4285 63.6655 9.2729 63.4749 9.15951C63.2868 9.04613 63.0672 8.98944 62.8163 8.98944C62.5486 8.98944 62.3134 9.05457 62.1107 9.18485C61.9081 9.3127 61.75 9.48158 61.6367 9.69146C61.5257 9.89893 61.469 10.1269 61.4666 10.3754V11.1462C61.4666 11.4694 61.5257 11.7469 61.6439 11.9785C61.7621 12.2076 61.9274 12.3837 62.1397 12.5068C62.352 12.6274 62.6004 12.6877 62.8851 12.6877C63.0757 12.6877 63.2482 12.6612 63.4026 12.6081C63.557 12.5526 63.6909 12.4718 63.8042 12.3656C63.9176 12.2595 64.0033 12.128 64.0612 11.9712L65.2843 12.1087C65.2071 12.432 65.0599 12.7142 64.8428 12.9555C64.6281 13.1943 64.3531 13.3801 64.0177 13.5128C63.6824 13.643 63.2988 13.7082 62.867 13.7082ZM68.5094 13.6973C68.0728 13.6973 67.6819 13.5851 67.337 13.3608C66.992 13.1364 66.7194 12.8107 66.5191 12.3837C66.3189 11.9567 66.2188 11.4381 66.2188 10.8277C66.2188 10.2101 66.3201 9.68905 66.5228 9.26446C66.7278 8.83745 67.004 8.51539 67.3514 8.29827C67.6988 8.07874 68.086 7.96898 68.513 7.96898C68.8387 7.96898 69.1065 8.02446 69.3164 8.13543C69.5262 8.24399 69.6927 8.37547 69.8157 8.52987C69.9388 8.68185 70.0341 8.82539 70.1016 8.96049H70.1559V6.1886H71.4695V13.5996H70.1812V12.7239H70.1016C70.0341 12.859 69.9364 13.0025 69.8085 13.1545C69.6806 13.3041 69.5118 13.4319 69.3019 13.5381C69.092 13.6442 68.8278 13.6973 68.5094 13.6973ZM68.8749 12.6226C69.1523 12.6226 69.3887 12.5478 69.5841 12.3982C69.7796 12.2462 69.9279 12.0351 70.0292 11.7649C70.1306 11.4948 70.1812 11.1799 70.1812 10.8205C70.1812 10.461 70.1306 10.1486 70.0292 9.88325C69.9303 9.61788 69.7832 9.41161 69.5878 9.26446C69.3948 9.1173 69.1571 9.04372 68.8749 9.04372C68.583 9.04372 68.3393 9.11971 68.1439 9.27169C67.9485 9.42368 67.8014 9.63356 67.7024 9.90134C67.6035 10.1691 67.5541 10.4755 67.5541 10.8205C67.5541 11.1679 67.6035 11.4779 67.7024 11.7505C67.8038 12.0207 67.9521 12.2342 68.1475 12.391C68.3454 12.5454 68.5878 12.6226 68.8749 12.6226Z" fill="#10C900"/>
</svg>
