<svg width="11" height="6" viewBox="0 0 11 6" fill="none" xmlns="http://www.w3.org/2000/svg">
<path fill-rule="evenodd" clip-rule="evenodd" d="M10.2569 0.58351C10.2079 0.531239 10.1492 0.489126 10.0839 0.459575C10.0187 0.430025 9.94831 0.413616 9.87674 0.411287C9.80517 0.408959 9.73385 0.420756 9.66684 0.446006C9.59984 0.471255 9.53846 0.509461 9.48623 0.55844L5.49903 4.29712L1.51183 0.558439C1.40631 0.459572 1.26584 0.40667 1.12132 0.411372C0.976799 0.416073 0.840065 0.477993 0.741198 0.583509C0.642332 0.689025 0.589429 0.829494 0.594131 0.974014C0.598833 1.11853 0.660752 1.25527 0.766268 1.35414L5.12625 5.44162C5.22727 5.53634 5.36055 5.58905 5.49903 5.58905C5.6375 5.58905 5.77079 5.53634 5.87181 5.44162L10.2318 1.35414C10.2841 1.3052 10.3262 1.24644 10.3557 1.18121C10.3853 1.11599 10.4017 1.04558 10.404 0.974018C10.4063 0.902451 10.3945 0.831127 10.3693 0.764122C10.344 0.697116 10.3058 0.635743 10.2569 0.58351Z" fill="url(#paint0_linear_872_22017)"/>
<defs>
<linearGradient id="paint0_linear_872_22017" x1="10.1045" y1="5.0959" x2="0.918883" y2="4.43141" gradientUnits="userSpaceOnUse">
<stop stop-color="#095AD3"/>
<stop offset="1" stop-color="#166FF4"/>
</linearGradient>
</defs>
</svg>
