<svg width="10" height="6" viewBox="0 0 10 6" fill="none" xmlns="http://www.w3.org/2000/svg">
<path fill-rule="evenodd" clip-rule="evenodd" d="M0.243145 5.41643C0.292084 5.4687 0.350844 5.51081 0.416067 5.54036C0.48129 5.56991 0.551696 5.58632 0.623263 5.58865C0.69483 5.59098 0.766154 5.57918 0.83316 5.55393C0.900165 5.52868 0.961538 5.49048 1.01377 5.4415L5.00097 1.70281L8.98818 5.4415C9.09369 5.54036 9.23416 5.59327 9.37868 5.58856C9.5232 5.58386 9.65994 5.52194 9.7588 5.41643C9.85767 5.31091 9.91057 5.17044 9.90587 5.02592C9.90117 4.8814 9.83925 4.74467 9.73373 4.6458L5.37375 0.55832C5.27273 0.463601 5.13945 0.410888 5.00097 0.410888C4.8625 0.410888 4.72921 0.463601 4.62819 0.55832L0.268214 4.6458C0.215944 4.69474 0.17383 4.7535 0.144279 4.81872C0.114729 4.88395 0.0983203 4.95435 0.0959921 5.02592C0.0936639 5.09749 0.105462 5.16881 0.130711 5.23582C0.15596 5.30282 0.194166 5.3642 0.243145 5.41643Z" fill="white"/>
</svg>
