<svg width="15" height="12" viewBox="0 0 15 12" fill="none" xmlns="http://www.w3.org/2000/svg">
<path d="M1.00202 5.5597L12.6567 5.5597C13.0193 5.5597 13.3042 5.8467 13.3042 6.21198C13.3042 6.57725 13.0193 6.86426 12.6567 6.86426L1.00202 6.86426C0.639427 6.86426 0.354534 6.57726 0.354534 6.21198C0.354534 5.8467 0.639427 5.5597 1.00202 5.5597Z" fill="white"/>
<path d="M9.42047 0.994195C9.50539 0.993152 9.58959 1.01002 9.66765 1.04373C9.7457 1.07743 9.8159 1.12721 9.87371 1.18988L14.4061 5.75583C14.6651 6.01675 14.6651 6.42116 14.4061 6.68207L9.87371 11.235C9.61472 11.4959 9.21328 11.4959 8.95429 11.235C8.69529 10.9741 8.69529 10.5697 8.95429 10.3087L13.0334 6.19938L8.95429 2.09002C8.69529 1.82911 8.69529 1.4247 8.95429 1.16379C9.08378 1.03333 9.25213 0.968104 9.40752 0.968104L9.42047 0.994195Z" fill="white"/>
</svg>
