<svg width="7" height="12" viewBox="0 0 7 12" fill="none" xmlns="http://www.w3.org/2000/svg">
<path fill-rule="evenodd" clip-rule="evenodd" d="M5.92933 11.4463C5.99124 11.3883 6.04113 11.3187 6.07613 11.2415C6.11114 11.1642 6.13058 11.0808 6.13333 10.9961C6.13609 10.9113 6.12212 10.8268 6.09221 10.7474C6.0623 10.668 6.01704 10.5953 5.95902 10.5335L1.53036 5.81042L5.95902 1.08737C6.07614 0.962379 6.1388 0.795987 6.13323 0.624795C6.12766 0.453603 6.05432 0.291634 5.92933 0.174521C5.80434 0.0574081 5.63795 -0.0052569 5.46675 0.000311613C5.29556 0.00588108 5.13359 0.0792282 5.01648 0.204218L0.174641 5.36885C0.0624416 5.4885 -2.61157e-07 5.64639 -2.53987e-07 5.81042C-2.46817e-07 5.97445 0.0624416 6.13234 0.174641 6.252L5.01648 11.4166C5.07445 11.4785 5.14405 11.5284 5.22131 11.5634C5.29857 11.5984 5.38198 11.6179 5.46675 11.6206C5.55152 11.6234 5.63601 11.6094 5.71538 11.5795C5.79475 11.5496 5.86745 11.5043 5.92933 11.4463Z" fill="url(#paint0_linear_904_12877)"/>
<defs>
<linearGradient id="paint0_linear_904_12877" x1="0.584159" y1="11.2659" x2="1.37128" y2="0.384998" gradientUnits="userSpaceOnUse">
<stop stop-color="#095AD3"/>
<stop offset="1" stop-color="#166FF4"/>
</linearGradient>
</defs>
</svg>
