<svg width="13" height="8" viewBox="0 0 13 8" fill="none" xmlns="http://www.w3.org/2000/svg">
<path fill-rule="evenodd" clip-rule="evenodd" d="M11.9464 1.13751C11.8885 1.0756 11.8189 1.02571 11.7416 0.990707C11.6643 0.955702 11.5809 0.936265 11.4962 0.933507C11.4114 0.930749 11.3269 0.944724 11.2475 0.974633C11.1682 1.00454 11.0955 1.0498 11.0336 1.10782L6.31054 5.53649L1.58749 1.10782C1.4625 0.990704 1.29611 0.928038 1.12492 0.933608C0.953725 0.939177 0.791757 1.01252 0.674644 1.13751C0.557531 1.2625 0.494866 1.42889 0.500434 1.60009C0.506004 1.77128 0.579351 1.93325 0.70434 2.05036L5.86897 6.8922C5.98863 7.0044 6.14651 7.06684 6.31054 7.06684C6.47458 7.06684 6.63246 7.0044 6.75212 6.8922L11.9167 2.05036C11.9787 1.99239 12.0285 1.92279 12.0636 1.84553C12.0986 1.76827 12.118 1.68487 12.1208 1.60009C12.1235 1.51532 12.1095 1.43083 12.0796 1.35146C12.0497 1.27209 12.0045 1.19939 11.9464 1.13751Z" fill="#A3A7AF"/>
</svg>
