<svg width="15" height="4" viewBox="0 0 15 4" fill="none" xmlns="http://www.w3.org/2000/svg">
<path d="M2.47568 1.68555C2.47568 1.27133 2.13989 0.935547 1.72568 0.935547C1.31146 0.935547 0.975677 1.27133 0.975677 1.68555C0.975677 2.09976 1.31146 2.43555 1.72568 2.43555C2.13989 2.43555 2.47568 2.09976 2.47568 1.68555Z" stroke="#095AD3" stroke-width="1.5" stroke-linecap="round" stroke-linejoin="round"/>
<path d="M7.97568 1.68555C7.97568 1.27133 7.63989 0.935547 7.22568 0.935547C6.81146 0.935547 6.47568 1.27133 6.47568 1.68555C6.47568 2.09976 6.81146 2.43555 7.22568 2.43555C7.63989 2.43555 7.97568 2.09976 7.97568 1.68555Z" stroke="#095AD3" stroke-width="1.5" stroke-linecap="round" stroke-linejoin="round"/>
<path d="M13.4757 1.68555C13.4757 1.27133 13.1399 0.935547 12.7257 0.935547C12.3115 0.935547 11.9757 1.27133 11.9757 1.68555C11.9757 2.09976 12.3115 2.43555 12.7257 2.43555C13.1399 2.43555 13.4757 2.09976 13.4757 1.68555Z" stroke="#095AD3" stroke-width="1.5" stroke-linecap="round" stroke-linejoin="round"/>
</svg>
