<svg width="18" height="18" viewBox="0 0 18 18" fill="none" xmlns="http://www.w3.org/2000/svg">
<g clip-path="url(#clip0_3570_64413)">
<path opacity="0.2" fill-rule="evenodd" clip-rule="evenodd" d="M8.625 3.60938C7.19532 3.60938 5.82419 4.17731 4.81325 5.18825C3.80231 6.19919 3.23438 7.57032 3.23438 9C3.23438 10.4297 3.80231 11.8008 4.81325 12.8117C5.82419 13.8227 7.19532 14.3906 8.625 14.3906C10.0547 14.3906 11.4258 13.8227 12.4367 12.8117C13.4477 11.8008 14.0156 10.4297 14.0156 9C14.0156 7.57032 13.4477 6.19919 12.4367 5.18825C11.4258 4.17731 10.0547 3.60938 8.625 3.60938ZM1.07812 9C1.07812 4.83197 4.45697 1.45312 8.625 1.45312C12.793 1.45312 16.1719 4.83197 16.1719 9C16.1719 13.168 12.793 16.5469 8.625 16.5469C4.45697 16.5469 1.07812 13.168 1.07812 9Z" fill="#F0F5FC"/>
<path fill-rule="evenodd" clip-rule="evenodd" d="M8.62414 3.60938C7.23436 3.60641 5.89771 4.14318 4.89599 5.10654C4.68847 5.29841 4.4139 5.40112 4.1314 5.39256C3.84889 5.384 3.58105 5.26484 3.38553 5.06075C3.19002 4.85666 3.08246 4.58395 3.08602 4.30134C3.08959 4.01873 3.20398 3.74882 3.40458 3.54973C3.72179 3.24545 4.06391 2.97041 4.43096 2.7246C5.67143 1.89383 7.13117 1.4512 8.62414 1.45313C8.91008 1.45313 9.18431 1.56672 9.38649 1.76891C9.58868 1.97109 9.70227 2.24532 9.70227 2.53126C9.70227 2.81719 9.58868 3.09142 9.38649 3.29361C9.18431 3.49579 8.91008 3.60938 8.62414 3.60938Z" fill="url(#paint0_linear_3570_64413)"/>
</g>
<defs>
<linearGradient id="paint0_linear_3570_64413" x1="3.12209" y1="1.45312" x2="10.1169" y2="3.42779" gradientUnits="userSpaceOnUse">
<stop stop-color="#095AD3"/>
<stop offset="1" stop-color="#166FF4"/>
</linearGradient>
<clipPath id="clip0_3570_64413">
<rect width="17.25" height="17.25" fill="white" transform="translate(0 0.375)"/>
</clipPath>
</defs>
</svg>
