<svg width="14" height="15" viewBox="0 0 14 15" fill="none" xmlns="http://www.w3.org/2000/svg">
<path d="M8.41681 2.74723C8.41681 2.74723 8.48581 3.92923 9.52861 4.97143C10.5714 6.01423 11.7528 6.08382 11.7528 6.08382L12.309 5.52763C12.7515 5.08517 13 4.48506 13 3.85933C13 3.2336 12.7515 2.63349 12.309 2.19103C11.8665 1.74857 11.2664 1.5 10.6407 1.5C10.015 1.5 9.41487 1.74857 8.97241 2.19103L8.41621 2.74723L7.00021 4.16323M11.7528 6.08322L8.59681 9.24042L6.73621 11.0998L6.64021 11.1964C6.29341 11.5426 6.12001 11.716 5.92921 11.8648C5.70405 12.0406 5.46042 12.1912 5.20261 12.3142C4.98421 12.418 4.75202 12.4954 4.28702 12.6502L2.31842 13.3066M2.31842 13.3066L1.83722 13.4674C1.72505 13.505 1.60462 13.5106 1.48945 13.4835C1.37429 13.4564 1.26896 13.3978 1.1853 13.3141C1.10165 13.2305 1.04299 13.1251 1.01591 13.01C0.988829 12.8948 0.994409 12.7744 1.03202 12.6622L1.19282 12.181M2.31842 13.3066L1.19282 12.181M1.19282 12.181L1.84922 10.2124C2.00402 9.74742 2.08142 9.51522 2.18522 9.29682C2.30822 9.03882 2.45882 8.79522 2.63462 8.57022C2.78342 8.37942 2.95682 8.20602 3.30302 7.85982L4.90021 6.26322" stroke="url(#paint0_linear_3453_79833)" stroke-width="1.2" stroke-linecap="round"/>
<defs>
<linearGradient id="paint0_linear_3453_79833" x1="1.36572" y1="2.6429" x2="12.6448" y2="3.07357" gradientUnits="userSpaceOnUse">
<stop stop-color="#095AD3"/>
<stop offset="1" stop-color="#166FF4"/>
</linearGradient>
</defs>
</svg>
