<svg width="16" height="17" viewBox="0 0 16 17" fill="none" xmlns="http://www.w3.org/2000/svg">
<path fill-rule="evenodd" clip-rule="evenodd" d="M14.6114 0.5C14.3367 0.5 14.0686 0.584568 13.8407 0.7438L10.1294 3.32274C9.19816 3.9704 8.34655 4.73468 7.59365 5.59846C9.14016 6.3566 10.3843 7.65408 11.1113 9.26689C11.9396 8.48146 12.6725 7.59309 13.2935 6.62166L15.7671 2.7521C15.9064 2.53391 15.9863 2.2804 15.9984 2.01858C16.0105 1.75676 15.9542 1.49643 15.8356 1.26532C15.717 1.03422 15.5405 0.840987 15.3249 0.706214C15.1093 0.571441 14.8627 0.500173 14.6114 0.5ZM8.54776 11.1853C9.02668 10.9079 9.48922 10.6008 9.93289 10.2657C9.63803 9.48791 9.1933 8.78147 8.62621 8.19007C8.05911 7.59866 7.38171 7.13487 6.63588 6.82737C6.31455 7.2898 6.02009 7.77192 5.7541 8.27112L5.551 8.65205C6.17647 8.83972 6.74598 9.18998 7.20612 9.66998C7.66627 10.15 8.00197 10.744 8.18175 11.3963L8.54849 11.1845L8.54776 11.1853ZM4.49389 9.64249C3.7673 9.64249 3.07047 9.9435 2.5567 10.4793C2.04293 11.0151 1.75429 11.7418 1.75429 12.4995C1.75433 12.6561 1.72352 12.811 1.66376 12.9547C1.604 13.0983 1.51657 13.2276 1.40689 13.3346C1.29722 13.4415 1.16764 13.5238 1.0262 13.5764C0.884761 13.6289 0.734475 13.6506 0.584667 13.64C0.485614 13.6331 0.386612 13.6544 0.298241 13.7015C0.209871 13.7487 0.135452 13.82 0.0829361 13.9079C0.0304205 13.9958 0.00178193 14.0969 8.0495e-05 14.2004C-0.00162094 14.3039 0.0236787 14.4059 0.073276 14.4956C0.494728 15.2592 1.14611 15.8562 1.92629 16.1941C2.70647 16.532 3.5718 16.5918 4.38792 16.3643C5.20404 16.1367 5.9253 15.6346 6.4397 14.9357C6.95411 14.2369 7.23289 13.3805 7.23275 12.4995C7.23275 12.1243 7.16189 11.7528 7.02421 11.4062C6.88653 11.0596 6.68474 10.7446 6.43034 10.4793C6.17595 10.214 5.87394 10.0035 5.54155 9.85997C5.20917 9.71639 4.85365 9.64249 4.49389 9.64249Z" fill="url(#paint0_linear_2218_16446)"/>
<defs>
<linearGradient id="paint0_linear_2218_16446" x1="16" y1="8.49997" x2="0" y2="8.49997" gradientUnits="userSpaceOnUse">
<stop stop-color="#095AD3"/>
<stop offset="1" stop-color="#166FF4"/>
</linearGradient>
</defs>
</svg>
