<svg width="17" height="18" viewBox="0 0 17 18" fill="none" xmlns="http://www.w3.org/2000/svg">
<path d="M3.46199 7.89572C5.37399 7.89572 6.92398 6.34573 6.92398 4.43373C6.92398 2.52173 5.37399 0.971741 3.46199 0.971741C1.54999 0.971741 0 2.52173 0 4.43373C0 6.34573 1.54999 7.89572 3.46199 7.89572Z" fill="url(#paint0_linear_428_22998)"/>
<path d="M12.9039 7.89572C14.8159 7.89572 16.3659 6.34573 16.3659 4.43373C16.3659 2.52173 14.8159 0.971741 12.9039 0.971741C10.9919 0.971741 9.44189 2.52173 9.44189 4.43373C9.44189 6.34573 10.9919 7.89572 12.9039 7.89572Z" fill="url(#paint1_linear_428_22998)"/>
<path d="M3.46199 17.3375C5.37399 17.3375 6.92398 15.7875 6.92398 13.8755C6.92398 11.9635 5.37399 10.4135 3.46199 10.4135C1.54999 10.4135 0 11.9635 0 13.8755C0 15.7875 1.54999 17.3375 3.46199 17.3375Z" fill="url(#paint2_linear_428_22998)"/>
<path d="M12.9039 17.3375C14.8159 17.3375 16.3659 15.7875 16.3659 13.8755C16.3659 11.9635 14.8159 10.4135 12.9039 10.4135C10.9919 10.4135 9.44189 11.9635 9.44189 13.8755C9.44189 15.7875 10.9919 17.3375 12.9039 17.3375Z" fill="url(#paint3_linear_428_22998)"/>
<defs>
<linearGradient id="paint0_linear_428_22998" x1="0.211566" y1="1.63117" x2="6.71901" y2="1.87963" gradientUnits="userSpaceOnUse">
<stop stop-color="#095AD3"/>
<stop offset="1" stop-color="#166FF4"/>
</linearGradient>
<linearGradient id="paint1_linear_428_22998" x1="9.65346" y1="1.63117" x2="16.1609" y2="1.87963" gradientUnits="userSpaceOnUse">
<stop stop-color="#095AD3"/>
<stop offset="1" stop-color="#166FF4"/>
</linearGradient>
<linearGradient id="paint2_linear_428_22998" x1="0.211566" y1="11.0729" x2="6.71901" y2="11.3214" gradientUnits="userSpaceOnUse">
<stop stop-color="#095AD3"/>
<stop offset="1" stop-color="#166FF4"/>
</linearGradient>
<linearGradient id="paint3_linear_428_22998" x1="9.65346" y1="11.0729" x2="16.1609" y2="11.3214" gradientUnits="userSpaceOnUse">
<stop stop-color="#095AD3"/>
<stop offset="1" stop-color="#166FF4"/>
</linearGradient>
</defs>
</svg>
