<svg width="18" height="17" viewBox="0 0 18 17" fill="none" xmlns="http://www.w3.org/2000/svg">
<path d="M1.77612 2.48009C1.77612 2.25201 1.87126 2.03327 2.0406 1.872C2.20994 1.71072 2.43961 1.62012 2.6791 1.62012H15.3207C15.5602 1.62012 15.7899 1.71072 15.9592 1.872C16.1286 2.03327 16.2237 2.25201 16.2237 2.48009V4.20004C16.2237 4.42812 16.1286 4.64686 15.9592 4.80814C15.7899 4.96941 15.5602 5.06002 15.3207 5.06002H2.6791C2.43961 5.06002 2.20994 4.96941 2.0406 4.80814C1.87126 4.64686 1.77612 4.42812 1.77612 4.20004V2.48009ZM1.77612 9.35989C1.77612 9.13181 1.87126 8.91308 2.0406 8.7518C2.20994 8.59052 2.43961 8.49992 2.6791 8.49992H8.09694C8.33642 8.49992 8.5661 8.59052 8.73544 8.7518C8.90478 8.91308 8.99992 9.13181 8.99992 9.35989V14.5197C8.99992 14.7478 8.90478 14.9666 8.73544 15.1278C8.5661 15.2891 8.33642 15.3797 8.09694 15.3797H2.6791C2.43961 15.3797 2.20994 15.2891 2.0406 15.1278C1.87126 14.9666 1.77612 14.7478 1.77612 14.5197V9.35989ZM12.6118 9.35989C12.6118 9.13181 12.7069 8.91308 12.8763 8.7518C13.0456 8.59052 13.2753 8.49992 13.5148 8.49992H15.3207C15.5602 8.49992 15.7899 8.59052 15.9592 8.7518C16.1286 8.91308 16.2237 9.13181 16.2237 9.35989V14.5197C16.2237 14.7478 16.1286 14.9666 15.9592 15.1278C15.7899 15.2891 15.5602 15.3797 15.3207 15.3797H13.5148C13.2753 15.3797 13.0456 15.2891 12.8763 15.1278C12.7069 14.9666 12.6118 14.7478 12.6118 14.5197V9.35989Z" fill="white" stroke="white" stroke-width="1.80595" stroke-linecap="round" stroke-linejoin="round"/>
</svg>
