<svg width="29" height="28" viewBox="0 0 29 28" fill="none" xmlns="http://www.w3.org/2000/svg">
<rect x="0.5" width="28" height="28" rx="8" fill="url(#paint0_linear_2612_133178)"/>
<path fill-rule="evenodd" clip-rule="evenodd" d="M10.9507 7C9.59733 7 8.50019 8.09714 8.50019 9.45052V19.2224L8.5 19.2532C8.5 20.6066 9.59714 21.7038 10.9505 21.7038H18.3021C19.6555 21.7038 20.7526 20.6066 20.7526 19.2532C20.7526 17.9002 19.6559 16.8032 18.303 16.8027V19.2532H10.9514V9.4511H13.4012V9.45052C13.4012 8.09714 12.3041 7 10.9507 7ZM15.6843 9.4511H13.4017V14.1842C13.4017 15.6303 14.574 16.8027 16.0201 16.8027H18.3027V12.0696C18.3027 10.6234 17.1304 9.4511 15.6843 9.4511Z" fill="url(#paint1_linear_2612_133178)"/>
<defs>
<linearGradient id="paint0_linear_2612_133178" x1="28.5" y1="14" x2="0.5" y2="14" gradientUnits="userSpaceOnUse">
<stop stop-color="#095AD3"/>
<stop offset="1" stop-color="#166FF4"/>
</linearGradient>
<linearGradient id="paint1_linear_2612_133178" x1="9" y1="22.5" x2="19.1133" y2="13.5056" gradientUnits="userSpaceOnUse">
<stop stop-color="white" stop-opacity="0.4"/>
<stop offset="0.388438" stop-color="white"/>
<stop offset="1" stop-color="white" stop-opacity="0.69"/>
</linearGradient>
</defs>
</svg>
