<svg width="31" height="32" viewBox="0 0 31 32" fill="none" xmlns="http://www.w3.org/2000/svg">
<rect y="16" width="21.9203" height="21.9203" rx="4.35578" transform="rotate(-45 0 16)" fill="url(#paint0_linear_204_1976)"/>
<path d="M15.5997 9.82276C15.6424 9.62684 15.9218 9.62684 15.9645 9.82276L17.0114 14.6281C17.027 14.6994 17.0827 14.7552 17.1541 14.7707L21.9594 15.8177C22.1553 15.8604 22.1553 16.1398 21.9594 16.1825L17.1541 17.2295C17.0827 17.245 17.027 17.3007 17.0114 17.3721L15.9645 22.1774C15.9218 22.3733 15.6424 22.3733 15.5997 22.1774L14.5527 17.3721C14.5372 17.3007 14.4814 17.245 14.4101 17.2295L9.60474 16.1825C9.40882 16.1398 9.40883 15.8604 9.60474 15.8177L14.4101 14.7707C14.4814 14.7552 14.5372 14.6994 14.5527 14.6281L15.5997 9.82276Z" fill="white"/>
<defs>
<linearGradient id="paint0_linear_204_1976" x1="10.9602" y1="16" x2="10.9602" y2="37.9203" gradientUnits="userSpaceOnUse">
<stop stop-color="#095AD3"/>
<stop offset="1" stop-color="#095AD3" stop-opacity="0.76"/>
</linearGradient>
</defs>
</svg>
