<svg width="22" height="22" viewBox="0 0 22 22" fill="none" xmlns="http://www.w3.org/2000/svg">
<path d="M0.408897 5.81077C0.408897 4.88467 0.408897 4.42057 0.482397 4.03417C0.639343 3.20455 1.04269 2.44044 1.63982 1.8435C2.23695 1.24656 3.00013 0.843451 3.8298 0.686766C4.2162 0.613266 4.67925 0.613266 5.6064 0.613266C6.0117 0.613266 6.2154 0.613266 6.4107 0.631116C7.25168 0.709807 8.0494 1.04024 8.6997 1.57927C8.8509 1.70527 8.9937 1.84807 9.2814 2.13577L9.87648 2.73082C10.7216 3.5749 11.1476 4.00042 11.6565 4.28302C11.9381 4.43998 12.2369 4.564 12.5469 4.65262C13.1118 4.81327 13.7176 4.81327 14.9283 4.81327H15.321C18.0846 4.81327 19.4674 4.81327 20.3652 5.62072C20.4477 5.69524 20.5262 5.7741 20.6004 5.85697C21.4089 6.75472 21.4089 8.13757 21.4089 10.9012V13.2133C21.4089 17.1728 21.4089 19.1531 20.1783 20.3827C18.9487 21.6133 16.9684 21.6133 13.0089 21.6133H8.8089C4.84935 21.6133 2.86905 21.6133 1.6395 20.3827C0.408897 19.1531 0.408897 17.1728 0.408897 13.2133V5.81077Z" fill="#383D44"/>
<path d="M16.1431 1.68427C15.9825 1.66327 15.7893 1.66327 15.405 1.66327H10.9089L11.2963 2.06542C11.9956 2.78992 12.2644 3.06082 12.5752 3.23932C12.7547 3.34294 12.9457 3.42505 13.1443 3.48397C13.4856 3.58477 13.8615 3.59002 14.8506 3.59002H15.2013C16.2534 3.59002 17.1018 3.59002 17.7738 3.67822C17.9364 3.69868 18.098 3.72707 18.2578 3.76327C18.0625 2.67442 17.212 1.83127 16.1431 1.68427Z" fill="#383D44"/>
<path d="M7.70162 12.5642C8.34972 12.5642 8.97127 12.3067 9.42954 11.8485C9.88781 11.3902 10.1453 10.7686 10.1453 10.1205C10.1453 9.47245 9.88781 8.8509 9.42954 8.39263C8.97127 7.93436 8.34972 7.6769 7.70162 7.6769C7.05353 7.6769 6.43198 7.93436 5.97371 8.39263C5.51544 8.8509 5.25799 9.47245 5.25799 10.1205C5.25799 10.7686 5.51544 11.3902 5.97371 11.8485C6.43198 12.3067 7.05353 12.5642 7.70162 12.5642ZM5.41072 13.786C5.04616 13.786 4.69654 13.9308 4.43877 14.1886C4.18099 14.4464 4.03617 14.796 4.03617 15.1605V15.3133C4.03617 15.3133 4.03617 18.0624 7.70162 18.0624C11.3671 18.0624 11.3671 15.3133 11.3671 15.3133V15.1605C11.3671 14.796 11.2223 14.4464 10.9645 14.1886C10.7067 13.9308 10.3571 13.786 9.99253 13.786H5.41072Z" fill="white"/>
</svg>
