<svg width="17" height="17" viewBox="0 0 17 17" fill="none" xmlns="http://www.w3.org/2000/svg">
<path d="M0.251465 4.11463C0.251465 3.40903 0.251465 3.05543 0.307465 2.76103C0.427042 2.12894 0.734355 1.54677 1.18931 1.09195C1.64426 0.637142 2.22574 0.330012 2.85786 0.210633C3.15227 0.154633 3.50506 0.154633 4.21146 0.154633C4.52026 0.154633 4.67547 0.154633 4.82427 0.168233C5.46501 0.228188 6.0728 0.479944 6.56827 0.890633C6.68347 0.986633 6.79227 1.09543 7.01147 1.31463L7.46486 1.76801C8.10875 2.41112 8.43334 2.73532 8.82106 2.95063C9.03564 3.07023 9.26327 3.16472 9.49947 3.23223C9.92987 3.35463 10.3915 3.35463 11.3139 3.35463H11.6131C13.7187 3.35463 14.7723 3.35463 15.4563 3.96983C15.5192 4.02661 15.579 4.08669 15.6355 4.14983C16.2515 4.83383 16.2515 5.88743 16.2515 7.99303V9.75463C16.2515 12.7714 16.2515 14.2802 15.3139 15.217C14.3771 16.1546 12.8683 16.1546 9.85147 16.1546H6.65147C3.63467 16.1546 2.12586 16.1546 1.18906 15.217C0.251465 14.2802 0.251465 12.7714 0.251465 9.75463V4.11463Z" fill="white"/>
<path d="M12.2395 0.970633C12.1171 0.954633 11.9699 0.954633 11.6771 0.954633H8.25146L8.54667 1.26103C9.07947 1.81303 9.28427 2.01943 9.52107 2.15543C9.65778 2.23438 9.80331 2.29695 9.95467 2.34183C10.2147 2.41863 10.5011 2.42263 11.2547 2.42263H11.5219C12.3235 2.42263 12.9699 2.42263 13.4819 2.48983C13.6058 2.50543 13.7289 2.52705 13.8507 2.55463C13.7019 1.72503 13.0539 1.08263 12.2395 0.970633Z" fill="white"/>
<path d="M5.80783 9.26009C6.30161 9.26009 6.77518 9.06393 7.12433 8.71477C7.47349 8.36562 7.66965 7.89205 7.66965 7.39827C7.66965 6.90448 7.47349 6.43092 7.12433 6.08176C6.77518 5.73261 6.30161 5.53645 5.80783 5.53645C5.31404 5.53645 4.84048 5.73261 4.49132 6.08176C4.14217 6.43092 3.94601 6.90448 3.94601 7.39827C3.94601 7.89205 4.14217 8.36562 4.49132 8.71477C4.84048 9.06393 5.31404 9.26009 5.80783 9.26009ZM4.06237 10.191C3.78462 10.191 3.51824 10.3013 3.32184 10.4977C3.12544 10.6941 3.0151 10.9605 3.0151 11.2383V11.3546C3.0151 11.3546 3.0151 13.4492 5.80783 13.4492C8.60056 13.4492 8.60056 11.3546 8.60056 11.3546V11.2383C8.60056 10.9605 8.49022 10.6941 8.29382 10.4977C8.09741 10.3013 7.83104 10.191 7.55328 10.191H4.06237Z" fill="#383D44"/>
</svg>
