<svg width="16" height="17" viewBox="0 0 16 17" fill="none" xmlns="http://www.w3.org/2000/svg">
<path d="M-0.000976562 4.46C-0.000976562 3.7544 -0.000976562 3.4008 0.0550234 3.1064C0.174601 2.47431 0.481914 1.89213 0.936868 1.43732C1.39182 0.982509 1.9733 0.675379 2.60542 0.556C2.89982 0.5 3.25262 0.5 3.95902 0.5C4.26782 0.5 4.42302 0.5 4.57182 0.5136C5.21257 0.573555 5.82036 0.825312 6.31582 1.236C6.43102 1.332 6.53982 1.4408 6.75902 1.66L7.21242 2.11338C7.85631 2.75649 8.1809 3.08069 8.56862 3.296C8.7832 3.41559 9.01083 3.51008 9.24702 3.5776C9.67743 3.7 10.139 3.7 11.0614 3.7H11.3606C13.4662 3.7 14.5198 3.7 15.2038 4.3152C15.2667 4.37198 15.3265 4.43206 15.383 4.4952C15.999 5.1792 15.999 6.2328 15.999 8.3384V10.1C15.999 13.1168 15.999 14.6256 15.0614 15.5624C14.1246 16.5 12.6158 16.5 9.59902 16.5H6.39902C3.38222 16.5 1.87342 16.5 0.936623 15.5624C-0.000976562 14.6256 -0.000976562 13.1168 -0.000976562 10.1V4.46Z" fill="white"/>
<path d="M11.987 1.316C11.8646 1.3 11.7174 1.3 11.4246 1.3H7.99902L8.29422 1.6064C8.82703 2.1584 9.03182 2.3648 9.26862 2.5008C9.40533 2.57975 9.55087 2.64231 9.70222 2.6872C9.96222 2.764 10.2486 2.768 11.0022 2.768H11.2694C12.071 2.768 12.7174 2.768 13.2294 2.8352C13.3533 2.85079 13.4764 2.87242 13.5982 2.9C13.4494 2.0704 12.8014 1.428 11.987 1.316Z" fill="white"/>
<path d="M5.55539 9.60546C6.04917 9.60546 6.52273 9.4093 6.87189 9.06014C7.22105 8.71098 7.41721 8.23742 7.41721 7.74364C7.41721 7.24985 7.22105 6.77629 6.87189 6.42713C6.52273 6.07797 6.04917 5.88182 5.55539 5.88182C5.0616 5.88182 4.58804 6.07797 4.23888 6.42713C3.88972 6.77629 3.69357 7.24985 3.69357 7.74364C3.69357 8.23742 3.88972 8.71098 4.23888 9.06014C4.58804 9.4093 5.0616 9.60546 5.55539 9.60546ZM3.80993 10.5364C3.53218 10.5364 3.2658 10.6467 3.0694 10.8431C2.873 11.0395 2.76266 11.3059 2.76266 11.5836V11.7C2.76266 11.7 2.76266 13.7945 5.55539 13.7945C8.34811 13.7945 8.34811 11.7 8.34811 11.7V11.5836C8.34811 11.3059 8.23778 11.0395 8.04138 10.8431C7.84497 10.6467 7.5786 10.5364 7.30084 10.5364H3.80993Z" fill="url(#paint0_linear_3453_79830)"/>
<defs>
<linearGradient id="paint0_linear_3453_79830" x1="0.487912" y1="2.02381" x2="15.5254" y2="2.59797" gradientUnits="userSpaceOnUse">
<stop stop-color="#095AD3"/>
<stop offset="1" stop-color="#166FF4"/>
</linearGradient>
</defs>
</svg>
