<svg width="21" height="21" viewBox="0 0 21 21" fill="none" xmlns="http://www.w3.org/2000/svg">
<path d="M0 5.1975C0 4.2714 0 3.8073 0.0734999 3.4209C0.230445 2.59128 0.633793 1.82717 1.23092 1.23023C1.82805 0.633294 2.59123 0.230185 3.4209 0.0734999C3.8073 0 4.27035 0 5.1975 0C5.6028 0 5.8065 0 6.0018 0.01785C6.84278 0.0965411 7.6405 0.426972 8.2908 0.966C8.442 1.092 8.5848 1.2348 8.8725 1.5225L9.46758 2.11756C10.3127 2.96164 10.7387 3.38715 11.2476 3.66975C11.5292 3.82672 11.828 3.95073 12.138 4.03935C12.7029 4.2 13.3087 4.2 14.5194 4.2H14.9121C17.6757 4.2 19.0585 4.2 19.9563 5.00745C20.0388 5.08197 20.1173 5.16083 20.1915 5.2437C21 6.14145 21 7.5243 21 10.2879V12.6C21 16.5595 21 18.5398 19.7694 19.7694C18.5398 21 16.5595 21 12.6 21H8.4C4.44045 21 2.46015 21 1.2306 19.7694C0 18.5398 0 16.5595 0 12.6V5.1975Z" fill="#095AD3"/>
<path d="M15.7343 1.071C15.5736 1.05 15.3804 1.05 14.9961 1.05H10.5L10.8875 1.45215C11.5868 2.17665 11.8555 2.44755 12.1664 2.62605C12.3458 2.72967 12.5368 2.81179 12.7354 2.8707C13.0767 2.9715 13.4526 2.97675 14.4417 2.97675H14.7924C15.8445 2.97675 16.6929 2.97675 17.3649 3.06495C17.5275 3.08542 17.6891 3.1138 17.849 3.15C17.6537 2.06115 16.8032 1.218 15.7343 1.071Z" fill="#095AD3"/>
<path d="M7.29273 11.9509C7.94082 11.9509 8.56237 11.6935 9.02064 11.2352C9.47891 10.7769 9.73636 10.1554 9.73636 9.50727C9.73636 8.85918 9.47891 8.23763 9.02064 7.77936C8.56237 7.32109 7.94082 7.06364 7.29273 7.06364C6.64463 7.06364 6.02309 7.32109 5.56482 7.77936C5.10654 8.23763 4.84909 8.85918 4.84909 9.50727C4.84909 10.1554 5.10654 10.7769 5.56482 11.2352C6.02309 11.6935 6.64463 11.9509 7.29273 11.9509ZM5.00182 13.1727C4.63727 13.1727 4.28764 13.3175 4.02987 13.5753C3.77209 13.8331 3.62727 14.1827 3.62727 14.5473V14.7C3.62727 14.7 3.62727 17.4491 7.29273 17.4491C10.9582 17.4491 10.9582 14.7 10.9582 14.7V14.5473C10.9582 14.1827 10.8134 13.8331 10.5556 13.5753C10.2978 13.3175 9.94819 13.1727 9.58364 13.1727H5.00182Z" fill="white"/>
</svg>
