<svg width="13" height="14" viewBox="0 0 13 14" fill="none" xmlns="http://www.w3.org/2000/svg">
<path d="M4.7125 1.475C4.41082 1.475 4.12149 1.59484 3.90817 1.80817C3.69484 2.02149 3.575 2.31082 3.575 2.6125V3.2625C3.575 3.39179 3.52364 3.51579 3.43221 3.60721C3.34079 3.69864 3.21679 3.75 3.0875 3.75C2.95821 3.75 2.83421 3.69864 2.74279 3.60721C2.65136 3.51579 2.6 3.39179 2.6 3.2625V2.6125C2.6 2.05223 2.82257 1.51491 3.21874 1.11874C3.61491 0.722566 4.15223 0.5 4.7125 0.5H5.3625C5.49179 0.5 5.61579 0.551361 5.70721 0.642785C5.79864 0.734209 5.85 0.858207 5.85 0.9875C5.85 1.11679 5.79864 1.24079 5.70721 1.33221C5.61579 1.42364 5.49179 1.475 5.3625 1.475H4.7125ZM6.5 0.9875C6.5 0.858207 6.55136 0.734209 6.64279 0.642785C6.73421 0.551361 6.85821 0.5 6.9875 0.5H8.6125C8.74179 0.5 8.86579 0.551361 8.95721 0.642785C9.04864 0.734209 9.1 0.858207 9.1 0.9875C9.1 1.11679 9.04864 1.24079 8.95721 1.33221C8.86579 1.42364 8.74179 1.475 8.6125 1.475H6.9875C6.85821 1.475 6.73421 1.42364 6.64279 1.33221C6.55136 1.24079 6.5 1.11679 6.5 0.9875ZM6.9875 9.925C6.85821 9.925 6.73421 9.97636 6.64279 10.0678C6.55136 10.1592 6.5 10.2832 6.5 10.4125C6.5 10.5418 6.55136 10.6658 6.64279 10.7572C6.73421 10.8486 6.85821 10.9 6.9875 10.9H8.6125C8.74179 10.9 8.86579 10.8486 8.95721 10.7572C9.04864 10.6658 9.1 10.5418 9.1 10.4125C9.1 10.2832 9.04864 10.1592 8.95721 10.0678C8.86579 9.97636 8.74179 9.925 8.6125 9.925H6.9875ZM3.0875 4.4C3.21679 4.4 3.34079 4.45136 3.43221 4.54279C3.52364 4.63421 3.575 4.75821 3.575 4.8875V6.5125C3.575 6.64179 3.52364 6.76579 3.43221 6.85721C3.34079 6.94864 3.21679 7 3.0875 7C2.95821 7 2.83421 6.94864 2.74279 6.85721C2.65136 6.76579 2.6 6.64179 2.6 6.5125V4.8875C2.6 4.75821 2.65136 4.63421 2.74279 4.54279C2.83421 4.45136 2.95821 4.4 3.0875 4.4ZM13 4.8875C13 4.75821 12.9486 4.63421 12.8572 4.54279C12.7658 4.45136 12.6418 4.4 12.5125 4.4C12.3832 4.4 12.2592 4.45136 12.1678 4.54279C12.0764 4.63421 12.025 4.75821 12.025 4.8875V6.5125C12.025 6.64179 12.0764 6.76579 12.1678 6.85721C12.2592 6.94864 12.3832 7 12.5125 7C12.6418 7 12.7658 6.94864 12.8572 6.85721C12.9486 6.76579 13 6.64179 13 6.5125V4.8875ZM10.8875 9.925C11.1892 9.925 11.4785 9.80516 11.6918 9.59183C11.9052 9.37851 12.025 9.08918 12.025 8.7875V8.1375C12.025 8.00821 12.0764 7.88421 12.1678 7.79279C12.2592 7.70136 12.3832 7.65 12.5125 7.65C12.6418 7.65 12.7658 7.70136 12.8572 7.79279C12.9486 7.88421 13 8.00821 13 8.1375V8.7875C13 9.06492 12.9454 9.33962 12.8392 9.59592C12.733 9.85222 12.5774 10.0851 12.3813 10.2813C12.1851 10.4774 11.9522 10.633 11.6959 10.7392C11.4396 10.8454 11.1649 10.9 10.8875 10.9H10.2375C10.1082 10.9 9.98421 10.8486 9.89279 10.7572C9.80136 10.6658 9.75 10.5418 9.75 10.4125C9.75 10.2832 9.80136 10.1592 9.89279 10.0678C9.98421 9.97636 10.1082 9.925 10.2375 9.925H10.8875ZM12.025 2.6125C12.025 2.31082 11.9052 2.02149 11.6918 1.80817C11.4785 1.59484 11.1892 1.475 10.8875 1.475H10.2375C10.1082 1.475 9.98421 1.42364 9.89279 1.33221C9.80136 1.24079 9.75 1.11679 9.75 0.9875C9.75 0.858207 9.80136 0.734209 9.89279 0.642785C9.98421 0.551361 10.1082 0.5 10.2375 0.5H10.8875C11.1649 0.5 11.4396 0.554641 11.6959 0.660804C11.9522 0.766968 12.1851 0.922573 12.3813 1.11874C12.5774 1.3149 12.733 1.54778 12.8392 1.80408C12.9454 2.06038 13 2.33508 13 2.6125V3.2625C13 3.39179 12.9486 3.51579 12.8572 3.60721C12.7658 3.69864 12.6418 3.75 12.5125 3.75C12.3832 3.75 12.2592 3.69864 12.1678 3.60721C12.0764 3.51579 12.025 3.39179 12.025 3.2625V2.6125ZM4.7125 9.925C4.41082 9.925 4.12149 9.80516 3.90817 9.59183C3.69484 9.37851 3.575 9.08918 3.575 8.7875V8.1375C3.575 8.00821 3.52364 7.88421 3.43221 7.79279C3.34079 7.70136 3.21679 7.65 3.0875 7.65C2.95821 7.65 2.83421 7.70136 2.74279 7.79279C2.65136 7.88421 2.6 8.00821 2.6 8.1375V8.7875C2.6 9.34777 2.82257 9.88509 3.21874 10.2813C3.61491 10.6774 4.15223 10.9 4.7125 10.9H5.3625C5.49179 10.9 5.61579 10.8486 5.70721 10.7572C5.79864 10.6658 5.85 10.5418 5.85 10.4125C5.85 10.2832 5.79864 10.1592 5.70721 10.0678C5.61579 9.97636 5.49179 9.925 5.3625 9.925H4.7125ZM0 5.2125C6.06348e-05 4.6804 0.200919 4.16792 0.562431 3.77749C0.923942 3.38706 1.41948 3.14743 1.95 3.1065V4.0867C1.67928 4.12577 1.43171 4.26109 1.25264 4.46785C1.07358 4.67461 0.975008 4.93898 0.975 5.2125V9.7625C0.975 10.4952 1.26605 11.1978 1.78412 11.7159C2.30219 12.234 3.00484 12.525 3.7375 12.525H8.2875C8.56102 12.525 8.82539 12.4264 9.03215 12.2474C9.23891 12.0683 9.37422 11.8207 9.4133 11.55H10.3941C10.3532 12.0806 10.1135 12.5763 9.72292 12.9378C9.33235 13.2993 8.81971 13.5001 8.2875 13.5H3.7375C2.74625 13.5 1.79561 13.1062 1.09469 12.4053C0.393771 11.7044 0 10.7537 0 9.7625V5.2125Z" fill="url(#paint0_linear_3453_78794)"/>
<defs>
<linearGradient id="paint0_linear_3453_78794" x1="0.397222" y1="1.73809" x2="12.6152" y2="2.2046" gradientUnits="userSpaceOnUse">
<stop stop-color="#095AD3"/>
<stop offset="1" stop-color="#166FF4"/>
</linearGradient>
</defs>
</svg>
