<svg width="23" height="23" viewBox="0 0 23 23" fill="none" xmlns="http://www.w3.org/2000/svg">
<path d="M8.16264 4.77027C8.16264 6.64382 6.64382 8.16264 4.77027 8.16264C2.89671 8.16264 1.3779 6.64382 1.3779 4.77027C1.3779 2.89671 2.89671 1.3779 4.77027 1.3779C6.64382 1.3779 8.16264 2.89671 8.16264 4.77027Z" stroke="url(#paint0_linear_258_2205)" stroke-width="2.7558" stroke-linecap="round" stroke-linejoin="round"/>
<path d="M21.1725 4.77027C21.1725 6.64382 19.6537 8.16264 17.7802 8.16264C15.9066 8.16264 14.3878 6.64382 14.3878 4.77027C14.3878 2.89671 15.9066 1.3779 17.7802 1.3779C19.6537 1.3779 21.1725 2.89671 21.1725 4.77027Z" stroke="url(#paint1_linear_258_2205)" stroke-width="2.7558" stroke-linecap="round" stroke-linejoin="round"/>
<path d="M8.16264 17.7801C8.16264 19.6536 6.64382 21.1724 4.77027 21.1724C2.89671 21.1724 1.3779 19.6536 1.3779 17.7801C1.3779 15.9065 2.89671 14.3877 4.77027 14.3877C6.64382 14.3877 8.16264 15.9065 8.16264 17.7801Z" stroke="url(#paint2_linear_258_2205)" stroke-width="2.7558" stroke-linecap="round" stroke-linejoin="round"/>
<path d="M21.1725 17.7801C21.1725 19.6536 19.6537 21.1724 17.7802 21.1724C15.9066 21.1724 14.3878 19.6536 14.3878 17.7801C14.3878 15.9065 15.9066 14.3877 17.7802 14.3877C19.6537 14.3877 21.1725 15.9065 21.1725 17.7801Z" stroke="url(#paint3_linear_258_2205)" stroke-width="2.7558" stroke-linecap="round" stroke-linejoin="round"/>
<defs>
<linearGradient id="paint0_linear_258_2205" x1="0.291516" y1="0.908622" x2="9.25811" y2="1.25098" gradientUnits="userSpaceOnUse">
<stop stop-color="#095AD3"/>
<stop offset="1" stop-color="#166FF4"/>
</linearGradient>
<linearGradient id="paint1_linear_258_2205" x1="13.3014" y1="0.908622" x2="22.268" y2="1.25098" gradientUnits="userSpaceOnUse">
<stop stop-color="#095AD3"/>
<stop offset="1" stop-color="#166FF4"/>
</linearGradient>
<linearGradient id="paint2_linear_258_2205" x1="0.291516" y1="13.9184" x2="9.25811" y2="14.2608" gradientUnits="userSpaceOnUse">
<stop stop-color="#095AD3"/>
<stop offset="1" stop-color="#166FF4"/>
</linearGradient>
<linearGradient id="paint3_linear_258_2205" x1="13.3014" y1="13.9184" x2="22.268" y2="14.2608" gradientUnits="userSpaceOnUse">
<stop stop-color="#095AD3"/>
<stop offset="1" stop-color="#166FF4"/>
</linearGradient>
</defs>
</svg>
