<svg width="23" height="24" viewBox="0 0 23 24" fill="none" xmlns="http://www.w3.org/2000/svg">
<path d="M4.77027 10.1217C7.40481 10.1217 9.54053 7.98594 9.54053 5.3514C9.54053 2.71685 7.40481 0.581131 4.77027 0.581131C2.13572 0.581131 0 2.71685 0 5.3514C0 7.98594 2.13572 10.1217 4.77027 10.1217Z" fill="url(#paint0_linear_258_2210)"/>
<path d="M17.7802 10.1217C20.4147 10.1217 22.5504 7.98594 22.5504 5.3514C22.5504 2.71685 20.4147 0.581131 17.7802 0.581131C15.1456 0.581131 13.0099 2.71685 13.0099 5.3514C13.0099 7.98594 15.1456 10.1217 17.7802 10.1217Z" fill="url(#paint1_linear_258_2210)"/>
<path d="M4.77027 23.1315C7.40481 23.1315 9.54053 20.9958 9.54053 18.3612C9.54053 15.7267 7.40481 13.591 4.77027 13.591C2.13572 13.591 0 15.7267 0 18.3612C0 20.9958 2.13572 23.1315 4.77027 23.1315Z" fill="url(#paint2_linear_258_2210)"/>
<path d="M17.7802 23.1315C20.4147 23.1315 22.5504 20.9958 22.5504 18.3612C22.5504 15.7267 20.4147 13.591 17.7802 13.591C15.1456 13.591 13.0099 15.7267 13.0099 18.3612C13.0099 20.9958 15.1456 23.1315 17.7802 23.1315Z" fill="url(#paint3_linear_258_2210)"/>
<defs>
<linearGradient id="paint0_linear_258_2210" x1="0.291516" y1="1.48975" x2="9.25811" y2="1.83211" gradientUnits="userSpaceOnUse">
<stop stop-color="#095AD3"/>
<stop offset="1" stop-color="#166FF4"/>
</linearGradient>
<linearGradient id="paint1_linear_258_2210" x1="13.3014" y1="1.48975" x2="22.268" y2="1.83211" gradientUnits="userSpaceOnUse">
<stop stop-color="#095AD3"/>
<stop offset="1" stop-color="#166FF4"/>
</linearGradient>
<linearGradient id="paint2_linear_258_2210" x1="0.291516" y1="14.4996" x2="9.25811" y2="14.8419" gradientUnits="userSpaceOnUse">
<stop stop-color="#095AD3"/>
<stop offset="1" stop-color="#166FF4"/>
</linearGradient>
<linearGradient id="paint3_linear_258_2210" x1="13.3014" y1="14.4996" x2="22.268" y2="14.8419" gradientUnits="userSpaceOnUse">
<stop stop-color="#095AD3"/>
<stop offset="1" stop-color="#166FF4"/>
</linearGradient>
</defs>
</svg>
