<svg width="10" height="11" viewBox="0 0 10 11" fill="none" xmlns="http://www.w3.org/2000/svg">
<path d="M6.13636 1.83333H3.86364C3.86364 1.52944 3.98336 1.23799 4.19647 1.02311C4.40958 0.808221 4.69862 0.6875 5 0.6875C5.30138 0.6875 5.59042 0.808221 5.80353 1.02311C6.01664 1.23799 6.13636 1.52944 6.13636 1.83333ZM6.81818 1.83333C6.81818 1.3471 6.62662 0.880788 6.28565 0.536971C5.94467 0.193154 5.48221 0 5 0C4.51779 0 4.05533 0.193154 3.71435 0.536971C3.37338 0.880788 3.18182 1.3471 3.18182 1.83333H0.340908C0.250493 1.83333 0.163782 1.86955 0.0998497 1.93402C0.0359173 1.99848 0 2.08592 0 2.17708C0 2.26825 0.0359173 2.35569 0.0998497 2.42015C0.163782 2.48462 0.250493 2.52083 0.340908 2.52083H0.936362L1.48954 9.21388C1.52979 9.70077 1.75003 10.1546 2.10659 10.4855C2.46315 10.8163 2.93 11 3.41454 11H6.58545C7.07 11 7.53685 10.8163 7.89341 10.4855C8.24997 10.1546 8.47021 9.70077 8.51045 9.21388L9.06364 2.52083H9.65909C9.74951 2.52083 9.83622 2.48462 9.90015 2.42015C9.96408 2.35569 10 2.26825 10 2.17708C10 2.08592 9.96408 1.99848 9.90015 1.93402C9.83622 1.86955 9.74951 1.83333 9.65909 1.83333H6.81818ZM7.83091 9.15658C7.80491 9.47165 7.66244 9.76535 7.43175 9.97946C7.20106 10.1936 6.89899 10.3124 6.58545 10.3125H3.41454C3.10101 10.3124 2.79894 10.1936 2.56825 9.97946C2.33756 9.76535 2.19509 9.47165 2.16909 9.15658L1.62 2.52083H8.37955L7.83091 9.15658ZM6.02273 4.125C5.93231 4.125 5.8456 4.16122 5.78167 4.22568C5.71774 4.29015 5.68182 4.37758 5.68182 4.46875V8.36458C5.68182 8.45575 5.71774 8.54319 5.78167 8.60765C5.8456 8.67212 5.93231 8.70833 6.02273 8.70833C6.11314 8.70833 6.19985 8.67212 6.26379 8.60765C6.32772 8.54319 6.36364 8.45575 6.36364 8.36458V4.46875C6.36364 4.37758 6.32772 4.29015 6.26379 4.22568C6.19985 4.16122 6.11314 4.125 6.02273 4.125ZM3.63636 4.46875C3.63636 4.37758 3.67228 4.29015 3.73621 4.22568C3.80015 4.16122 3.88686 4.125 3.97727 4.125C4.06769 4.125 4.1544 4.16122 4.21833 4.22568C4.28226 4.29015 4.31818 4.37758 4.31818 4.46875V8.36458C4.31818 8.45575 4.28226 8.54319 4.21833 8.60765C4.1544 8.67212 4.06769 8.70833 3.97727 8.70833C3.88686 8.70833 3.80015 8.67212 3.73621 8.60765C3.67228 8.54319 3.63636 8.45575 3.63636 8.36458V4.46875Z" fill="#383D44"/>
</svg>
