<svg width="13" height="13" viewBox="0 0 13 13" fill="none" xmlns="http://www.w3.org/2000/svg">
<path d="M7.5941 2.24023H4.86683C4.86683 1.90871 5.0105 1.59077 5.26623 1.35635C5.52196 1.12193 5.86881 0.990234 6.23047 0.990234C6.59213 0.990234 6.93897 1.12193 7.19471 1.35635C7.45044 1.59077 7.5941 1.90871 7.5941 2.24023ZM8.41229 2.24023C8.41229 1.7098 8.18242 1.20109 7.77325 0.826021C7.36408 0.450948 6.80912 0.240234 6.23047 0.240234C5.65181 0.240234 5.09686 0.450948 4.68769 0.826021C4.27852 1.20109 4.04865 1.7098 4.04865 2.24023H0.639559C0.531061 2.24023 0.427008 2.27974 0.350288 2.35007C0.273568 2.4204 0.230469 2.51578 0.230469 2.61523C0.230469 2.71469 0.273568 2.81007 0.350288 2.8804C0.427008 2.95073 0.531061 2.99023 0.639559 2.99023H1.3541L2.01792 10.2917C2.06622 10.8229 2.33051 11.318 2.75838 11.6789C3.18625 12.0399 3.74646 12.2402 4.32792 12.2402H8.13301C8.71447 12.2402 9.27468 12.0399 9.70256 11.6789C10.1304 11.318 10.3947 10.8229 10.443 10.2917L11.1068 2.99023H11.8214C11.9299 2.99023 12.0339 2.95073 12.1106 2.8804C12.1874 2.81007 12.2305 2.71469 12.2305 2.61523C12.2305 2.51578 12.1874 2.4204 12.1106 2.35007C12.0339 2.27974 11.9299 2.24023 11.8214 2.24023H8.41229ZM9.62756 10.2292C9.59637 10.5729 9.4254 10.8933 9.14857 11.1269C8.87174 11.3605 8.50926 11.4902 8.13301 11.4902H4.32792C3.95168 11.4902 3.5892 11.3605 3.31237 11.1269C3.03554 10.8933 2.86457 10.5729 2.83338 10.2292L2.17447 2.99023H10.2859L9.62756 10.2292ZM7.45774 4.74023C7.34924 4.74023 7.24519 4.77974 7.16847 4.85007C7.09175 4.9204 7.04865 5.01578 7.04865 5.11523V9.36523C7.04865 9.46469 7.09175 9.56007 7.16847 9.6304C7.24519 9.70073 7.34924 9.74023 7.45774 9.74023C7.56624 9.74023 7.67029 9.70073 7.74701 9.6304C7.82373 9.56007 7.86683 9.46469 7.86683 9.36523V5.11523C7.86683 5.01578 7.82373 4.9204 7.74701 4.85007C7.67029 4.77974 7.56624 4.74023 7.45774 4.74023ZM4.59411 5.11523C4.59411 5.01578 4.63721 4.9204 4.71392 4.85007C4.79064 4.77974 4.8947 4.74023 5.0032 4.74023C5.11169 4.74023 5.21575 4.77974 5.29247 4.85007C5.36919 4.9204 5.41229 5.01578 5.41229 5.11523V9.36523C5.41229 9.46469 5.36919 9.56007 5.29247 9.6304C5.21575 9.70073 5.11169 9.74023 5.0032 9.74023C4.8947 9.74023 4.79064 9.70073 4.71392 9.6304C4.63721 9.56007 4.59411 9.46469 4.59411 9.36523V5.11523Z" fill="black"/>
</svg>
