<svg width="26" height="26" viewBox="0 0 26 26" fill="none" xmlns="http://www.w3.org/2000/svg">
<path fill-rule="evenodd" clip-rule="evenodd" d="M2.953 2.01483C1.59229 3.41322 1.59229 5.66547 1.59229 10.1688V14.9455C1.59229 19.4488 1.59229 21.7011 2.953 23.0995C4.31255 24.4991 6.50223 24.4991 10.8804 24.4991H13.2025C17.5807 24.4991 19.7704 24.4991 21.1299 23.0995C22.4906 21.7011 22.4906 19.4488 22.4906 14.9455V10.1688C22.4906 5.66547 22.4906 3.41322 21.1299 2.01483C19.7704 0.615234 17.5807 0.615234 13.2025 0.615234H10.8804C6.50223 0.615234 4.31255 0.615234 2.953 2.01483ZM7.39738 9.27312C7.16644 9.27312 6.94496 9.36748 6.78166 9.53545C6.61836 9.70341 6.52662 9.93122 6.52662 10.1688C6.52662 10.4063 6.61836 10.6341 6.78166 10.8021C6.94496 10.97 7.16644 11.0644 7.39738 11.0644H16.6855C16.9165 11.0644 17.138 10.97 17.3013 10.8021C17.4646 10.6341 17.5563 10.4063 17.5563 10.1688C17.5563 9.93122 17.4646 9.70341 17.3013 9.53545C17.138 9.36748 16.9165 9.27312 16.6855 9.27312H7.39738ZM7.39738 14.0499C7.16644 14.0499 6.94496 14.1442 6.78166 14.3122C6.61836 14.4802 6.52662 14.708 6.52662 14.9455C6.52662 15.1831 6.61836 15.4109 6.78166 15.5788C6.94496 15.7468 7.16644 15.8412 7.39738 15.8412H13.2025C13.4334 15.8412 13.6549 15.7468 13.8182 15.5788C13.9815 15.4109 14.0732 15.1831 14.0732 14.9455C14.0732 14.708 13.9815 14.4802 13.8182 14.3122C13.6549 14.1442 13.4334 14.0499 13.2025 14.0499H7.39738Z" fill="url(#paint0_linear_3570_20695)"/>
<defs>
<linearGradient id="paint0_linear_3570_20695" x1="2.23085" y1="2.88988" x2="21.8787" y2="3.5463" gradientUnits="userSpaceOnUse">
<stop stop-color="#095AD3"/>
<stop offset="1" stop-color="#166FF4"/>
</linearGradient>
</defs>
</svg>
