<svg width="13" height="14" viewBox="0 0 13 14" fill="none" xmlns="http://www.w3.org/2000/svg">
<path d="M9.63056 3.92383H4.29402C3.53728 3.92383 2.92383 4.53728 2.92383 5.29402V10.6306C2.92383 11.3873 3.53728 12.0008 4.29402 12.0008H9.63056C10.3873 12.0008 11.0008 11.3873 11.0008 10.6306V5.29402C11.0008 4.53728 10.3873 3.92383 9.63056 3.92383Z" stroke="#383D44" stroke-width="0.8" stroke-linejoin="round"/>
<path d="M9.0649 3.92308L9.07692 3.34615C9.07591 2.98944 8.93376 2.64763 8.68152 2.3954C8.42929 2.14317 8.08748 2.00101 7.73077 2H2.53846C2.13081 2.0012 1.74019 2.16368 1.45194 2.45194C1.16368 2.74019 1.0012 3.13081 1 3.53846V8.73077C1.00101 9.08748 1.14317 9.42929 1.3954 9.68152C1.64763 9.93376 1.98944 10.0759 2.34615 10.0769H2.92308M6.96154 6.03846V9.88462M8.88462 7.96154H5.03846" stroke="#383D44" stroke-width="0.8" stroke-linecap="round" stroke-linejoin="round"/>
</svg>
