<svg width="8" height="8" viewBox="0 0 8 8" fill="none" xmlns="http://www.w3.org/2000/svg">
<path fill-rule="evenodd" clip-rule="evenodd" d="M0.969968 1.98017C0.947792 2.09675 0.947792 2.23677 0.947792 2.51618V4.7496C0.947792 5.94423 0.947792 6.54171 1.31908 6.91268C1.69005 7.28396 2.28752 7.28396 3.48216 7.28396H4.74934C5.94398 7.28396 6.54146 7.28396 6.91243 6.91268C7.28371 6.54171 7.28371 5.94423 7.28371 4.7496V4.05201C7.28371 3.2182 7.28371 2.80098 7.03978 2.53012C7.01741 2.50512 6.99372 2.48133 6.96882 2.45884C6.69796 2.21523 6.28074 2.21523 5.44693 2.21523H5.32845C4.96318 2.21523 4.78039 2.21523 4.60995 2.16676C4.51642 2.14002 4.42628 2.1026 4.34131 2.05525C4.18671 1.96939 4.05746 1.83982 3.79896 1.58164L3.62472 1.4074C3.53792 1.3206 3.49483 1.27751 3.44921 1.2395C3.25301 1.07687 3.01233 0.977171 2.7586 0.953429C2.69967 0.948044 2.63822 0.948044 2.51593 0.948044C2.2362 0.948044 2.09649 0.948044 1.97991 0.97022C1.72959 1.01749 1.49933 1.13912 1.31917 1.31922C1.13901 1.49932 1.01732 1.72986 0.969968 1.98017ZM5.47227 1.26484C5.58822 1.26484 5.64651 1.26484 5.69498 1.27118C6.01748 1.31553 6.27408 1.56991 6.33301 1.89843C6.28477 1.88751 6.23603 1.87895 6.18696 1.87277C5.98421 1.84616 5.72824 1.84616 5.41081 1.84616H5.305C5.00658 1.84616 4.89317 1.84458 4.79021 1.81416C4.73028 1.79639 4.67264 1.77161 4.61851 1.74035C4.52474 1.6865 4.44364 1.60476 4.23265 1.38617L4.11575 1.26484H5.47291H5.47227ZM4.43255 3.24481C4.36953 3.24481 4.3091 3.26985 4.26454 3.31441C4.21998 3.35896 4.19495 3.4194 4.19495 3.48241C4.19495 3.54543 4.21998 3.60586 4.26454 3.65042C4.3091 3.69498 4.36953 3.72001 4.43255 3.72001H6.01653C6.07954 3.72001 6.13998 3.69498 6.18453 3.65042C6.22909 3.60586 6.25413 3.54543 6.25413 3.48241C6.25413 3.4194 6.22909 3.35896 6.18453 3.31441C6.13998 3.26985 6.07954 3.24481 6.01653 3.24481H4.43255Z" fill="url(#paint0_linear_428_17479)"/>
<defs>
<linearGradient id="paint0_linear_428_17479" x1="1.14139" y1="1.55146" x2="7.09615" y2="1.77883" gradientUnits="userSpaceOnUse">
<stop stop-color="#095AD3"/>
<stop offset="1" stop-color="#166FF4"/>
</linearGradient>
</defs>
</svg>
