<svg width="18" height="18" viewBox="0 0 18 18" fill="none" xmlns="http://www.w3.org/2000/svg">
<path d="M8.89548 12.1508C10.4184 12.1508 11.6529 10.8526 11.6529 9.25119C11.6529 7.64977 10.4184 6.35156 8.89548 6.35156C7.3726 6.35156 6.13806 7.64977 6.13806 9.25119C6.13806 10.8526 7.3726 12.1508 8.89548 12.1508Z" stroke="#A3A7AF" stroke-width="1.2"/>
<path d="M10.9626 7.07541L13.7201 4.17578M4.06909 14.3245L6.82651 11.4249M6.82651 7.07541L4.06909 4.17578M13.7201 14.3245L10.9626 11.4249" stroke="#A3A7AF" stroke-width="1.2"/>
<path d="M7.11095 2.24743C8.27963 1.91703 9.51061 1.91753 10.6791 2.24888C14.3568 3.28549 16.5386 7.26017 15.5535 11.1268C14.5677 14.9942 10.7887 17.2885 7.11095 16.2526C3.43324 15.216 1.25144 11.2421 2.23652 7.3747C2.54776 6.14485 3.16278 5.02344 4.01919 4.12421" stroke="#A3A7AF" stroke-width="1.2" stroke-linecap="round"/>
</svg>
