<svg width="19" height="18" viewBox="0 0 19 18" fill="none" xmlns="http://www.w3.org/2000/svg">
<path d="M0 16.2317L3.44526 17.3145L4.66759 16.1157L2.35603 13.8486L0 16.2317ZM4.29658 8.11525C4.11506 8.27237 3.98347 8.47739 3.9175 8.70584C3.85154 8.9343 3.85398 9.17655 3.92454 9.40368L4.3745 10.8521L2.61843 12.5747L5.93646 15.8289L7.69012 14.109L9.16381 14.5513C9.63722 14.6934 10.1517 14.551 10.4792 14.1868L11.705 12.7786L5.7282 6.91677L4.29658 8.11525ZM18.2028 2.68084L16.0236 0.543593C15.3171 -0.14932 14.1831 -0.184151 13.4335 0.464123L6.5702 6.21168L12.4239 11.9532L18.2838 5.22152C18.9452 4.48633 18.9096 3.37409 18.2028 2.68084Z" fill="#A3A7AF"/>
</svg>
