<svg width="17" height="17" viewBox="0 0 17 17" fill="none" xmlns="http://www.w3.org/2000/svg">
<path d="M1.25628 2.07751C1.09219 2.23379 1 2.44575 1 2.66677V4.33343C1 4.55445 1.09219 4.76641 1.25628 4.92269C1.42038 5.07897 1.64294 5.16677 1.875 5.16677H14.125C14.3571 5.16677 14.5796 5.07897 14.7437 4.92269C14.9078 4.76641 15 4.55445 15 4.33343V2.66677C15 2.44575 14.9078 2.23379 14.7437 2.07751C14.5796 1.92123 14.3571 1.83344 14.125 1.83344H1.875C1.64294 1.83344 1.42038 1.92123 1.25628 2.07751Z" fill="url(#paint0_linear_422_2017)"/>
<path d="M1.25628 8.74418C1.09219 8.90046 1 9.11242 1 9.33344V14.3334C1 14.5544 1.09219 14.7664 1.25628 14.9227C1.42038 15.079 1.64294 15.1668 1.875 15.1668H7.125C7.35706 15.1668 7.57962 15.079 7.74372 14.9227C7.90781 14.7664 8 14.5544 8 14.3334V9.33344C8 9.11242 7.90781 8.90046 7.74372 8.74418C7.57962 8.5879 7.35706 8.5001 7.125 8.5001H1.875C1.64294 8.5001 1.42038 8.5879 1.25628 8.74418Z" fill="url(#paint1_linear_422_2017)"/>
<path d="M1.25628 2.07751C1.09219 2.23379 1 2.44575 1 2.66677V4.33343C1 4.55445 1.09219 4.76641 1.25628 4.92269C1.42038 5.07897 1.64294 5.16677 1.875 5.16677H14.125C14.3571 5.16677 14.5796 5.07897 14.7437 4.92269C14.9078 4.76641 15 4.55445 15 4.33343V2.66677C15 2.44575 14.9078 2.23379 14.7437 2.07751C14.5796 1.92123 14.3571 1.83344 14.125 1.83344H1.875C1.64294 1.83344 1.42038 1.92123 1.25628 2.07751Z" stroke="url(#paint2_linear_422_2017)" stroke-width="1.75" stroke-linecap="round" stroke-linejoin="round"/>
<path d="M1.25628 8.74418C1.09219 8.90046 1 9.11242 1 9.33344V14.3334C1 14.5544 1.09219 14.7664 1.25628 14.9227C1.42038 15.079 1.64294 15.1668 1.875 15.1668H7.125C7.35706 15.1668 7.57962 15.079 7.74372 14.9227C7.90781 14.7664 8 14.5544 8 14.3334V9.33344C8 9.11242 7.90781 8.90046 7.74372 8.74418C7.57962 8.5879 7.35706 8.5001 7.125 8.5001H1.875C1.64294 8.5001 1.42038 8.5879 1.25628 8.74418Z" stroke="url(#paint3_linear_422_2017)" stroke-width="1.75" stroke-linecap="round" stroke-linejoin="round"/>
<path d="M11 8.63731C11 8.4163 11.0922 8.20433 11.2563 8.04805C11.4204 7.89177 11.6429 7.80398 11.875 7.80398L15 7.83344C15.2321 7.83344 15.414 7.89177 15.5781 8.04805C15.7422 8.20433 15.7188 8.4163 15.7188 8.63731V10.1727C15.5554 10.1493 14.1698 10.1372 14 10.1372C12.7268 10.1372 11.6124 10.817 11 11.8334V8.63731Z" fill="url(#paint4_linear_422_2017)"/>
<path fill-rule="evenodd" clip-rule="evenodd" d="M14.0001 16.1666C15.3808 16.1666 16.5001 15.0473 16.5001 13.6666C16.5001 12.2859 15.3808 11.1666 14.0001 11.1666C12.6194 11.1666 11.5001 12.2859 11.5001 13.6666C11.5001 15.0473 12.6194 16.1666 14.0001 16.1666ZM13.8488 15.3945C13.9323 15.4781 14.0678 15.4781 14.1514 15.3945L15.4351 14.1107C15.5187 14.0272 15.5187 13.8917 15.4351 13.8081C15.3516 13.7246 15.2161 13.7246 15.1326 13.8081L14.214 14.7267L14.214 12.2477C14.214 12.1295 14.1182 12.0337 14.0001 12.0337C13.8819 12.0337 13.7861 12.1295 13.7861 12.2477L13.7861 14.7267L12.8676 13.8081C12.784 13.7246 12.6485 13.7246 12.565 13.8081C12.4814 13.8917 12.4814 14.0272 12.565 14.1107L13.8488 15.3945Z" fill="url(#paint5_linear_422_2017)"/>
<defs>
<linearGradient id="paint0_linear_422_2017" x1="1.42778" y1="3.10328" x2="14.5836" y2="3.6307" gradientUnits="userSpaceOnUse">
<stop stop-color="#A045FB"/>
<stop offset="0.875" stop-color="#4822E4"/>
</linearGradient>
<linearGradient id="paint1_linear_422_2017" x1="1.42778" y1="3.10328" x2="14.5836" y2="3.6307" gradientUnits="userSpaceOnUse">
<stop stop-color="#A045FB"/>
<stop offset="0.875" stop-color="#4822E4"/>
</linearGradient>
<linearGradient id="paint2_linear_422_2017" x1="1.42778" y1="3.10328" x2="14.5836" y2="3.6307" gradientUnits="userSpaceOnUse">
<stop stop-color="#A045FB"/>
<stop offset="0.875" stop-color="#4822E4"/>
</linearGradient>
<linearGradient id="paint3_linear_422_2017" x1="1.42778" y1="3.10328" x2="14.5836" y2="3.6307" gradientUnits="userSpaceOnUse">
<stop stop-color="#A045FB"/>
<stop offset="0.875" stop-color="#4822E4"/>
</linearGradient>
<linearGradient id="paint4_linear_422_2017" x1="11.1681" y1="8.60034" x2="16.3415" y2="8.73026" gradientUnits="userSpaceOnUse">
<stop stop-color="#A045FB"/>
<stop offset="0.875" stop-color="#4822E4"/>
</linearGradient>
<linearGradient id="paint5_linear_422_2017" x1="11.1681" y1="8.60034" x2="16.3415" y2="8.73026" gradientUnits="userSpaceOnUse">
<stop stop-color="#A045FB"/>
<stop offset="0.875" stop-color="#4822E4"/>
</linearGradient>
</defs>
</svg>
