<svg width="23" height="22" viewBox="0 0 23 22" fill="none" xmlns="http://www.w3.org/2000/svg">
<path fill-rule="evenodd" clip-rule="evenodd" d="M15.3831 9.5501C15.228 9.38216 15.0178 9.28783 14.7986 9.28783C14.5794 9.28783 14.3692 9.38216 14.2141 9.5501L12.3172 11.6067V1.81378C12.3172 1.57594 12.23 1.34784 12.0749 1.17966C11.9198 1.01148 11.7094 0.916992 11.49 0.916992C11.2707 0.916992 11.0603 1.01148 10.9052 1.17966C10.7501 1.34784 10.6629 1.57594 10.6629 1.81378V11.6067L8.76601 9.5501C8.60922 9.39169 8.40183 9.30545 8.18755 9.30955C7.97326 9.31365 7.76881 9.40776 7.61726 9.57207C7.46572 9.73638 7.37891 9.95805 7.37513 10.1904C7.37135 10.4227 7.45089 10.6476 7.597 10.8176L10.9055 14.4047C11.0606 14.5727 11.2709 14.667 11.49 14.667C11.7092 14.667 11.9195 14.5727 12.0746 14.4047L15.3831 10.8176C15.538 10.6494 15.625 10.4215 15.625 10.1838C15.625 9.94618 15.538 9.71825 15.3831 9.5501Z" fill="url(#paint0_linear_2218_16450)"/>
<path d="M18.4156 11.917C17.8766 11.917 17.4049 12.231 17.0235 12.5942L13.4142 16.0317C13.1628 16.2711 12.8644 16.461 12.5359 16.5906C12.2075 16.7201 11.8555 16.7868 11.5 16.7868C11.1445 16.7868 10.7925 16.7201 10.4641 16.5906C10.1356 16.461 9.8372 16.2711 9.58583 16.0317L5.97645 12.5942C5.59506 12.231 5.12344 11.917 4.58444 11.917H1.875C1.875 14.3481 2.88906 16.6797 4.6941 18.3988C6.49914 20.1179 8.94729 21.0837 11.5 21.0837C14.0527 21.0837 16.5009 20.1179 18.3059 18.3988C20.1109 16.6797 21.125 14.3481 21.125 11.917H18.4156Z" fill="url(#paint1_linear_2218_16450)"/>
<defs>
<linearGradient id="paint0_linear_2218_16450" x1="15.625" y1="7.79197" x2="7.375" y2="7.79197" gradientUnits="userSpaceOnUse">
<stop stop-color="#095AD3"/>
<stop offset="1" stop-color="#166FF4"/>
</linearGradient>
<linearGradient id="paint1_linear_2218_16450" x1="21.125" y1="16.5003" x2="1.875" y2="16.5003" gradientUnits="userSpaceOnUse">
<stop stop-color="#095AD3"/>
<stop offset="1" stop-color="#166FF4"/>
</linearGradient>
</defs>
</svg>
