<svg width="14" height="16" viewBox="0 0 14 16" fill="none" xmlns="http://www.w3.org/2000/svg">
<path fill-rule="evenodd" clip-rule="evenodd" d="M0 6.5C0 3.67175 0 2.25725 0.854583 1.379C1.70844 0.5 3.08365 0.5 5.83333 0.5H7.29167C10.0414 0.5 11.4166 0.5 12.2704 1.379C13.125 2.25725 13.125 3.67175 13.125 6.5V9.5C13.125 9.63634 13.125 9.76939 13.1249 9.89925C12.6393 9.64427 12.0865 9.5 11.5 9.5C9.567 9.5 8 11.067 8 13C8 13.9732 8.39721 14.8536 9.03835 15.488C8.52678 15.5 7.94843 15.5 7.29167 15.5H5.83333C3.08365 15.5 1.70844 15.5 0.854583 14.621C0 13.7427 0 12.3283 0 9.5V6.5ZM3.25913 6.10225C3.36169 5.99676 3.50079 5.9375 3.64583 5.9375H9.47917C9.62421 5.9375 9.76331 5.99676 9.86587 6.10225C9.96843 6.20774 10.026 6.35082 10.026 6.5C10.026 6.64918 9.96843 6.79226 9.86587 6.89775C9.76331 7.00324 9.62421 7.0625 9.47917 7.0625H3.64583C3.50079 7.0625 3.36169 7.00324 3.25913 6.89775C3.15658 6.79226 3.09896 6.64918 3.09896 6.5C3.09896 6.35082 3.15658 6.20774 3.25913 6.10225ZM3.25913 9.10225C3.36169 8.99676 3.50079 8.9375 3.64583 8.9375H7.29167C7.43671 8.9375 7.57581 8.99676 7.67837 9.10225C7.78092 9.20774 7.83854 9.35082 7.83854 9.5C7.83854 9.64919 7.78092 9.79226 7.67837 9.89775C7.57581 10.0032 7.43671 10.0625 7.29167 10.0625H3.64583C3.50079 10.0625 3.36169 10.0032 3.25913 9.89775C3.15658 9.79226 3.09896 9.64919 3.09896 9.5C3.09896 9.35082 3.15658 9.20774 3.25913 9.10225Z" fill="url(#paint0_linear_422_2006)"/>
<path fill-rule="evenodd" clip-rule="evenodd" d="M11.5 15.5C12.8807 15.5 14 14.3807 14 13C14 11.6193 12.8807 10.5 11.5 10.5C10.1193 10.5 9 11.6193 9 13C9 14.3807 10.1193 15.5 11.5 15.5ZM11.3487 14.7279C11.4323 14.8114 11.5677 14.8114 11.6513 14.7279L12.9351 13.4441C13.0186 13.3605 13.0186 13.2251 12.9351 13.1415C12.8515 13.0579 12.716 13.0579 12.6325 13.1415L11.714 14.06L11.714 11.5811C11.714 11.4629 11.6182 11.3671 11.5 11.3671C11.3818 11.3671 11.286 11.4629 11.286 11.5811V14.06L10.3675 13.1415C10.2839 13.0579 10.1485 13.0579 10.0649 13.1415C9.98135 13.2251 9.98135 13.3605 10.0649 13.4441L11.3487 14.7279Z" fill="url(#paint1_linear_422_2006)"/>
<defs>
<linearGradient id="paint0_linear_422_2006" x1="0.427778" y1="1.92857" x2="13.588" y2="2.39755" gradientUnits="userSpaceOnUse">
<stop stop-color="#095AD3"/>
<stop offset="1" stop-color="#166FF4"/>
</linearGradient>
<linearGradient id="paint1_linear_422_2006" x1="0.427778" y1="1.92857" x2="13.588" y2="2.39755" gradientUnits="userSpaceOnUse">
<stop stop-color="#095AD3"/>
<stop offset="1" stop-color="#166FF4"/>
</linearGradient>
</defs>
</svg>
