<svg width="15" height="12" viewBox="0 0 15 12" fill="none" xmlns="http://www.w3.org/2000/svg">
<path d="M13.9484 6.83972L2.29372 6.83972C1.93113 6.83972 1.64624 6.55271 1.64624 6.18744C1.64624 5.82216 1.93113 5.53516 2.29372 5.53516L13.9484 5.53516C14.311 5.53516 14.5959 5.82216 14.5959 6.18744C14.5959 6.55271 14.311 6.83972 13.9484 6.83972Z" fill="#A3A7AF"/>
<path d="M5.52996 11.4052C5.44505 11.4063 5.36085 11.3894 5.28279 11.3557C5.20473 11.322 5.13454 11.2722 5.07673 11.2095L0.544343 6.64358C0.285349 6.38267 0.285349 5.97825 0.544343 5.71734L5.07673 1.16443C5.33572 0.903522 5.73716 0.903522 5.99615 1.16443C6.25515 1.42535 6.25515 1.82976 5.99615 2.09067L1.91701 6.20003L5.99615 10.3094C6.25515 10.5703 6.25515 10.9747 5.99615 11.2356C5.86666 11.3661 5.69831 11.4313 5.54291 11.4313L5.52996 11.4052Z" fill="#A3A7AF"/>
</svg>
