<svg width="63" height="63" viewBox="0 0 63 63" fill="none" xmlns="http://www.w3.org/2000/svg">
<path d="M31.5004 5.25C32.1966 5.25 32.8643 5.52656 33.3565 6.01884C33.8488 6.51113 34.1254 7.17881 34.1254 7.875V15.75C34.1254 16.4462 33.8488 17.1139 33.3565 17.6062C32.8643 18.0984 32.1966 18.375 31.5004 18.375C30.8042 18.375 30.1365 18.0984 29.6442 17.6062C29.152 17.1139 28.8754 16.4462 28.8754 15.75V7.875C28.8754 7.17881 29.152 6.51113 29.6442 6.01884C30.1365 5.52656 30.8042 5.25 31.5004 5.25ZM31.5004 44.625C32.1966 44.625 32.8643 44.9016 33.3565 45.3938C33.8488 45.8861 34.1254 46.5538 34.1254 47.25V55.125C34.1254 55.8212 33.8488 56.4889 33.3565 56.9812C32.8643 57.4734 32.1966 57.75 31.5004 57.75C30.8042 57.75 30.1365 57.4734 29.6442 56.9812C29.152 56.4889 28.8754 55.8212 28.8754 55.125V47.25C28.8754 46.5538 29.152 45.8861 29.6442 45.3938C30.1365 44.9016 30.8042 44.625 31.5004 44.625ZM54.2329 18.375C54.581 18.9779 54.6753 19.6944 54.4951 20.3668C54.315 21.0393 53.875 21.6126 53.2721 21.9608L46.4524 25.8983C46.1537 26.0733 45.8234 26.1876 45.4804 26.2345C45.1374 26.2814 44.7885 26.26 44.4539 26.1715C44.1192 26.083 43.8053 25.9292 43.5303 25.7189C43.2553 25.5086 43.0246 25.246 42.8515 24.9462C42.6784 24.6464 42.5663 24.3153 42.5217 23.9721C42.4771 23.6288 42.5008 23.28 42.5915 22.9459C42.6822 22.6118 42.8381 22.299 43.0502 22.0254C43.2623 21.7518 43.5264 21.5229 43.8274 21.3517L50.6471 17.4142C51.2501 17.0662 51.9665 16.9718 52.639 17.152C53.3115 17.3322 53.8848 17.7721 54.2329 18.375ZM20.1341 38.0625C20.3064 38.3612 20.4181 38.6909 20.4629 39.0327C20.5077 39.3746 20.4847 39.722 20.3953 40.0549C20.3058 40.3879 20.1516 40.7 19.9415 40.9734C19.7314 41.2468 19.4695 41.4761 19.1708 41.6483L12.351 45.5857C12.0524 45.7608 11.722 45.8751 11.379 45.922C11.0361 45.9689 10.6872 45.9475 10.3525 45.859C10.0178 45.7705 9.70392 45.6167 9.42892 45.4064C9.15392 45.1961 8.92323 44.9335 8.75014 44.6337C8.57704 44.3339 8.46496 44.0029 8.42033 43.6596C8.37571 43.3163 8.39944 42.9675 8.49014 42.6334C8.58084 42.2993 8.73674 41.9865 8.94884 41.7129C9.16094 41.4393 9.42507 41.2104 9.72602 41.0392L16.5458 37.1017C17.1487 36.7537 17.8652 36.6593 18.5376 36.8395C19.2101 37.0197 19.786 37.4596 20.1341 38.0625ZM54.2329 44.625C53.8848 45.2279 53.3115 45.6678 52.639 45.848C51.9665 46.0282 51.2501 45.9338 50.6471 45.5857L43.8274 41.6483C43.2294 41.2977 42.7943 40.7248 42.6172 40.0547C42.44 39.3845 42.5351 38.6715 42.8817 38.0712C43.2283 37.4709 43.7982 37.032 44.4672 36.8504C45.1362 36.6688 45.8498 36.7591 46.4524 37.1017L53.2721 41.0392C53.875 41.3874 54.315 41.9607 54.4951 42.6332C54.6753 43.3056 54.581 44.0221 54.2329 44.625ZM20.1341 24.9375C19.9618 25.2364 19.7322 25.4983 19.4585 25.7084C19.1848 25.9185 18.8724 26.0725 18.5391 26.1617C18.2058 26.251 17.8583 26.2736 17.5162 26.2284C17.1742 26.1832 16.8444 26.071 16.5458 25.8983L9.72602 21.9608C9.42507 21.7896 9.16094 21.5607 8.94884 21.2871C8.73674 21.0135 8.58084 20.7007 8.49014 20.3666C8.39944 20.0325 8.37571 19.6837 8.42033 19.3404C8.46496 18.9971 8.57704 18.6661 8.75014 18.3663C8.92323 18.0665 9.15392 17.8039 9.42892 17.5936C9.70392 17.3833 10.0178 17.2295 10.3525 17.141C10.6872 17.0525 11.0361 17.0311 11.379 17.078C11.722 17.1249 12.0524 17.2392 12.351 17.4142L19.1708 21.3517C19.4695 21.5239 19.7314 21.7532 19.9415 22.0266C20.1516 22.3 20.3058 22.6121 20.3953 22.9451C20.4847 23.278 20.5077 23.6254 20.4629 23.9673C20.4181 24.3091 20.3064 24.6388 20.1341 24.9375Z" fill="url(#paint0_linear_764_9876)"/>
<defs>
<linearGradient id="paint0_linear_764_9876" x1="9.80968" y1="10.25" x2="53.2316" y2="11.7085" gradientUnits="userSpaceOnUse">
<stop stop-color="#095AD3"/>
<stop offset="1" stop-color="#166FF4"/>
</linearGradient>
</defs>
</svg>
