<svg width="100" height="41" viewBox="0 0 100 41" fill="none" xmlns="http://www.w3.org/2000/svg">
<path fill-rule="evenodd" clip-rule="evenodd" d="M3.58828 9.73438C1.60654 9.73438 1.98199e-05 11.3409 1.98199e-05 13.3226V27.6639L0 27.676C0 29.6577 1.60652 31.2643 3.58827 31.2643H14.3531C16.3348 31.2643 17.9413 29.6577 17.9413 27.676C17.9413 25.6947 16.3354 24.0884 14.3542 24.0877V15.9414C14.3542 14.4953 13.1819 13.323 11.7358 13.323H7.17771V21.4693C7.17771 22.9154 8.35004 24.0878 9.79617 24.0878H14.3537V27.676H3.58891V13.323H7.17654V13.3226C7.17654 11.3409 5.57002 9.73438 3.58828 9.73438Z" fill="url(#paint0_linear_2240_34187)"/>
<path d="M29.4721 17.9116H32.6993V27.8221L31.2 28.0254C30.6749 28.0254 30.2513 27.8729 29.9295 27.568C29.6245 27.2461 29.4721 26.8311 29.4721 26.3228V17.9116ZM31.2 28.0254V25.3826H39.2809C39.3825 25.5181 39.4672 25.696 39.535 25.9163C39.6197 26.1365 39.6621 26.3821 39.6621 26.6532C39.6621 27.1106 39.5519 27.4579 39.3317 27.6951C39.1284 27.9153 38.8489 28.0254 38.4931 28.0254H31.2ZM32.6993 21.5201H29.4721V12.5752C29.6245 12.5414 29.8363 12.499 30.1074 12.4482C30.3953 12.3974 30.6833 12.3719 30.9713 12.3719C31.5812 12.3719 32.0217 12.4821 32.2927 12.7023C32.5638 12.9056 32.6993 13.2952 32.6993 13.8712V21.5201ZM53.5639 21.9775C53.5639 23.2819 53.3098 24.417 52.8016 25.3826C52.2934 26.3313 51.5734 27.0682 50.6416 27.5934C49.7268 28.1016 48.6426 28.3558 47.3889 28.3558C46.1353 28.3558 45.0426 28.1016 44.1109 27.5934C43.1791 27.0682 42.4506 26.3313 41.9255 25.3826C41.4172 24.4339 41.1631 23.2989 41.1631 21.9775C41.1631 20.673 41.4257 19.5464 41.9509 18.5978C42.4761 17.6491 43.2045 16.9206 44.1363 16.4124C45.068 15.8872 46.1522 15.6246 47.3889 15.6246C48.6256 15.6246 49.7014 15.8872 50.6162 16.4124C51.548 16.9206 52.2679 17.6575 52.7762 18.6232C53.3013 19.5719 53.5639 20.69 53.5639 21.9775ZM47.3889 18.1149C46.4572 18.1149 45.7203 18.4538 45.1781 19.1314C44.653 19.809 44.3904 20.7577 44.3904 21.9775C44.3904 23.2311 44.653 24.1967 45.1781 24.8744C45.7033 25.5351 46.4402 25.8654 47.3889 25.8654C48.3207 25.8654 49.0492 25.5266 49.5743 24.849C50.0995 24.1713 50.3621 23.2142 50.3621 21.9775C50.3621 20.7747 50.0995 19.8344 49.5743 19.1568C49.0492 18.4622 48.3207 18.1149 47.3889 18.1149ZM61.2213 27.568C60.2218 27.568 59.2985 27.3817 58.4515 27.009C57.6044 26.6193 56.9268 25.984 56.4185 25.1031C55.9103 24.2222 55.6562 23.0617 55.6562 21.6217C55.6562 20.3003 55.9103 19.1992 56.4185 18.3182C56.9437 17.4204 57.6722 16.7512 58.6039 16.3107C59.5526 15.8533 60.6369 15.6246 61.8566 15.6246C62.7206 15.6246 63.5168 15.7347 64.2453 15.955C64.9907 16.1752 65.5836 16.4293 66.0241 16.7173C66.3121 16.9037 66.5408 17.1324 66.7102 17.4034C66.8965 17.6575 66.9897 17.9709 66.9897 18.3436V26.272H63.9403V18.6232C63.7201 18.4876 63.4491 18.3691 63.1272 18.2674C62.8053 18.1658 62.4072 18.1149 61.9328 18.1149C61.0011 18.1149 60.2387 18.4029 59.6458 18.9789C59.0698 19.5549 58.7818 20.4359 58.7818 21.6217C58.7818 22.9262 59.0613 23.841 59.6204 24.3662C60.1964 24.8913 60.8994 25.1539 61.7295 25.1539C62.3733 25.1539 62.89 25.0438 63.2796 24.8236C63.6862 24.6033 64.025 24.3662 64.2961 24.112L64.3978 26.6532C64.0928 26.8904 63.6693 27.1021 63.1272 27.2885C62.602 27.4748 61.9667 27.568 61.2213 27.568ZM63.9912 28.0762V25.5859H66.9897V28.1779C66.9897 29.3299 66.7271 30.2616 66.202 30.9731C65.6768 31.7016 64.9568 32.2352 64.042 32.5741C63.1441 32.9129 62.1361 33.0823 61.018 33.0823C60.1371 33.0823 59.3663 32.9976 58.7056 32.8282C58.0618 32.6588 57.5875 32.4809 57.2825 32.2945C56.7235 31.9557 56.444 31.4898 56.444 30.8969C56.444 30.592 56.5117 30.3209 56.6473 30.0837C56.7828 29.8466 56.9437 29.6687 57.1301 29.5501C57.5536 29.8212 58.0788 30.0583 58.7056 30.2616C59.3493 30.4649 60.027 30.5666 60.7385 30.5666C61.755 30.5666 62.5512 30.3633 63.1272 29.9567C63.7032 29.567 63.9912 28.9402 63.9912 28.0762ZM74.9385 25.9925C75.4468 25.9925 75.9042 25.9417 76.3108 25.84C76.7174 25.7384 77.0138 25.6283 77.2002 25.5097V22.6128L74.6844 22.8669C73.9899 22.9177 73.4562 23.0702 73.0835 23.3243C72.7278 23.5615 72.5499 23.9172 72.5499 24.3916C72.5499 24.8829 72.7447 25.2725 73.1343 25.5605C73.524 25.8485 74.1254 25.9925 74.9385 25.9925ZM74.8115 15.6246C76.4717 15.6246 77.7931 15.9804 78.7757 16.6919C79.7583 17.3865 80.2495 18.4876 80.2495 19.9954V25.84C80.2495 26.2466 80.1479 26.5685 79.9446 26.8057C79.7583 27.0428 79.5126 27.2546 79.2077 27.4409C78.7333 27.712 78.1319 27.9322 77.4035 28.1016C76.675 28.288 75.8534 28.3812 74.9385 28.3812C73.2445 28.3812 71.9146 28.0593 70.9489 27.4155C69.9833 26.7548 69.5005 25.7807 69.5005 24.4932C69.5005 23.3582 69.8563 22.4942 70.5678 21.9012C71.2962 21.2914 72.3466 20.9187 73.7188 20.7831L77.1748 20.4274V19.97C77.1748 19.2923 76.9376 18.801 76.4632 18.4961C76.0058 18.1912 75.3536 18.0387 74.5066 18.0387C73.8459 18.0387 73.2021 18.1234 72.5753 18.2928C71.9485 18.4622 71.3894 18.6655 70.8981 18.9027C70.7287 18.7672 70.5762 18.5808 70.4407 18.3436C70.3052 18.1065 70.2374 17.8608 70.2374 17.6067C70.2374 16.9968 70.5762 16.5479 71.2539 16.2599C71.7282 16.0397 72.2788 15.8787 72.9056 15.7771C73.5494 15.6754 74.1847 15.6246 74.8115 15.6246ZM94.5685 20.1479V22.6128H91.4429V20.2749C91.4429 19.5295 91.2311 18.9874 90.8076 18.6486C90.3841 18.2928 89.8166 18.1149 89.105 18.1149C88.5799 18.1149 88.1055 18.1827 87.682 18.3182C87.2754 18.4368 86.9112 18.5808 86.5893 18.7502V22.6128H83.4637V18.5469C83.4637 18.1403 83.5484 17.81 83.7178 17.5559C83.8872 17.2848 84.1413 17.0392 84.4802 16.819C84.9884 16.4801 85.6406 16.2006 86.4368 15.9804C87.25 15.7432 88.1479 15.6246 89.1305 15.6246C90.8415 15.6246 92.1714 16.0058 93.1201 16.7681C94.0857 17.5305 94.5685 18.657 94.5685 20.1479ZM83.4637 21.3676H86.5893V27.9492C86.4538 28 86.259 28.0424 86.0048 28.0762C85.7507 28.1271 85.4712 28.1525 85.1663 28.1525C84.5903 28.1525 84.1583 28.0508 83.8703 27.8475C83.5992 27.6273 83.4637 27.2461 83.4637 26.704V21.3676ZM91.4429 21.3676H94.5685V27.9492C94.4499 28 94.2551 28.0424 93.9841 28.0762C93.7299 28.1271 93.4589 28.1525 93.1709 28.1525C92.578 28.1525 92.1375 28.0508 91.8495 27.8475C91.5784 27.6273 91.4429 27.2461 91.4429 26.704V21.3676Z" fill="#293038"/>
<defs>
<linearGradient id="paint0_linear_2240_34187" x1="0.548208" y1="11.7848" x2="17.4178" y2="12.3216" gradientUnits="userSpaceOnUse">
<stop stop-color="#095AD3"/>
<stop offset="1" stop-color="#166FF4"/>
</linearGradient>
</defs>
</svg>
