<svg width="41" height="41" viewBox="0 0 41 41" fill="none" xmlns="http://www.w3.org/2000/svg">
<rect y="0.199219" width="40.5318" height="40.5318" rx="9.65739" fill="#F3F6FB"/>
<path d="M15.6618 20.576V15.2178C15.6618 14.152 16.0824 13.1299 16.8312 12.3762C17.58 11.6226 18.5955 11.1992 19.6545 11.1992C20.7134 11.1992 21.729 11.6226 22.4777 12.3762C23.2265 13.1299 23.6472 14.152 23.6472 15.2178V20.576C23.6472 21.6418 23.2265 22.6639 22.4777 23.4176C21.729 24.1712 20.7134 24.5946 19.6545 24.5946C18.5955 24.5946 17.58 24.1712 16.8312 23.4176C16.0824 22.6639 15.6618 21.6418 15.6618 20.576ZM26.3089 20.576C26.3089 20.3983 26.2388 20.228 26.114 20.1024C25.9892 19.9768 25.82 19.9062 25.6435 19.9062C25.467 19.9062 25.2978 19.9768 25.173 20.1024C25.0482 20.228 24.9781 20.3983 24.9781 20.576C24.9781 21.997 24.4172 23.3599 23.4188 24.3648C22.4204 25.3696 21.0664 25.9341 19.6545 25.9341C18.2426 25.9341 16.8885 25.3696 15.8901 24.3648C14.8918 23.3599 14.3309 21.997 14.3309 20.576C14.3309 20.3983 14.2608 20.228 14.136 20.1024C14.0112 19.9768 13.8419 19.9062 13.6654 19.9062C13.489 19.9062 13.3197 19.9768 13.1949 20.1024C13.0701 20.228 13 20.3983 13 20.576C13.002 22.2358 13.6155 23.8359 14.7217 25.0668C15.828 26.2978 17.3484 27.0721 18.989 27.2402V29.283C18.989 29.4606 19.0591 29.631 19.1839 29.7566C19.3087 29.8822 19.478 29.9527 19.6545 29.9527C19.831 29.9527 20.0002 29.8822 20.125 29.7566C20.2498 29.631 20.3199 29.4606 20.3199 29.283V27.2402C21.9605 27.0721 23.481 26.2978 24.5872 25.0668C25.6935 23.8359 26.3069 22.2358 26.3089 20.576Z" fill="url(#paint0_linear_204_2237)"/>
<defs>
<linearGradient id="paint0_linear_204_2237" x1="13.4067" y1="12.9853" x2="25.924" y2="13.3244" gradientUnits="userSpaceOnUse">
<stop stop-color="#095AD3"/>
<stop offset="1" stop-color="#166FF4"/>
</linearGradient>
</defs>
</svg>
