<svg width="13" height="14" viewBox="0 0 13 14" fill="none" xmlns="http://www.w3.org/2000/svg">
<path d="M11 7.4C11 9.09695 11 9.94565 10.4726 10.4726C9.94565 11 9.09695 11 7.4 11H5.6C3.90305 11 3.05435 11 2.5274 10.4726C2.2331 10.1787 2.10305 9.785 2.0459 9.2M2 6.5V4.2275C2 3.83015 2 3.6317 2.0315 3.4661C2.09865 3.11053 2.27141 2.78345 2.52724 2.52754C2.78307 2.27163 3.1101 2.09876 3.46565 2.0315C3.6317 2 3.8306 2 4.2275 2C4.4012 2 4.4885 2 4.5722 2.00765C4.93267 2.0415 5.27455 2.18328 5.5532 2.41445C5.618 2.468 5.6792 2.5292 5.8025 2.6525L6.05 2.9C6.4172 3.2672 6.6008 3.4508 6.8204 3.57275C6.9411 3.64002 7.06914 3.69317 7.202 3.73115C7.4441 3.8 7.70375 3.8 8.2226 3.8H8.3909C9.5753 3.8 10.168 3.8 10.5527 4.1465C10.5883 4.178 10.622 4.21175 10.6535 4.2473C10.91 4.53215 10.9766 4.9313 10.9941 5.6" stroke="#383D44" stroke-width="0.8" stroke-linecap="round"/>
<path d="M2 7.85H6.95M6.95 7.85L5.09375 6.5M6.95 7.85L5.09375 9.2" stroke="#383D44" stroke-width="0.8" stroke-linecap="round" stroke-linejoin="round"/>
</svg>
