<svg width="11" height="11" viewBox="0 0 11 11" fill="none" xmlns="http://www.w3.org/2000/svg">
<g clip-path="url(#clip0_183_1112)">
<path d="M0.716797 9.94605L2.51158 10.5788L3.14834 9.87827L1.94415 8.55355L0.716797 9.94605ZM2.95507 5.20339C2.86051 5.2952 2.79196 5.415 2.75759 5.54849C2.72323 5.68198 2.7245 5.82353 2.76126 5.95626L2.99566 6.80259L2.08085 7.80918L3.80935 9.71071L4.72291 8.7057L5.49061 8.96416C5.73723 9.04716 6.00523 8.96397 6.17587 8.75115L6.81443 7.92833L3.70086 4.50308L2.95507 5.20339ZM10.1994 2.02791L9.06419 0.779062C8.69615 0.374174 8.10537 0.353821 7.71487 0.732626L4.1395 4.09108L7.18894 7.44598L10.2416 3.5125C10.5861 3.08291 10.5676 2.433 10.1994 2.02791Z" fill="#444444"/>
</g>
<defs>
<clipPath id="clip0_183_1112">
<rect width="9.77144" height="10.1173" fill="white" transform="translate(0.716797 0.461426)"/>
</clipPath>
</defs>
</svg>
