<svg width="16" height="16" viewBox="0 0 16 16" fill="none" xmlns="http://www.w3.org/2000/svg">
<path fill-rule="evenodd" clip-rule="evenodd" d="M1.85458 1.10123C1 1.97948 1 3.39398 1 6.22223V9.22223C1 12.0505 1 13.465 1.85458 14.3432C2.70844 15.2222 4.08365 15.2222 6.83333 15.2222H8.29167C11.0414 15.2222 12.4166 15.2222 13.2704 14.3432C14.125 13.465 14.125 12.0505 14.125 9.22223V6.22223C14.125 3.39398 14.125 1.97948 13.2704 1.10123C12.4166 0.222229 11.0414 0.222229 8.29167 0.222229H6.83333C4.08365 0.222229 2.70844 0.222229 1.85458 1.10123ZM4.64583 5.65973C4.50079 5.65973 4.36169 5.71899 4.25913 5.82448C4.15658 5.92997 4.09896 6.07304 4.09896 6.22223C4.09896 6.37141 4.15658 6.51449 4.25913 6.61998C4.36169 6.72547 4.50079 6.78473 4.64583 6.78473H10.4792C10.6242 6.78473 10.7633 6.72547 10.8659 6.61998C10.9684 6.51449 11.026 6.37141 11.026 6.22223C11.026 6.07304 10.9684 5.92997 10.8659 5.82448C10.7633 5.71899 10.6242 5.65973 10.4792 5.65973H4.64583ZM4.64583 8.65973C4.50079 8.65973 4.36169 8.71899 4.25913 8.82448C4.15658 8.92997 4.09896 9.07305 4.09896 9.22223C4.09896 9.37141 4.15658 9.51449 4.25913 9.61998C4.36169 9.72547 4.50079 9.78473 4.64583 9.78473H8.29167C8.43671 9.78473 8.57581 9.72547 8.67837 9.61998C8.78092 9.51449 8.83854 9.37141 8.83854 9.22223C8.83854 9.07305 8.78092 8.92997 8.67837 8.82448C8.57581 8.71899 8.43671 8.65973 8.29167 8.65973H4.64583Z" fill="url(#paint0_linear_422_2024)"/>
<defs>
<linearGradient id="paint0_linear_422_2024" x1="1.40104" y1="1.6508" x2="13.7407" y2="2.06306" gradientUnits="userSpaceOnUse">
<stop stop-color="#095AD3"/>
<stop offset="1" stop-color="#166FF4"/>
</linearGradient>
</defs>
</svg>
