<svg width="18" height="18" viewBox="0 0 18 18" fill="none" xmlns="http://www.w3.org/2000/svg">
<path fill-rule="evenodd" clip-rule="evenodd" d="M1.55201 3.94338C1.49951 4.21938 1.49951 4.55088 1.49951 5.21238V10.4999C1.49951 13.3281 1.49951 14.7426 2.37851 15.6209C3.25676 16.4999 4.67126 16.4999 7.49951 16.4999H10.4995C13.3278 16.4999 14.7423 16.4999 15.6205 15.6209C16.4995 14.7426 16.4995 13.3281 16.4995 10.4999V8.84838C16.4995 6.87438 16.4995 5.88663 15.922 5.24538C15.869 5.18619 15.813 5.12986 15.754 5.07663C15.1128 4.49988 14.125 4.49988 12.151 4.49988H11.8705C11.0058 4.49988 10.573 4.49988 10.1695 4.38513C9.94808 4.32183 9.73468 4.23325 9.53351 4.12113C9.16751 3.91788 8.86151 3.61113 8.24951 2.99988L7.83701 2.58738C7.63151 2.38188 7.52951 2.27988 7.42151 2.18988C6.95701 1.80486 6.38721 1.56884 5.78651 1.51263C5.64701 1.49988 5.50151 1.49988 5.21201 1.49988C4.54976 1.49988 4.21901 1.49988 3.94301 1.55238C3.35039 1.6643 2.80526 1.95223 2.37874 2.37862C1.95222 2.805 1.66412 3.35079 1.55201 3.94338ZM12.211 2.24988C12.4855 2.24988 12.6235 2.24988 12.7383 2.26488C13.5018 2.36988 14.1093 2.97213 14.2488 3.74988C14.1346 3.72402 14.0192 3.70375 13.903 3.68913C13.423 3.62613 12.817 3.62613 12.0655 3.62613H11.815C11.1085 3.62613 10.84 3.62238 10.5963 3.55038C10.4544 3.5083 10.3179 3.44964 10.1898 3.37563C9.96776 3.24813 9.77576 3.05463 9.27626 2.53713L8.99951 2.24988H12.2125H12.211ZM9.74951 6.93738C9.60033 6.93738 9.45725 6.99664 9.35177 7.10213C9.24628 7.20762 9.18701 7.35069 9.18701 7.49988C9.18701 7.64906 9.24628 7.79214 9.35177 7.89763C9.45725 8.00311 9.60033 8.06238 9.74951 8.06238H13.4995C13.6487 8.06238 13.7918 8.00311 13.8973 7.89763C14.0027 7.79214 14.062 7.64906 14.062 7.49988C14.062 7.35069 14.0027 7.20762 13.8973 7.10213C13.7918 6.99664 13.6487 6.93738 13.4995 6.93738H9.74951Z" fill="#A3A7AF"/>
</svg>
