<svg width="16" height="16" viewBox="0 0 16 16" fill="none" xmlns="http://www.w3.org/2000/svg">
<path d="M1 2.16669C1 1.94568 1.09219 1.73372 1.25628 1.57744C1.42038 1.42116 1.64294 1.33336 1.875 1.33336H14.125C14.3571 1.33336 14.5796 1.42116 14.7437 1.57744C14.9078 1.73372 15 1.94568 15 2.16669V3.83336C15 4.05437 14.9078 4.26633 14.7437 4.42261C14.5796 4.57889 14.3571 4.66669 14.125 4.66669H1.875C1.64294 4.66669 1.42038 4.57889 1.25628 4.42261C1.09219 4.26633 1 4.05437 1 3.83336V2.16669ZM1 8.83336C1 8.61234 1.09219 8.40038 1.25628 8.2441C1.42038 8.08782 1.64294 8.00003 1.875 8.00003H7.125C7.35706 8.00003 7.57962 8.08782 7.74372 8.2441C7.90781 8.40038 8 8.61234 8 8.83336V13.8334C8 14.0544 7.90781 14.2663 7.74372 14.4226C7.57962 14.5789 7.35706 14.6667 7.125 14.6667H1.875C1.64294 14.6667 1.42038 14.5789 1.25628 14.4226C1.09219 14.2663 1 14.0544 1 13.8334V8.83336ZM11.5 8.83336C11.5 8.61234 11.5922 8.40038 11.7563 8.2441C11.9204 8.08782 12.1429 8.00003 12.375 8.00003H14.125C14.3571 8.00003 14.5796 8.08782 14.7437 8.2441C14.9078 8.40038 15 8.61234 15 8.83336V13.8334C15 14.0544 14.9078 14.2663 14.7437 14.4226C14.5796 14.5789 14.3571 14.6667 14.125 14.6667H12.375C12.1429 14.6667 11.9204 14.5789 11.7563 14.4226C11.5922 14.2663 11.5 14.0544 11.5 13.8334V8.83336Z" fill="url(#paint0_linear_422_2014)" stroke="url(#paint1_linear_422_2014)" stroke-width="1.75" stroke-linecap="round" stroke-linejoin="round"/>
<defs>
<linearGradient id="paint0_linear_422_2014" x1="1.42778" y1="2.6032" x2="14.5836" y2="3.13063" gradientUnits="userSpaceOnUse">
<stop stop-color="#A045FB"/>
<stop offset="0.875" stop-color="#4822E4"/>
</linearGradient>
<linearGradient id="paint1_linear_422_2014" x1="1.42778" y1="2.6032" x2="14.5836" y2="3.13063" gradientUnits="userSpaceOnUse">
<stop stop-color="#A045FB"/>
<stop offset="0.875" stop-color="#4822E4"/>
</linearGradient>
</defs>
</svg>
