<svg width="15" height="16" viewBox="0 0 15 16" fill="none" xmlns="http://www.w3.org/2000/svg">
<path d="M0 4.2125C0 3.551 0 3.2195 0.0524999 2.9435C0.164604 2.35091 0.452709 1.80512 0.879229 1.37874C1.30575 0.952353 1.85088 0.664418 2.4435 0.5525C2.7195 0.5 3.05025 0.5 3.7125 0.5C4.002 0.5 4.1475 0.5 4.287 0.51275C4.8877 0.568958 5.4575 0.80498 5.922 1.19C6.03 1.28 6.132 1.382 6.3375 1.5875L6.76256 2.01254C7.3662 2.61546 7.67051 2.91939 8.034 3.12125C8.23516 3.23337 8.44857 3.32195 8.67 3.38525C9.0735 3.5 9.50625 3.5 10.371 3.5H10.6515C12.6255 3.5 13.6133 3.5 14.2545 4.07675C14.3135 4.12998 14.3695 4.18631 14.4225 4.2455C15 4.88675 15 5.8745 15 7.8485V9.5C15 12.3282 15 13.7427 14.121 14.621C13.2427 15.5 11.8282 15.5 9 15.5H6C3.17175 15.5 1.75725 15.5 0.879 14.621C0 13.7427 0 12.3282 0 9.5V4.2125Z" fill="#383D44"/>
<path d="M11.2388 1.265C11.124 1.25 10.986 1.25 10.7115 1.25H7.5L7.77675 1.53725C8.27625 2.05475 8.46825 2.24825 8.69025 2.37575C8.81842 2.44976 8.95486 2.50842 9.09675 2.5505C9.3405 2.6225 9.609 2.62625 10.3155 2.62625H10.566C11.3175 2.62625 11.9235 2.62625 12.4035 2.68925C12.5197 2.70387 12.6351 2.72414 12.7493 2.75C12.6098 1.97225 12.0023 1.37 11.2388 1.265Z" fill="#383D44"/>
<path d="M5.20909 9.03636C5.67201 9.03636 6.11598 8.85247 6.44331 8.52513C6.77065 8.1978 6.95455 7.75383 6.95455 7.29091C6.95455 6.82799 6.77065 6.38402 6.44331 6.05669C6.11598 5.72935 5.67201 5.54545 5.20909 5.54545C4.74617 5.54545 4.3022 5.72935 3.97487 6.05669C3.64753 6.38402 3.46364 6.82799 3.46364 7.29091C3.46364 7.75383 3.64753 8.1978 3.97487 8.52513C4.3022 8.85247 4.74617 9.03636 5.20909 9.03636ZM3.57273 9.90909C3.31233 9.90909 3.0626 10.0125 2.87848 10.1967C2.69435 10.3808 2.59091 10.6305 2.59091 10.8909V11C2.59091 11 2.59091 12.9636 5.20909 12.9636C7.82727 12.9636 7.82727 11 7.82727 11V10.8909C7.82727 10.6305 7.72383 10.3808 7.53971 10.1967C7.35558 10.0125 7.10585 9.90909 6.84545 9.90909H3.57273Z" fill="white"/>
</svg>
