<svg width="17" height="17" viewBox="0 0 17 17" fill="none" xmlns="http://www.w3.org/2000/svg">
<path fill-rule="evenodd" clip-rule="evenodd" d="M0.580421 2.76035C0.524414 3.05479 0.524414 3.40843 0.524414 4.11412V9.75483C0.524414 12.772 0.524414 14.281 1.46213 15.2179C2.39905 16.1556 3.90804 16.1556 6.92522 16.1556H10.1256C13.1428 16.1556 14.6518 16.1556 15.5887 15.2179C16.5264 14.281 16.5264 12.772 16.5264 9.75483V7.99301C16.5264 5.88715 16.5264 4.83341 15.9103 4.14933C15.8538 4.08618 15.794 4.02609 15.7311 3.9693C15.047 3.35403 13.9933 3.35403 11.8874 3.35403H11.5882C10.6657 3.35403 10.204 3.35403 9.77358 3.23161C9.53735 3.16409 9.30969 3.06959 9.09509 2.94998C8.70464 2.73315 8.3782 2.40591 7.72532 1.75383L7.28526 1.31377C7.06604 1.09454 6.95722 0.98573 6.84201 0.889718C6.34648 0.478978 5.73862 0.22719 5.09779 0.167227C4.94897 0.153625 4.79375 0.153625 4.48491 0.153625C3.77842 0.153625 3.42558 0.153625 3.13114 0.209632C2.49893 0.329027 1.91739 0.636195 1.46238 1.09106C1.00736 1.54593 0.700013 2.12818 0.580421 2.76035ZM11.9514 0.953726C12.2443 0.953726 12.3915 0.953726 12.5139 0.969728C13.3284 1.08174 13.9765 1.72422 14.1253 2.55393C14.0035 2.52634 13.8804 2.50471 13.7565 2.48912C13.2444 2.42191 12.5979 2.42191 11.7962 2.42191H11.529C10.7753 2.42191 10.4889 2.41791 10.2288 2.3411C10.0775 2.29621 9.9319 2.23364 9.79518 2.15468C9.55835 2.01866 9.35352 1.81223 8.82066 1.26016L8.52542 0.953726H11.953H11.9514ZM9.32552 5.95435C9.16637 5.95435 9.01374 6.01758 8.9012 6.13011C8.78867 6.24265 8.72544 6.39528 8.72544 6.55443C8.72544 6.71358 8.78867 6.86621 8.9012 6.97875C9.01374 7.09128 9.16637 7.1545 9.32552 7.1545H13.326C13.4852 7.1545 13.6378 7.09128 13.7503 6.97875C13.8629 6.86621 13.9261 6.71358 13.9261 6.55443C13.9261 6.39528 13.8629 6.24265 13.7503 6.13011C13.6378 6.01758 13.4852 5.95435 13.326 5.95435H9.32552Z" fill="#A3A7AF"/>
</svg>
