<svg width="13" height="14" viewBox="0 0 13 14" fill="none" xmlns="http://www.w3.org/2000/svg">
<path d="M2.81818 3.90909C2.57708 3.90909 2.34585 4.00487 2.17536 4.17536C2.00487 4.34585 1.90909 4.57708 1.90909 4.81818V11.1818C1.90909 11.4229 2.00487 11.6542 2.17536 11.8246C2.34585 11.9951 2.57708 12.0909 2.81818 12.0909H9.18182C9.42292 12.0909 9.65415 11.9951 9.82464 11.8246C9.99513 11.6542 10.0909 11.4229 10.0909 11.1818V9.13636C10.0909 9.01581 10.1388 8.9002 10.224 8.81495C10.3093 8.72971 10.4249 8.68182 10.5455 8.68182C10.666 8.68182 10.7816 8.72971 10.8669 8.81495C10.9521 8.9002 11 9.01581 11 9.13636V11.1818C11 11.664 10.8084 12.1265 10.4675 12.4675C10.1265 12.8084 9.66403 13 9.18182 13H2.81818C2.33597 13 1.87351 12.8084 1.53253 12.4675C1.19156 12.1265 1 11.664 1 11.1818V4.81818C1 4.33597 1.19156 3.87351 1.53253 3.53253C1.87351 3.19156 2.33597 3 2.81818 3H4.86364C4.98419 3 5.0998 3.04789 5.18505 3.13313C5.27029 3.21838 5.31818 3.33399 5.31818 3.45455C5.31818 3.5751 5.27029 3.69071 5.18505 3.77596C5.0998 3.8612 4.98419 3.90909 4.86364 3.90909H2.81818ZM6.68182 3.45455C6.68182 3.33399 6.72971 3.21838 6.81495 3.13313C6.9002 3.04789 7.01581 3 7.13636 3H10.5455C10.666 3 10.7816 3.04789 10.8669 3.13313C10.9521 3.21838 11 3.33399 11 3.45455V6.86364C11 6.98419 10.9521 7.0998 10.8669 7.18505C10.7816 7.27029 10.666 7.31818 10.5455 7.31818C10.4249 7.31818 10.3093 7.27029 10.224 7.18505C10.1388 7.0998 10.0909 6.98419 10.0909 6.86364V4.55182L7.45773 7.185C7.4158 7.22841 7.36564 7.26304 7.31018 7.28686C7.25473 7.31069 7.19508 7.32323 7.13473 7.32375C7.07437 7.32428 7.01452 7.31277 6.95866 7.28992C6.9028 7.26706 6.85204 7.23331 6.80937 7.19063C6.76669 7.14796 6.73294 7.0972 6.71008 7.04134C6.68723 6.98548 6.67573 6.92563 6.67625 6.86527C6.67677 6.80492 6.68931 6.74527 6.71314 6.68982C6.73696 6.63436 6.77159 6.5842 6.815 6.54227L9.44818 3.90909H7.13636C7.01581 3.90909 6.9002 3.8612 6.81495 3.77596C6.72971 3.69071 6.68182 3.5751 6.68182 3.45455Z" fill="#383D44"/>
</svg>
