<svg width="5" height="20" viewBox="0 0 5 20" fill="none" xmlns="http://www.w3.org/2000/svg">
<path d="M2.94355 16.3322C2.39138 16.3322 1.94375 16.7799 1.94375 17.332C1.94375 17.8842 2.39138 18.3318 2.94355 18.3318C3.49573 18.3318 3.94336 17.8842 3.94336 17.332C3.94336 16.7799 3.49573 16.3322 2.94355 16.3322Z" fill="#A3A7AF" stroke="#A3A7AF" stroke-width="2" stroke-linecap="round" stroke-linejoin="round"/>
<path d="M2.94355 9.0002C2.39138 9.0002 1.94375 9.44783 1.94375 10C1.94375 10.5522 2.39138 10.9998 2.94355 10.9998C3.49573 10.9998 3.94336 10.5522 3.94336 10C3.94336 9.44783 3.49573 9.0002 2.94355 9.0002Z" fill="#A3A7AF" stroke="#A3A7AF" stroke-width="2" stroke-linecap="round" stroke-linejoin="round"/>
<path d="M2.94355 1.66816C2.39138 1.66816 1.94375 2.11579 1.94375 2.66796C1.94375 3.22014 2.39138 3.66777 2.94355 3.66777C3.49573 3.66777 3.94336 3.22014 3.94336 2.66796C3.94336 2.11579 3.49573 1.66816 2.94355 1.66816Z" fill="#A3A7AF" stroke="#A3A7AF" stroke-width="2" stroke-linecap="round" stroke-linejoin="round"/>
</svg>
