<svg width="24" height="25" viewBox="0 0 24 25" fill="none" xmlns="http://www.w3.org/2000/svg">
<path fill-rule="evenodd" clip-rule="evenodd" d="M14.1587 2.90318C14.1587 2.62013 14.0463 2.34867 13.8461 2.14853C13.646 1.94838 13.3745 1.83594 13.0915 1.83594C12.8084 1.83594 12.537 1.94838 12.3368 2.14853C12.1367 2.34867 12.0242 2.62013 12.0242 2.90318V3.70362H11.4298C10.2857 3.70354 9.18465 4.13948 8.3507 4.92267C7.51674 5.70586 7.01262 6.77744 6.94094 7.91924L6.70508 11.6909C6.61514 13.129 6.13229 14.5148 5.30912 15.6973C5.13904 15.9418 5.03512 16.2261 5.00746 16.5227C4.9798 16.8192 5.02935 17.1178 5.15129 17.3895C5.27323 17.6612 5.46341 17.8968 5.70333 18.0732C5.94325 18.2496 6.22475 18.361 6.52045 18.3964L10.1566 18.8318V19.9791C10.1566 20.7575 10.4658 21.504 11.0162 22.0544C11.5666 22.6048 12.3131 22.9141 13.0915 22.9141C13.8699 22.9141 14.6164 22.6048 15.1668 22.0544C15.7172 21.504 16.0264 20.7575 16.0264 19.9791V18.8318L19.6625 18.3953C19.9581 18.3598 20.2394 18.2485 20.4791 18.0721C20.7189 17.8957 20.909 17.6603 21.0309 17.3888C21.1528 17.1172 21.2024 16.8188 21.1749 16.5224C21.1474 16.226 21.0437 15.9418 20.8739 15.6973C20.0506 14.5148 19.5678 13.129 19.4779 11.6909L19.242 7.92031C19.1706 6.77831 18.6666 5.70647 17.8326 4.92306C16.9986 4.13964 15.8974 3.70356 14.7532 3.70362H14.1587V2.90318ZM11.4298 5.30449C10.6929 5.3044 9.98374 5.58514 9.4466 6.08956C8.90947 6.59399 8.58477 7.28416 8.53861 8.01957L8.30382 11.7912C8.19533 13.5212 7.61429 15.1883 6.62397 16.6109C6.61166 16.6286 6.60414 16.6491 6.60213 16.6706C6.60012 16.692 6.6037 16.7136 6.6125 16.7333C6.62131 16.753 6.63506 16.77 6.6524 16.7828C6.66975 16.7956 6.6901 16.8036 6.71149 16.8062L10.6998 17.2854C12.2889 17.4754 13.8941 17.4754 15.4832 17.2854L19.4715 16.8062C19.4929 16.8036 19.5132 16.7956 19.5306 16.7828C19.5479 16.77 19.5617 16.753 19.5705 16.7333C19.5793 16.7136 19.5829 16.692 19.5808 16.6706C19.5788 16.6491 19.5713 16.6286 19.559 16.6109C18.5691 15.1882 17.9884 13.5211 17.8802 11.7912L17.6444 8.01957C17.5982 7.28416 17.2735 6.59399 16.7364 6.08956C16.1992 5.58514 15.49 5.3044 14.7532 5.30449H11.4298ZM13.0915 21.3132C12.3551 21.3132 11.7574 20.7155 11.7574 19.9791V19.1787H14.4255V19.9791C14.4255 20.7155 13.8279 21.3132 13.0915 21.3132Z" fill="url(#paint0_linear_3449_46554)"/>
<defs>
<linearGradient id="paint0_linear_3449_46554" x1="5.49446" y1="3.84338" x2="20.7124" y2="4.28946" gradientUnits="userSpaceOnUse">
<stop stop-color="#095AD3"/>
<stop offset="1" stop-color="#166FF4"/>
</linearGradient>
</defs>
</svg>
