<svg width="18" height="18" viewBox="0 0 18 18" fill="none" xmlns="http://www.w3.org/2000/svg">
<path d="M6.75 3H11.25V4.5H6.75V3ZM15 8.25H9.75C9.35218 8.25 8.97064 8.40804 8.68934 8.68934C8.40804 8.97064 8.25 9.35218 8.25 9.75V15C8.25 15.3978 8.40804 15.7794 8.68934 16.0607C8.97064 16.342 9.35218 16.5 9.75 16.5H15C15.3978 16.5 15.7794 16.342 16.0607 16.0607C16.342 15.7794 16.5 15.3978 16.5 15V9.75C16.5 9.35218 16.342 8.97064 16.0607 8.68934C15.7794 8.40804 15.3978 8.25 15 8.25Z" fill="url(#paint0_linear_1312_11965)"/>
<path d="M15.75 6.75V4.5C15.75 4.10218 15.592 3.72064 15.3107 3.43934C15.0294 3.15804 14.6478 3 14.25 3H12.75C12.75 2.60218 12.592 2.22064 12.3107 1.93934C12.0294 1.65804 11.6478 1.5 11.25 1.5H6.75C6.35218 1.5 5.97064 1.65804 5.68934 1.93934C5.40804 2.22064 5.25 2.60218 5.25 3H3.75C3.35218 3 2.97064 3.15804 2.68934 3.43934C2.40804 3.72064 2.25 4.10218 2.25 4.5V13.5C2.25 13.8978 2.40804 14.2794 2.68934 14.5607C2.97064 14.842 3.35218 15 3.75 15H6.75V8.25C6.75 7.85218 6.90804 7.47064 7.18934 7.18934C7.47064 6.90804 7.85218 6.75 8.25 6.75H15.75ZM6.75 4.5V3H11.25V4.5H6.75Z" fill="url(#paint1_linear_1312_11965)"/>
<defs>
<linearGradient id="paint0_linear_1312_11965" x1="7.04792" y1="4.28571" x2="16.2178" y2="4.53858" gradientUnits="userSpaceOnUse">
<stop stop-color="#095AD3"/>
<stop offset="1" stop-color="#166FF4"/>
</linearGradient>
<linearGradient id="paint1_linear_1312_11965" x1="2.6625" y1="2.78571" x2="15.3504" y2="3.27016" gradientUnits="userSpaceOnUse">
<stop stop-color="#095AD3"/>
<stop offset="1" stop-color="#166FF4"/>
</linearGradient>
</defs>
</svg>
