<svg width="13" height="13" viewBox="0 0 13 13" fill="none" xmlns="http://www.w3.org/2000/svg">
<path d="M4.7125 0.975C4.41082 0.975 4.12149 1.09484 3.90817 1.30817C3.69484 1.52149 3.575 1.81082 3.575 2.1125V2.7625C3.575 2.89179 3.52364 3.01579 3.43221 3.10721C3.34079 3.19864 3.21679 3.25 3.0875 3.25C2.95821 3.25 2.83421 3.19864 2.74279 3.10721C2.65136 3.01579 2.6 2.89179 2.6 2.7625V2.1125C2.6 1.55223 2.82257 1.01491 3.21874 0.618737C3.61491 0.222566 4.15223 0 4.7125 0H5.3625C5.49179 2.72465e-09 5.61579 0.0513614 5.70721 0.142785C5.79864 0.234209 5.85 0.358207 5.85 0.4875C5.85 0.616793 5.79864 0.740791 5.70721 0.832215C5.61579 0.923639 5.49179 0.975 5.3625 0.975H4.7125ZM6.5 0.4875C6.5 0.358207 6.55136 0.234209 6.64279 0.142785C6.73421 0.0513614 6.85821 0 6.9875 0H8.6125C8.74179 2.72465e-09 8.86579 0.0513614 8.95721 0.142785C9.04864 0.234209 9.1 0.358207 9.1 0.4875C9.1 0.616793 9.04864 0.740791 8.95721 0.832215C8.86579 0.923639 8.74179 0.975 8.6125 0.975H6.9875C6.85821 0.975 6.73421 0.923639 6.64279 0.832215C6.55136 0.740791 6.5 0.616793 6.5 0.4875ZM6.9875 9.425C6.85821 9.425 6.73421 9.47636 6.64279 9.56778C6.55136 9.65921 6.5 9.78321 6.5 9.9125C6.5 10.0418 6.55136 10.1658 6.64279 10.2572C6.73421 10.3486 6.85821 10.4 6.9875 10.4H8.6125C8.74179 10.4 8.86579 10.3486 8.95721 10.2572C9.04864 10.1658 9.1 10.0418 9.1 9.9125C9.1 9.78321 9.04864 9.65921 8.95721 9.56778C8.86579 9.47636 8.74179 9.425 8.6125 9.425H6.9875ZM3.0875 3.9C3.21679 3.9 3.34079 3.95136 3.43221 4.04279C3.52364 4.13421 3.575 4.25821 3.575 4.3875V6.0125C3.575 6.14179 3.52364 6.26579 3.43221 6.35721C3.34079 6.44864 3.21679 6.5 3.0875 6.5C2.95821 6.5 2.83421 6.44864 2.74279 6.35721C2.65136 6.26579 2.6 6.14179 2.6 6.0125V4.3875C2.6 4.25821 2.65136 4.13421 2.74279 4.04279C2.83421 3.95136 2.95821 3.9 3.0875 3.9ZM13 4.3875C13 4.25821 12.9486 4.13421 12.8572 4.04279C12.7658 3.95136 12.6418 3.9 12.5125 3.9C12.3832 3.9 12.2592 3.95136 12.1678 4.04279C12.0764 4.13421 12.025 4.25821 12.025 4.3875V6.0125C12.025 6.14179 12.0764 6.26579 12.1678 6.35721C12.2592 6.44864 12.3832 6.5 12.5125 6.5C12.6418 6.5 12.7658 6.44864 12.8572 6.35721C12.9486 6.26579 13 6.14179 13 6.0125V4.3875ZM10.8875 9.425C11.1892 9.425 11.4785 9.30516 11.6918 9.09183C11.9052 8.87851 12.025 8.58918 12.025 8.2875V7.6375C12.025 7.50821 12.0764 7.38421 12.1678 7.29279C12.2592 7.20136 12.3832 7.15 12.5125 7.15C12.6418 7.15 12.7658 7.20136 12.8572 7.29279C12.9486 7.38421 13 7.50821 13 7.6375V8.2875C13 8.56492 12.9454 8.83962 12.8392 9.09592C12.733 9.35222 12.5774 9.5851 12.3813 9.78126C12.1851 9.97743 11.9522 10.133 11.6959 10.2392C11.4396 10.3454 11.1649 10.4 10.8875 10.4H10.2375C10.1082 10.4 9.98421 10.3486 9.89279 10.2572C9.80136 10.1658 9.75 10.0418 9.75 9.9125C9.75 9.78321 9.80136 9.65921 9.89279 9.56778C9.98421 9.47636 10.1082 9.425 10.2375 9.425H10.8875ZM12.025 2.1125C12.025 1.81082 11.9052 1.52149 11.6918 1.30817C11.4785 1.09484 11.1892 0.975 10.8875 0.975H10.2375C10.1082 0.975 9.98421 0.923639 9.89279 0.832215C9.80136 0.740791 9.75 0.616793 9.75 0.4875C9.75 0.358207 9.80136 0.234209 9.89279 0.142785C9.98421 0.0513614 10.1082 2.72465e-09 10.2375 0H10.8875C11.1649 0 11.4396 0.0546414 11.6959 0.160804C11.9522 0.266968 12.1851 0.422573 12.3813 0.618737C12.5774 0.814901 12.733 1.04778 12.8392 1.30408C12.9454 1.56038 13 1.83508 13 2.1125V2.7625C13 2.89179 12.9486 3.01579 12.8572 3.10721C12.7658 3.19864 12.6418 3.25 12.5125 3.25C12.3832 3.25 12.2592 3.19864 12.1678 3.10721C12.0764 3.01579 12.025 2.89179 12.025 2.7625V2.1125ZM4.7125 9.425C4.41082 9.425 4.12149 9.30516 3.90817 9.09183C3.69484 8.87851 3.575 8.58918 3.575 8.2875V7.6375C3.575 7.50821 3.52364 7.38421 3.43221 7.29279C3.34079 7.20136 3.21679 7.15 3.0875 7.15C2.95821 7.15 2.83421 7.20136 2.74279 7.29279C2.65136 7.38421 2.6 7.50821 2.6 7.6375V8.2875C2.6 8.84777 2.82257 9.38509 3.21874 9.78126C3.61491 10.1774 4.15223 10.4 4.7125 10.4H5.3625C5.49179 10.4 5.61579 10.3486 5.70721 10.2572C5.79864 10.1658 5.85 10.0418 5.85 9.9125C5.85 9.78321 5.79864 9.65921 5.70721 9.56778C5.61579 9.47636 5.49179 9.425 5.3625 9.425H4.7125ZM0 4.7125C6.06348e-05 4.1804 0.200919 3.66792 0.562431 3.27749C0.923943 2.88706 1.41948 2.64743 1.95 2.6065V3.5867C1.67928 3.62577 1.43171 3.76109 1.25264 3.96785C1.07358 4.17461 0.975008 4.43898 0.975 4.7125V9.2625C0.975 9.99516 1.26605 10.6978 1.78412 11.2159C2.30219 11.734 3.00484 12.025 3.7375 12.025H8.2875C8.56102 12.025 8.82539 11.9264 9.03215 11.7474C9.23891 11.5683 9.37422 11.3207 9.4133 11.05H10.3941C10.3532 11.5806 10.1135 12.0763 9.72292 12.4378C9.33235 12.7993 8.81971 13.0001 8.2875 13H3.7375C2.74625 13 1.79561 12.6062 1.09469 11.9053C0.393771 11.2044 0 10.2537 0 9.2625V4.7125Z" fill="#FF7A00"/>
</svg>
