<svg width="131" height="34" viewBox="0 0 131 34" fill="none" xmlns="http://www.w3.org/2000/svg">
<rect x="0.5" width="130.001" height="34" rx="17" fill="#F0F5FC"/>
<path d="M22.1578 15.2455C22.2678 14.9155 22.7338 14.9155 22.8438 15.2455L23.4888 17.1825C23.6308 17.6083 23.87 17.9952 24.1874 18.3125C24.5049 18.6298 24.8919 18.8688 25.3178 19.0105L27.2538 19.6555C27.5838 19.7655 27.5838 20.2315 27.2538 20.3415L25.3168 20.9865C24.891 21.1285 24.5041 21.3677 24.1868 21.6851C23.8695 22.0026 23.6305 22.3896 23.4888 22.8155L22.8438 24.7515C22.8201 24.8238 22.7741 24.8867 22.7125 24.9313C22.651 24.9759 22.5768 24.9999 22.5008 24.9999C22.4247 24.9999 22.3506 24.9759 22.289 24.9313C22.2274 24.8867 22.1815 24.8238 22.1578 24.7515L21.5128 22.8145C21.3709 22.3888 21.1319 22.002 20.8146 21.6847C20.4973 21.3674 20.1105 21.1284 19.6848 20.9865L17.7478 20.3415C17.6755 20.3178 17.6126 20.2719 17.568 20.2103C17.5234 20.1487 17.4994 20.0746 17.4994 19.9985C17.4994 19.9224 17.5234 19.8483 17.568 19.7867C17.6126 19.7252 17.6755 19.6792 17.7478 19.6555L19.6848 19.0105C20.1105 18.8686 20.4973 18.6296 20.8146 18.3123C21.1319 17.995 21.3709 17.6082 21.5128 17.1825L22.1578 15.2455ZM18.2948 10.1465C18.3091 10.1032 18.3367 10.0655 18.3737 10.0388C18.4107 10.0121 18.4552 9.99772 18.5008 9.99772C18.5464 9.99772 18.5909 10.0121 18.6278 10.0388C18.6648 10.0655 18.6924 10.1032 18.7068 10.1465L19.0938 11.3085C19.2668 11.8265 19.6728 12.2325 20.1908 12.4055L21.3528 12.7925C21.3961 12.8068 21.4338 12.8345 21.4605 12.8714C21.4872 12.9084 21.5016 12.9529 21.5016 12.9985C21.5016 13.0441 21.4872 13.0886 21.4605 13.1256C21.4338 13.1625 21.3961 13.1902 21.3528 13.2045L20.1908 13.5915C19.9352 13.6763 19.7029 13.8197 19.5124 14.0101C19.322 14.2006 19.1786 14.4329 19.0938 14.6885L18.7068 15.8505C18.6924 15.8938 18.6648 15.9315 18.6278 15.9582C18.5909 15.9849 18.5464 15.9993 18.5008 15.9993C18.4552 15.9993 18.4107 15.9849 18.3737 15.9582C18.3367 15.9315 18.3091 15.8938 18.2948 15.8505L17.9078 14.6885C17.8229 14.4329 17.6796 14.2006 17.4891 14.0101C17.2987 13.8197 17.0664 13.6763 16.8108 13.5915L15.6488 13.2045C15.6055 13.1902 15.5678 13.1625 15.5411 13.1256C15.5144 13.0886 15.5 13.0441 15.5 12.9985C15.5 12.9529 15.5144 12.9084 15.5411 12.8714C15.5678 12.8345 15.6055 12.8068 15.6488 12.7925L16.8108 12.4055C17.0664 12.3207 17.2987 12.1773 17.4891 11.9869C17.6796 11.7964 17.8229 11.5641 17.9078 11.3085L18.2948 10.1465ZM25.3638 9.0975C25.3737 9.06903 25.3922 9.04434 25.4167 9.02686C25.4413 9.00939 25.4707 9 25.5008 9C25.5309 9 25.5603 9.00939 25.5849 9.02686C25.6094 9.04434 25.6279 9.06903 25.6378 9.0975L25.8958 9.8715C26.0108 10.2175 26.2818 10.4885 26.6278 10.6035L27.4018 10.8615C27.4303 10.8714 27.455 10.8899 27.4724 10.9144C27.4899 10.939 27.4993 10.9684 27.4993 10.9985C27.4993 11.0286 27.4899 11.058 27.4724 11.0826C27.455 11.1071 27.4303 11.1256 27.4018 11.1355L26.6278 11.3935C26.4574 11.4505 26.3026 11.5463 26.1756 11.6733C26.0486 11.8003 25.9528 11.9551 25.8958 12.1255L25.6378 12.8995C25.6279 12.928 25.6094 12.9527 25.5849 12.9701C25.5603 12.9876 25.5309 12.997 25.5008 12.997C25.4707 12.997 25.4413 12.9876 25.4167 12.9701C25.3922 12.9527 25.3737 12.928 25.3638 12.8995L25.1058 12.1255C25.0488 11.9551 24.953 11.8003 24.826 11.6733C24.6989 11.5463 24.5441 11.4505 24.3738 11.3935L23.6008 11.1355C23.5723 11.1256 23.5476 11.1071 23.5301 11.0826C23.5127 11.058 23.5033 11.0286 23.5033 10.9985C23.5033 10.9684 23.5127 10.939 23.5301 10.9144C23.5476 10.8899 23.5723 10.8714 23.6008 10.8615L24.3748 10.6035C24.7208 10.4885 24.9918 10.2175 25.1068 9.8715L25.3638 9.0975Z" fill="url(#paint0_linear_2218_16441)"/>
<path d="M41.5969 17.8887H39.3997V16.623H41.5969C41.9563 16.623 42.2473 16.5645 42.47 16.4473C42.6965 16.3262 42.8625 16.1621 42.968 15.9551C43.0735 15.7441 43.1262 15.5039 43.1262 15.2344C43.1262 14.9727 43.0735 14.7285 42.968 14.502C42.8625 14.2754 42.6965 14.0918 42.47 13.9512C42.2473 13.8105 41.9563 13.7402 41.5969 13.7402H39.927V21H38.3157V12.4688H41.5969C42.261 12.4688 42.8274 12.5879 43.2961 12.8262C43.7688 13.0605 44.1282 13.3867 44.3743 13.8047C44.6243 14.2188 44.7493 14.6914 44.7493 15.2227C44.7493 15.7734 44.6243 16.248 44.3743 16.6465C44.1282 17.0449 43.7688 17.3516 43.2961 17.5664C42.8274 17.7812 42.261 17.8887 41.5969 17.8887ZM45.5403 17.8945V17.7715C45.5403 17.3066 45.6067 16.8789 45.7395 16.4883C45.8723 16.0938 46.0657 15.752 46.3196 15.4629C46.5735 15.1738 46.884 14.9492 47.2512 14.7891C47.6184 14.625 48.0364 14.543 48.5051 14.543C48.9817 14.543 49.4036 14.625 49.7708 14.7891C50.1418 14.9492 50.4543 15.1738 50.7083 15.4629C50.9622 15.752 51.1555 16.0938 51.2883 16.4883C51.4211 16.8789 51.4875 17.3066 51.4875 17.7715V17.8945C51.4875 18.3555 51.4211 18.7832 51.2883 19.1777C51.1555 19.5684 50.9622 19.9102 50.7083 20.2031C50.4543 20.4922 50.1438 20.7168 49.7766 20.877C49.4094 21.0371 48.9895 21.1172 48.5168 21.1172C48.0481 21.1172 47.6282 21.0371 47.2571 20.877C46.886 20.7168 46.5735 20.4922 46.3196 20.2031C46.0657 19.9102 45.8723 19.5684 45.7395 19.1777C45.6067 18.7832 45.5403 18.3555 45.5403 17.8945ZM47.0872 17.7715V17.8945C47.0872 18.1719 47.1145 18.4316 47.1692 18.6738C47.2239 18.916 47.3079 19.1289 47.4211 19.3125C47.5344 19.4961 47.6809 19.6406 47.8606 19.7461C48.0442 19.8477 48.2629 19.8984 48.5168 19.8984C48.7668 19.8984 48.9817 19.8477 49.1614 19.7461C49.3411 19.6406 49.4875 19.4961 49.6008 19.3125C49.718 19.1289 49.804 18.916 49.8586 18.6738C49.9133 18.4316 49.9407 18.1719 49.9407 17.8945V17.7715C49.9407 17.498 49.9133 17.2422 49.8586 17.0039C49.804 16.7617 49.718 16.5488 49.6008 16.3652C49.4875 16.1777 49.3391 16.0312 49.1555 15.9258C48.9758 15.8164 48.759 15.7617 48.5051 15.7617C48.2551 15.7617 48.0403 15.8164 47.8606 15.9258C47.6809 16.0312 47.5344 16.1777 47.4211 16.3652C47.3079 16.5488 47.2239 16.7617 47.1692 17.0039C47.1145 17.2422 47.0872 17.498 47.0872 17.7715ZM54.3762 19.4766L55.7649 14.6602H56.7493L56.4563 16.3242L55.0559 21H54.2063L54.3762 19.4766ZM53.6086 14.6602L54.6516 19.4883L54.7454 21H53.7668L52.1028 14.6602H53.6086ZM58.0383 19.418L59.0579 14.6602H60.5579L58.9055 21H57.927L58.0383 19.418ZM56.9016 14.6602L58.2786 19.4297L58.4602 21H57.6106L56.1985 16.3242L55.9114 14.6602H56.9016ZM64.3196 21.1172C63.8391 21.1172 63.4075 21.0391 63.0247 20.8828C62.6418 20.7266 62.3157 20.5098 62.0461 20.2324C61.7805 19.9512 61.5754 19.625 61.4309 19.2539C61.2903 18.8789 61.22 18.4766 61.22 18.0469V17.8125C61.22 17.3242 61.2903 16.8809 61.4309 16.4824C61.5715 16.0801 61.7708 15.7344 62.0286 15.4453C62.2864 15.1562 62.595 14.9336 62.9543 14.7773C63.3137 14.6211 63.7102 14.543 64.1438 14.543C64.593 14.543 64.9895 14.6191 65.3333 14.7715C65.677 14.9199 65.9641 15.1309 66.1946 15.4043C66.425 15.6777 66.5989 16.0059 66.7161 16.3887C66.8333 16.7676 66.8918 17.1875 66.8918 17.6484V18.2988H61.9231V17.2324H65.3684V17.1152C65.3606 16.8691 65.3137 16.6445 65.2278 16.4414C65.1418 16.2344 65.009 16.0703 64.8293 15.9492C64.6497 15.8242 64.4172 15.7617 64.1321 15.7617C63.9016 15.7617 63.7004 15.8125 63.5286 15.9141C63.3606 16.0117 63.22 16.1523 63.1067 16.3359C62.9973 16.5156 62.9153 16.7305 62.8606 16.9805C62.8059 17.2305 62.7786 17.5078 62.7786 17.8125V18.0469C62.7786 18.3125 62.8137 18.5586 62.884 18.7852C62.9583 19.0117 63.0657 19.209 63.2063 19.377C63.3508 19.541 63.5227 19.6699 63.7219 19.7637C63.925 19.8535 64.1555 19.8984 64.4133 19.8984C64.7375 19.8984 65.0305 19.8359 65.2922 19.7109C65.5579 19.582 65.7883 19.3926 65.9836 19.1426L66.7629 19.9512C66.6301 20.1465 66.4504 20.334 66.2239 20.5137C66.0012 20.6934 65.7317 20.8398 65.4153 20.9531C65.0989 21.0625 64.7336 21.1172 64.3196 21.1172ZM69.4758 15.9551V21H67.929V14.6602H69.3938L69.4758 15.9551ZM71.4036 14.6191L71.3801 16.0605C71.2942 16.0449 71.1965 16.0332 71.0872 16.0254C70.9817 16.0176 70.8821 16.0137 70.7883 16.0137C70.55 16.0137 70.3411 16.0469 70.1614 16.1133C69.9817 16.1758 69.8313 16.2676 69.7102 16.3887C69.593 16.5098 69.5032 16.6582 69.4407 16.834C69.3782 17.0059 69.343 17.2012 69.3352 17.4199L69.0012 17.3789C69.0012 16.9766 69.0422 16.6035 69.1243 16.2598C69.2063 15.916 69.3254 15.6152 69.4817 15.3574C69.6379 15.0996 69.8333 14.9004 70.0676 14.7598C70.3059 14.6152 70.5793 14.543 70.8879 14.543C70.9739 14.543 71.0657 14.5508 71.1633 14.5664C71.2649 14.5781 71.345 14.5957 71.4036 14.6191ZM74.9836 21.1172C74.5032 21.1172 74.0715 21.0391 73.6887 20.8828C73.3059 20.7266 72.9797 20.5098 72.7102 20.2324C72.4446 19.9512 72.2395 19.625 72.095 19.2539C71.9543 18.8789 71.884 18.4766 71.884 18.0469V17.8125C71.884 17.3242 71.9543 16.8809 72.095 16.4824C72.2356 16.0801 72.4348 15.7344 72.6926 15.4453C72.9504 15.1562 73.259 14.9336 73.6184 14.7773C73.9778 14.6211 74.3743 14.543 74.8079 14.543C75.2571 14.543 75.6536 14.6191 75.9973 14.7715C76.3411 14.9199 76.6282 15.1309 76.8586 15.4043C77.0891 15.6777 77.2629 16.0059 77.3801 16.3887C77.4973 16.7676 77.5559 17.1875 77.5559 17.6484V18.2988H72.5872V17.2324H76.0325V17.1152C76.0247 16.8691 75.9778 16.6445 75.8918 16.4414C75.8059 16.2344 75.6731 16.0703 75.4934 15.9492C75.3137 15.8242 75.0813 15.7617 74.7961 15.7617C74.5657 15.7617 74.3645 15.8125 74.1926 15.9141C74.0247 16.0117 73.884 16.1523 73.7708 16.3359C73.6614 16.5156 73.5793 16.7305 73.5247 16.9805C73.47 17.2305 73.4426 17.5078 73.4426 17.8125V18.0469C73.4426 18.3125 73.4778 18.5586 73.5481 18.7852C73.6223 19.0117 73.7297 19.209 73.8704 19.377C74.0149 19.541 74.1868 19.6699 74.386 19.7637C74.5891 19.8535 74.8196 19.8984 75.0774 19.8984C75.4016 19.8984 75.6946 19.8359 75.9563 19.7109C76.2219 19.582 76.4524 19.3926 76.6477 19.1426L77.427 19.9512C77.2942 20.1465 77.1145 20.334 76.8879 20.5137C76.6653 20.6934 76.3958 20.8398 76.0793 20.9531C75.7629 21.0625 75.3977 21.1172 74.9836 21.1172ZM82.3958 19.6523V12H83.9543V21H82.5481L82.3958 19.6523ZM78.3235 17.9062V17.7832C78.3235 17.2988 78.3782 16.8594 78.4875 16.4648C78.6008 16.0664 78.7649 15.7246 78.9797 15.4395C79.1946 15.1543 79.4543 14.9336 79.759 14.7773C80.0676 14.6211 80.4172 14.543 80.8079 14.543C81.1868 14.543 81.5168 14.6191 81.7981 14.7715C82.0833 14.9238 82.3254 15.1406 82.5247 15.4219C82.7278 15.7031 82.8899 16.0371 83.011 16.4238C83.1321 16.8066 83.22 17.2285 83.2747 17.6895V18.0234C83.22 18.4727 83.1321 18.8848 83.011 19.2598C82.8899 19.6348 82.7278 19.9629 82.5247 20.2441C82.3254 20.5215 82.0833 20.7363 81.7981 20.8887C81.5129 21.041 81.179 21.1172 80.7961 21.1172C80.4094 21.1172 80.0618 21.0371 79.7532 20.877C79.4485 20.7168 79.1887 20.4922 78.9739 20.2031C78.7629 19.9141 78.6008 19.5742 78.4875 19.1836C78.3782 18.793 78.3235 18.3672 78.3235 17.9062ZM79.8762 17.7832V17.9062C79.8762 18.1797 79.8997 18.4355 79.9465 18.6738C79.9934 18.9121 80.0696 19.123 80.175 19.3066C80.2805 19.4863 80.4153 19.627 80.5793 19.7285C80.7473 19.8301 80.9504 19.8809 81.1887 19.8809C81.4934 19.8809 81.7434 19.8145 81.9387 19.6816C82.1379 19.5449 82.2922 19.3594 82.4016 19.125C82.511 18.8867 82.5813 18.6191 82.6125 18.3223V17.4023C82.5969 17.168 82.5559 16.9512 82.4895 16.752C82.427 16.5527 82.3372 16.3809 82.22 16.2363C82.1067 16.0918 81.9661 15.9785 81.7981 15.8965C81.6301 15.8145 81.4309 15.7734 81.2004 15.7734C80.9622 15.7734 80.759 15.8262 80.5911 15.9316C80.4231 16.0332 80.2864 16.1758 80.1809 16.3594C80.0754 16.543 79.9973 16.7559 79.9465 16.998C79.8997 17.2402 79.8762 17.502 79.8762 17.7832ZM88.3372 12H89.8899V19.5996L89.7375 21H88.3372V12ZM93.968 17.7656V17.8887C93.968 18.3613 93.9153 18.7949 93.8098 19.1895C93.7083 19.584 93.554 19.9258 93.3469 20.2148C93.1399 20.5 92.8821 20.7227 92.5735 20.8828C92.2688 21.0391 91.9114 21.1172 91.5012 21.1172C91.1106 21.1172 90.7708 21.041 90.4817 20.8887C90.1965 20.7363 89.9563 20.5215 89.761 20.2441C89.5657 19.9629 89.4094 19.6328 89.2922 19.2539C89.175 18.8711 89.0872 18.4531 89.0286 18V17.666C89.0872 17.209 89.175 16.791 89.2922 16.4121C89.4094 16.0332 89.5657 15.7031 89.761 15.4219C89.9563 15.1406 90.1965 14.9238 90.4817 14.7715C90.7668 14.6191 91.1028 14.543 91.4895 14.543C91.9036 14.543 92.2649 14.623 92.5735 14.7832C92.886 14.9395 93.1438 15.1621 93.3469 15.4512C93.554 15.7363 93.7083 16.0762 93.8098 16.4707C93.9153 16.8613 93.968 17.293 93.968 17.7656ZM92.4153 17.8887V17.7656C92.4153 17.4961 92.3938 17.2422 92.3508 17.0039C92.3079 16.7617 92.2375 16.5488 92.1399 16.3652C92.0422 16.1816 91.9094 16.0371 91.7415 15.9316C91.5735 15.8262 91.3625 15.7734 91.1086 15.7734C90.8665 15.7734 90.6594 15.8145 90.4875 15.8965C90.3196 15.9785 90.179 16.0918 90.0657 16.2363C89.9563 16.3809 89.8704 16.5508 89.8079 16.7461C89.7493 16.9414 89.7102 17.1523 89.6907 17.3789V18.293C89.718 18.5938 89.7825 18.8652 89.884 19.1074C89.9856 19.3457 90.136 19.5352 90.3352 19.6758C90.5383 19.8164 90.8 19.8867 91.1204 19.8867C91.3704 19.8867 91.5793 19.8379 91.7473 19.7402C91.9153 19.6387 92.0481 19.498 92.1458 19.3184C92.2434 19.1348 92.3118 18.9219 92.3508 18.6797C92.3938 18.4375 92.4153 18.1738 92.4153 17.8887ZM96.8801 20.2969L98.5793 14.6602H100.238L97.6946 21.9609C97.636 22.1172 97.5598 22.2871 97.4661 22.4707C97.3762 22.6543 97.2551 22.8281 97.1028 22.9922C96.9504 23.1602 96.759 23.2969 96.5286 23.4023C96.302 23.5078 96.0266 23.5605 95.7024 23.5605C95.5618 23.5605 95.4368 23.5508 95.3274 23.5312C95.218 23.5117 95.1028 23.4863 94.9817 23.4551V22.2949C95.0208 22.2988 95.0657 22.3008 95.1165 22.3008C95.1711 22.3047 95.218 22.3066 95.2571 22.3066C95.4836 22.3066 95.6711 22.2793 95.8196 22.2246C95.968 22.1738 96.0872 22.0898 96.177 21.9727C96.2708 21.8594 96.3489 21.7109 96.4114 21.5273L96.8801 20.2969ZM96.0422 14.6602L97.4778 19.3301L97.7297 20.9648L96.6633 21.1582L94.3723 14.6602H96.0422ZM107.486 13.7637L105.054 21H103.349L106.536 12.4688H107.626L107.486 13.7637ZM109.519 21L107.075 13.7637L106.929 12.4688H108.025L111.23 21H109.519ZM109.407 17.8301V19.1016H104.831V17.8301H109.407ZM113.825 12.4688V21H112.214V12.4688H113.825Z" fill="url(#paint1_linear_2218_16441)"/>
<defs>
<linearGradient id="paint0_linear_2218_16441" x1="15.8667" y1="10.5238" x2="27.1532" y2="10.847" gradientUnits="userSpaceOnUse">
<stop stop-color="#095AD3"/>
<stop offset="1" stop-color="#166FF4"/>
</linearGradient>
<linearGradient id="paint1_linear_2218_16441" x1="39.8846" y1="11.3333" x2="110.121" y2="26.2745" gradientUnits="userSpaceOnUse">
<stop stop-color="#095AD3"/>
<stop offset="1" stop-color="#166FF4"/>
</linearGradient>
</defs>
</svg>
