<svg width="13" height="14" viewBox="0 0 13 14" fill="none" xmlns="http://www.w3.org/2000/svg">
<path d="M7.18097 3.53927C7.18097 3.53927 7.23846 4.52419 8.10739 5.39261C8.97631 6.26154 9.96073 6.31953 9.96073 6.31953L10.4242 5.85607C10.7929 5.48739 11 4.98734 11 4.46594C11 3.94454 10.7929 3.4445 10.4242 3.07581C10.0555 2.70713 9.55546 2.5 9.03406 2.5C8.51266 2.5 8.01261 2.70713 7.64393 3.07581L7.18047 3.53927L6.00057 4.71917M9.96073 6.31903L7.33095 8.94981L5.78059 10.4992L5.70059 10.5797C5.41162 10.8681 5.26713 11.0126 5.10815 11.1366C4.92053 11.2831 4.71751 11.4086 4.5027 11.5111C4.32071 11.5976 4.12723 11.6621 3.73976 11.7911L2.0994 12.338M2.0994 12.338L1.69844 12.472C1.60497 12.5033 1.50462 12.508 1.40866 12.4854C1.31269 12.4629 1.22493 12.414 1.15522 12.3443C1.08551 12.2746 1.03663 12.1868 1.01407 12.0908C0.991505 11.9949 0.996155 11.8945 1.0275 11.8011L1.16148 11.4001M2.0994 12.338L1.16148 11.4001M1.16148 11.4001L1.70844 9.75974C1.83743 9.37227 1.90192 9.17879 1.98841 8.9968C2.0909 8.78182 2.21639 8.57884 2.36288 8.39135C2.48687 8.23237 2.63136 8.08788 2.91983 7.79941L4.25072 6.46902" stroke="#383D44" stroke-width="0.8" stroke-linecap="round"/>
</svg>
