<svg width="14" height="11" viewBox="0 0 14 11" fill="none" xmlns="http://www.w3.org/2000/svg">
<path d="M4.36405 8.93263L1.61696 6.18554C1.46894 6.03752 1.26818 5.95436 1.05884 5.95436C0.849502 5.95436 0.648738 6.03752 0.500714 6.18554C0.35269 6.33357 0.269531 6.53433 0.269531 6.74367C0.269531 6.84732 0.289947 6.94996 0.329614 7.04572C0.36928 7.14149 0.42742 7.2285 0.500714 7.3018L3.80988 10.611C4.11863 10.9197 4.61738 10.9197 4.92613 10.611L13.302 2.23513C13.45 2.0871 13.5331 1.88634 13.5331 1.677C13.5331 1.46767 13.45 1.2669 13.302 1.11888C13.1539 0.970854 12.9532 0.887695 12.7438 0.887695C12.5345 0.887695 12.3337 0.970854 12.1857 1.11888L4.36405 8.93263Z" fill="url(#paint0_linear_2342_24837)"/>
<defs>
<linearGradient id="paint0_linear_2342_24837" x1="0.341998" y1="0.887694" x2="14.7586" y2="4.11678" gradientUnits="userSpaceOnUse">
<stop stop-color="#095AD3"/>
<stop offset="1" stop-color="#166FF4"/>
</linearGradient>
</defs>
</svg>
