<svg width="18" height="18" viewBox="0 0 18 18" fill="none" xmlns="http://www.w3.org/2000/svg">
<path d="M2.45792 0.236664C1.83815 0.236664 1.24377 0.482864 0.805534 0.921104C0.367294 1.35934 0.121094 1.95372 0.121094 2.57349V14.2576C0.121094 14.8774 0.367294 15.4718 0.805534 15.91C1.24377 16.3482 1.83815 16.5944 2.45792 16.5944H5.96783C5.97601 16.4612 5.99704 16.3257 6.03092 16.189L6.22137 15.426H3.62633V10.1682C3.62633 10.0132 3.68788 9.86463 3.79744 9.75507C3.907 9.64551 4.05559 9.58396 4.21054 9.58396H10.5714L11.7398 8.41555H4.21054C3.74571 8.41555 3.29993 8.6002 2.97125 8.92888C2.64257 9.25756 2.45792 9.70334 2.45792 10.1682V15.426C2.14804 15.426 1.85085 15.3029 1.63173 15.0838C1.41261 14.8647 1.28951 14.5675 1.28951 14.2576V2.57349C1.28951 2.26361 1.41261 1.96642 1.63173 1.7473C1.85085 1.52818 2.14804 1.40508 2.45792 1.40508H3.62633V4.32611C3.62633 4.79093 3.81098 5.23671 4.13966 5.56539C4.46834 5.89407 4.91412 6.07872 5.37895 6.07872H10.0526C10.5174 6.07872 10.9632 5.89407 11.2919 5.56539C11.6206 5.23671 11.8052 4.79093 11.8052 4.32611V1.40508H12.248C12.5579 1.40514 12.855 1.52829 13.0741 1.74742L14.9681 3.64142C15.1872 3.86049 15.3104 4.15763 15.3105 4.46748V6.08223C15.7058 6.06375 16.1014 6.11517 16.4789 6.23412V4.46865C16.4787 3.84894 16.2324 3.25466 15.7942 2.81652L13.9002 0.922522C13.6833 0.705301 13.4258 0.532928 13.1423 0.415247C12.8589 0.297566 12.555 0.236883 12.248 0.236664H2.45792ZM4.79474 4.32611V1.40508H10.6368V4.32611C10.6368 4.48105 10.5753 4.62964 10.4657 4.7392C10.3561 4.84876 10.2075 4.91031 10.0526 4.91031H5.37895C5.22401 4.91031 5.07541 4.84876 4.96585 4.7392C4.85629 4.62964 4.79474 4.48105 4.79474 4.32611ZM13.92 7.88743L8.27661 13.5309C7.9477 13.8596 7.71427 14.2715 7.60127 14.7226L7.16311 16.4729C7.1199 16.647 7.12245 16.8293 7.17052 17.0021C7.21858 17.1749 7.31052 17.3323 7.4374 17.4591C7.56429 17.5859 7.72181 17.6777 7.89465 17.7256C8.0675 17.7735 8.24979 17.7758 8.42383 17.7325L10.1741 17.2955C10.6253 17.1826 11.0372 16.9492 11.3659 16.6201L17.0093 10.9767C17.4138 10.5658 17.6394 10.0117 17.637 9.43516C17.6347 8.85862 17.4046 8.30637 16.9968 7.89876C16.5891 7.49116 16.0367 7.26124 15.4602 7.25912C14.8836 7.257 14.3296 7.48284 13.9189 7.88743H13.92Z" fill="white"/>
</svg>
