<svg width="28" height="28" viewBox="0 0 28 28" fill="none" xmlns="http://www.w3.org/2000/svg">
<path fill-rule="evenodd" clip-rule="evenodd" d="M12.5708 7C11.5228 7.00009 10.4901 7.25077 9.55876 7.73114C8.62741 8.21151 7.82444 8.90762 7.21685 9.76142C6.60927 10.6152 6.21467 11.6019 6.06599 12.6392C5.91731 13.6765 6.01886 14.7343 6.36216 15.7244C6.70547 16.7145 7.28057 17.6081 8.03949 18.3307C8.79841 19.0533 9.71915 19.584 10.7249 19.8784C11.7306 20.1728 12.7922 20.2225 13.821 20.0232C14.8498 19.824 15.816 19.3816 16.6391 18.733L19.4627 21.5564C19.6085 21.6972 19.8038 21.7752 20.0065 21.7734C20.2092 21.7716 20.4031 21.6903 20.5465 21.547C20.6898 21.4037 20.7712 21.2097 20.7729 21.007C20.7747 20.8043 20.6968 20.609 20.5559 20.4632L17.7324 17.6398C18.4962 16.6707 18.9718 15.5062 19.1048 14.2795C19.2377 13.0528 19.0226 11.8135 18.484 10.7033C17.9455 9.59319 17.1052 8.65708 16.0595 8.00215C15.0137 7.34722 13.8047 6.99992 12.5708 7ZM7.54526 13.5716C7.54526 12.2388 8.07473 10.9606 9.0172 10.0181C9.95967 9.0757 11.2379 8.54625 12.5708 8.54625C13.9036 8.54625 15.1819 9.0757 16.1243 10.0181C17.0668 10.9606 17.5963 12.2388 17.5963 13.5716C17.5963 14.9044 17.0668 16.1826 16.1243 17.125C15.1819 18.0674 13.9036 18.5969 12.5708 18.5969C11.2379 18.5969 9.95967 18.0674 9.0172 17.125C8.07473 16.1826 7.54526 14.9044 7.54526 13.5716Z" fill="url(#paint0_linear_2612_154615)"/>
<defs>
<linearGradient id="paint0_linear_2612_154615" x1="20.7729" y1="14.3867" x2="5.99951" y2="14.3867" gradientUnits="userSpaceOnUse">
<stop stop-color="#095AD3"/>
<stop offset="1" stop-color="#166FF4"/>
</linearGradient>
</defs>
</svg>
