<svg width="20" height="20" viewBox="0 0 20 20" fill="none" xmlns="http://www.w3.org/2000/svg">
<g clip-path="url(#clip0_428_18412)">
<path d="M18.5342 20L12.3558 13.8216C10.9954 14.8377 9.34383 15.3885 7.64583 15.3925H7.64417L7.55417 15.3933C5.55068 15.3933 3.62925 14.5974 2.21256 13.1807C0.795883 11.764 0 9.84262 0 7.83913L0.000833333 7.74413V7.74913C0.000833333 5.69414 0.817173 3.72332 2.27027 2.27023C3.72336 0.817133 5.69418 0.000793457 7.74917 0.000793457C9.80415 0.000793457 11.775 0.817133 13.2281 2.27023C14.6812 3.72332 15.4975 5.69414 15.4975 7.74913C15.476 9.45441 14.9211 11.1102 13.9108 12.4841L13.9267 12.4616L20.105 18.64L18.5342 20ZM7.74917 2.09413C6.25864 2.00833 4.79504 2.51792 3.6801 3.51086C2.56515 4.50381 1.89012 5.89885 1.80339 7.38933C1.71666 8.8798 2.22532 10.3437 3.21757 11.4593C4.20981 12.5749 5.60442 13.2508 7.09484 13.3384C8.58526 13.4261 10.0495 12.9184 11.1657 11.9268C12.2819 10.9353 12.9587 9.5411 13.0473 8.05073C13.1359 6.56037 12.6291 5.09581 11.6382 3.97899C10.6474 2.86217 9.25364 2.18451 7.76333 2.09496L7.74917 2.09413Z" fill="url(#paint0_linear_428_18412)"/>
</g>
<defs>
<linearGradient id="paint0_linear_428_18412" x1="0.61432" y1="1.90547" x2="19.5096" y2="2.63075" gradientUnits="userSpaceOnUse">
<stop stop-color="#095AD3"/>
<stop offset="1" stop-color="#166FF4"/>
</linearGradient>
<clipPath id="clip0_428_18412">
<rect width="20" height="20" fill="white"/>
</clipPath>
</defs>
</svg>
