<svg width="14" height="14" viewBox="0 0 14 14" fill="none" xmlns="http://www.w3.org/2000/svg">
<path d="M12.5612 13.5848L8.65654 9.68008C7.79675 10.3222 6.75296 10.6704 5.67982 10.6728H5.67877L5.62189 10.6734C4.35568 10.6734 3.14134 10.1704 2.246 9.27503C1.35065 8.37969 0.847656 7.16534 0.847656 5.89914L0.848183 5.8391V5.84226C0.848183 4.54351 1.36411 3.29795 2.28247 2.3796C3.20082 1.46124 4.44638 0.945313 5.74513 0.945312C7.04388 0.945313 8.28944 1.46124 9.20779 2.3796C10.1262 3.29795 10.6421 4.54351 10.6421 5.84226C10.6285 6.92 10.2778 7.96644 9.6393 8.83478L9.64931 8.82056L13.554 12.7253L12.5612 13.5848ZM5.74513 2.2683C4.80312 2.21408 3.87812 2.53614 3.17348 3.16368C2.46883 3.79122 2.04222 4.67289 1.9874 5.61487C1.93258 6.55685 2.25406 7.48204 2.88116 8.18708C3.50826 8.89212 4.38965 9.31929 5.3316 9.3747C6.27354 9.43011 7.19894 9.10922 7.90438 8.48256C8.60981 7.85591 9.03754 6.97478 9.09354 6.03287C9.14954 5.09096 8.82923 4.16536 8.20302 3.45953C7.57682 2.75371 6.69596 2.32542 5.75408 2.26883L5.74513 2.2683Z" fill="#A3A7AF" fill-opacity="0.4"/>
</svg>
