<svg width="18" height="19" viewBox="0 0 18 19" fill="none" xmlns="http://www.w3.org/2000/svg">
<path d="M1.71681 0.909653C0.967711 0.540873 0.136637 1.24242 0.393274 2.02779L2.19541 7.54273C2.23084 7.65114 2.29587 7.74787 2.3834 7.82233C2.47093 7.89679 2.57757 7.94612 2.69165 7.9649L10.1757 9.19355C10.527 9.25128 10.527 9.74796 10.1757 9.8057L2.69229 11.0337C2.57808 11.0524 2.47131 11.1017 2.38366 11.1761C2.29602 11.2506 2.23089 11.3474 2.19541 11.4559L0.393274 16.9727C0.136637 17.7581 0.967081 18.4596 1.71681 18.0908L17.477 10.3334C18.1744 9.99009 18.1744 9.01102 17.477 8.66707L1.71681 0.909653Z" fill="url(#paint0_linear_2810_25230)"/>
<defs>
<linearGradient id="paint0_linear_2810_25230" x1="0.88514" y1="2.46414" x2="17.4766" y2="3.10751" gradientUnits="userSpaceOnUse">
<stop stop-color="#095AD3"/>
<stop offset="1" stop-color="#166FF4"/>
</linearGradient>
</defs>
</svg>
