<svg width="18" height="18" viewBox="0 0 18 18" fill="none" xmlns="http://www.w3.org/2000/svg">
<path d="M1.35006 0.101059C0.61246 -0.267721 -0.205857 0.43383 0.0468402 1.2192L1.82131 6.73413C1.8562 6.84255 1.92023 6.93928 2.00642 7.01374C2.0926 7.0882 2.1976 7.13752 2.30994 7.15631L9.67914 8.38495C10.025 8.44269 10.025 8.93936 9.67914 8.9971L2.31056 10.2251C2.19811 10.2438 2.09298 10.2931 2.00668 10.3675C1.92038 10.442 1.85624 10.5388 1.82131 10.6473L0.0468402 16.1641C-0.205857 16.9495 0.611839 17.651 1.35006 17.2822L16.8683 9.52482C17.555 9.18149 17.555 8.20243 16.8683 7.85848L1.35006 0.101059Z" fill="#A3A7AF"/>
</svg>
