<svg width="18" height="18" viewBox="0 0 18 18" fill="none" xmlns="http://www.w3.org/2000/svg">
<path d="M7.50394 3.13775C7.81355 1.86155 9.62901 1.86155 9.93861 3.13775C9.98506 3.32947 10.0761 3.50752 10.2044 3.65739C10.3327 3.80726 10.4945 3.92473 10.6767 4.00024C10.859 4.07574 11.0565 4.10715 11.2532 4.0919C11.4498 4.07665 11.6401 4.01518 11.8086 3.91248C12.93 3.22932 14.2142 4.51279 13.531 5.63492C13.4285 5.80328 13.3671 5.99346 13.3519 6.19C13.3367 6.38654 13.368 6.58391 13.4435 6.76604C13.5189 6.94817 13.6362 7.10994 13.7859 7.2382C13.9356 7.36645 14.1135 7.45758 14.305 7.50416C15.5812 7.81376 15.5812 9.62922 14.305 9.93882C14.1133 9.98527 13.9352 10.0763 13.7854 10.2046C13.6355 10.3329 13.518 10.4947 13.4425 10.677C13.367 10.8592 13.3356 11.0567 13.3509 11.2534C13.3661 11.4501 13.4276 11.6404 13.5303 11.8088C14.2134 12.9302 12.93 14.2144 11.8078 13.5312C11.6395 13.4287 11.4493 13.3673 11.2528 13.3521C11.0562 13.3369 10.8589 13.3682 10.6767 13.4437C10.4946 13.5191 10.3328 13.6364 10.2046 13.7861C10.0763 13.9358 9.98519 14.1137 9.93861 14.3052C9.62901 15.5814 7.81355 15.5814 7.50394 14.3052C7.45749 14.1135 7.36642 13.9355 7.23816 13.7856C7.10989 13.6357 6.94805 13.5182 6.7658 13.4427C6.58356 13.3672 6.38606 13.3358 6.18938 13.3511C5.9927 13.3663 5.80241 13.4278 5.63398 13.5305C4.51258 14.2137 3.22838 12.9302 3.91154 11.8081C4.01409 11.6397 4.07547 11.4495 4.09068 11.253C4.10589 11.0564 4.07452 10.8591 3.9991 10.6769C3.92368 10.4948 3.80635 10.333 3.65665 10.2048C3.50694 10.0765 3.32909 9.9854 3.13754 9.93882C1.86134 9.62922 1.86134 7.81376 3.13754 7.50416C3.32926 7.4577 3.5073 7.36664 3.65718 7.23837C3.80705 7.11011 3.92452 6.94826 4.00002 6.76602C4.07553 6.58377 4.10694 6.38627 4.09169 6.1896C4.07644 5.99292 4.01496 5.80262 3.91227 5.63419C3.22911 4.51279 4.51258 3.2286 5.6347 3.91176C6.36147 4.35363 7.30336 3.96263 7.50394 3.13775Z" stroke="#A3A7AF" stroke-width="1.45353" stroke-linecap="round" stroke-linejoin="round"/>
<path d="M6.54109 8.72134C6.54109 9.29959 6.7708 9.85416 7.17969 10.263C7.58857 10.6719 8.14314 10.9016 8.72139 10.9016C9.29964 10.9016 9.8542 10.6719 10.2631 10.263C10.672 9.85416 10.9017 9.29959 10.9017 8.72134C10.9017 8.14309 10.672 7.58852 10.2631 7.17964C9.8542 6.77075 9.29964 6.54105 8.72139 6.54105C8.14314 6.54105 7.58857 6.77075 7.17969 7.17964C6.7708 7.58852 6.54109 8.14309 6.54109 8.72134Z" stroke="#A3A7AF" stroke-width="1.45353" stroke-linecap="round" stroke-linejoin="round"/>
</svg>
