<svg width="24" height="25" viewBox="0 0 24 25" fill="none" xmlns="http://www.w3.org/2000/svg">
<path fill-rule="evenodd" clip-rule="evenodd" d="M14.1606 3.40318C14.1606 3.12013 14.0482 2.84867 13.848 2.64853C13.6478 2.44838 13.3763 2.33594 13.0932 2.33594C12.81 2.33594 12.5385 2.44838 12.3383 2.64853C12.1382 2.84867 12.0257 3.12013 12.0257 3.40318V4.20362H11.4311C10.2868 4.20354 9.18551 4.63948 8.35139 5.42267C7.51726 6.20586 7.01303 7.27744 6.94134 8.41924L6.70543 12.1909C6.61548 13.629 6.13252 15.0148 5.30919 16.1973C5.13907 16.4418 5.03512 16.7261 5.00746 17.0227C4.9798 17.3192 5.02936 17.6178 5.15132 17.8895C5.27329 18.1612 5.4635 18.3968 5.70348 18.5732C5.94345 18.7496 6.225 18.861 6.52076 18.8964L10.1576 19.3318V20.4791C10.1576 21.2575 10.4669 22.004 11.0174 22.5544C11.5679 23.1048 12.3146 23.4141 13.0932 23.4141C13.8717 23.4141 14.6184 23.1048 15.1689 22.5544C15.7194 22.004 16.0287 21.2575 16.0287 20.4791V19.3318L19.6655 18.8953C19.9611 18.8598 20.2425 18.7485 20.4823 18.5721C20.7221 18.3957 20.9123 18.1603 21.0342 17.8888C21.1561 17.6172 21.2058 17.3188 21.1782 17.0224C21.1507 16.726 21.047 16.4418 20.8771 16.1973C20.0537 15.0148 19.5708 13.629 19.4809 12.1909L19.245 8.42031C19.1735 7.27831 18.6694 6.20647 17.8353 5.42306C17.0011 4.63964 15.8997 4.20356 14.7552 4.20362H14.1606V3.40318ZM11.7588 20.4791C11.7588 20.8329 11.8994 21.1723 12.1496 21.4225C12.3999 21.6726 12.7393 21.8132 13.0932 21.8132C13.447 21.8132 13.7864 21.6726 14.0367 21.4225C14.2869 21.1723 14.4275 20.8329 14.4275 20.4791V19.6787H11.7588V20.4791Z" fill="url(#paint0_linear_3449_46712)"/>
<circle cx="19.8438" cy="7.08594" r="3.67135" fill="#DB0437" stroke="#F0F5FC" stroke-width="0.969792"/>
<defs>
<linearGradient id="paint0_linear_3449_46712" x1="5.49456" y1="4.34338" x2="20.7156" y2="4.78965" gradientUnits="userSpaceOnUse">
<stop stop-color="#095AD3"/>
<stop offset="1" stop-color="#166FF4"/>
</linearGradient>
</defs>
</svg>
