<svg width="19" height="16" viewBox="0 0 19 16" fill="none" xmlns="http://www.w3.org/2000/svg">
<path d="M4.02758 1.5614C4.02758 1.39066 3.95976 1.22691 3.83902 1.10618C3.71829 0.985444 3.55454 0.917617 3.3838 0.917617C3.21306 0.917617 3.04931 0.985444 2.92857 1.10618C2.80784 1.22691 2.74001 1.39066 2.74001 1.5614V12.883L1.26446 11.4062C1.14357 11.2853 0.979618 11.2174 0.80866 11.2174C0.637702 11.2174 0.473746 11.2853 0.352861 11.4062C0.231975 11.527 0.164063 11.691 0.164063 11.862C0.164062 12.0329 0.231975 12.1969 0.352861 12.3178L2.928 14.8916L2.93701 14.9006C3.05788 15.0185 3.22043 15.0838 3.38925 15.0824C3.55807 15.0809 3.71948 15.0128 3.83831 14.8929L6.41345 12.3178C6.47331 12.258 6.5208 12.187 6.55323 12.1089C6.58566 12.0308 6.60238 11.947 6.60244 11.8624C6.6025 11.7778 6.58589 11.694 6.55358 11.6159C6.52126 11.5377 6.47387 11.4667 6.41409 11.4068C6.35432 11.3469 6.28334 11.2994 6.20522 11.267C6.12709 11.2346 6.04334 11.2179 5.95875 11.2178C5.87416 11.2178 5.79039 11.2344 5.71221 11.2667C5.63404 11.299 5.56299 11.3464 5.50314 11.4062L4.02758 12.883V1.5614ZM8.53408 2.84897C8.53408 2.67823 8.6019 2.51448 8.72264 2.39375C8.84337 2.27301 9.00712 2.20519 9.17786 2.20519H18.1908C18.3616 2.20519 18.5253 2.27301 18.6461 2.39375C18.7668 2.51448 18.8346 2.67823 18.8346 2.84897C18.8346 3.01971 18.7668 3.18346 18.6461 3.3042C18.5253 3.42493 18.3616 3.49276 18.1908 3.49276H9.17786C9.00712 3.49276 8.84337 3.42493 8.72264 3.3042C8.6019 3.18346 8.53408 3.01971 8.53408 2.84897ZM9.17786 6.06789C9.00712 6.06789 8.84337 6.13572 8.72264 6.25645C8.6019 6.37719 8.53408 6.54094 8.53408 6.71168C8.53408 6.88242 8.6019 7.04617 8.72264 7.1669C8.84337 7.28764 9.00712 7.35546 9.17786 7.35546H15.6157C15.7864 7.35546 15.9502 7.28764 16.0709 7.1669C16.1917 7.04617 16.2595 6.88242 16.2595 6.71168C16.2595 6.54094 16.1917 6.37719 16.0709 6.25645C15.9502 6.13572 15.7864 6.06789 15.6157 6.06789H9.17786ZM9.17786 9.9306C9.00712 9.9306 8.84337 9.99843 8.72264 10.1192C8.6019 10.2399 8.53408 10.4036 8.53408 10.5744C8.53408 10.7451 8.6019 10.9089 8.72264 11.0296C8.84337 11.1503 9.00712 11.2182 9.17786 11.2182H13.0406C13.2113 11.2182 13.3751 11.1503 13.4958 11.0296C13.6165 10.9089 13.6844 10.7451 13.6844 10.5744C13.6844 10.4036 13.6165 10.2399 13.4958 10.1192C13.3751 9.99843 13.2113 9.9306 13.0406 9.9306H9.17786ZM9.17786 13.7933C9.00712 13.7933 8.84337 13.8611 8.72264 13.9819C8.6019 14.1026 8.53408 14.2664 8.53408 14.4371C8.53408 14.6078 8.6019 14.7716 8.72264 14.8923C8.84337 15.0131 9.00712 15.0809 9.17786 15.0809H10.4654C10.6362 15.0809 10.7999 15.0131 10.9207 14.8923C11.0414 14.7716 11.1092 14.6078 11.1092 14.4371C11.1092 14.2664 11.0414 14.1026 10.9207 13.9819C10.7999 13.8611 10.6362 13.7933 10.4654 13.7933H9.17786Z" fill="url(#paint0_linear_904_15175)"/>
<defs>
<linearGradient id="paint0_linear_904_15175" x1="0.734552" y1="2.26664" x2="18.2631" y2="3.14881" gradientUnits="userSpaceOnUse">
<stop stop-color="#095AD3"/>
<stop offset="1" stop-color="#166FF4"/>
</linearGradient>
</defs>
</svg>
