<svg width="24" height="22" viewBox="0 0 24 22" fill="none" xmlns="http://www.w3.org/2000/svg">
<path d="M2.09271 2.52189C2.09271 2.20762 2.2238 1.90622 2.45713 1.684C2.69047 1.46177 3.00693 1.33693 3.33692 1.33693H20.7558C21.0858 1.33693 21.4023 1.46177 21.6356 1.684C21.8689 1.90622 22 2.20762 22 2.52189V4.8918C22 5.20607 21.8689 5.50747 21.6356 5.72969C21.4023 5.95192 21.0858 6.07676 20.7558 6.07676H3.33692C3.00693 6.07676 2.69047 5.95192 2.45713 5.72969C2.2238 5.50747 2.09271 5.20607 2.09271 4.8918V2.52189ZM2.09271 12.0016C2.09271 11.6873 2.2238 11.3859 2.45713 11.1637C2.69047 10.9414 3.00693 10.8166 3.33692 10.8166H10.8022C11.1321 10.8166 11.4486 10.9414 11.6819 11.1637C11.9153 11.3859 12.0464 11.6873 12.0464 12.0016V19.1113C12.0464 19.4256 11.9153 19.727 11.6819 19.9492C11.4486 20.1714 11.1321 20.2963 10.8022 20.2963H3.33692C3.00693 20.2963 2.69047 20.1714 2.45713 19.9492C2.2238 19.727 2.09271 19.4256 2.09271 19.1113V12.0016ZM17.0232 12.0016C17.0232 11.6873 17.1543 11.3859 17.3876 11.1637C17.6209 10.9414 17.9374 10.8166 18.2674 10.8166H20.7558C21.0858 10.8166 21.4023 10.9414 21.6356 11.1637C21.8689 11.3859 22 11.6873 22 12.0016V19.1113C22 19.4256 21.8689 19.727 21.6356 19.9492C21.4023 20.1714 21.0858 20.2963 20.7558 20.2963H18.2674C17.9374 20.2963 17.6209 20.1714 17.3876 19.9492C17.1543 19.727 17.0232 19.4256 17.0232 19.1113V12.0016Z" fill="url(#paint0_linear_258_2215)" stroke="url(#paint1_linear_258_2215)" stroke-width="2.48841" stroke-linecap="round" stroke-linejoin="round"/>
<defs>
<linearGradient id="paint0_linear_258_2215" x1="2.70099" y1="3.14258" x2="21.4079" y2="3.89256" gradientUnits="userSpaceOnUse">
<stop stop-color="#095AD3"/>
<stop offset="1" stop-color="#166FF4"/>
</linearGradient>
<linearGradient id="paint1_linear_258_2215" x1="2.70099" y1="3.14258" x2="21.4079" y2="3.89256" gradientUnits="userSpaceOnUse">
<stop stop-color="#095AD3"/>
<stop offset="1" stop-color="#166FF4"/>
</linearGradient>
</defs>
</svg>
