<svg width="24" height="23" viewBox="0 0 24 23" fill="none" xmlns="http://www.w3.org/2000/svg">
<path d="M2.09271 3.18496C2.09271 2.87069 2.2238 2.56929 2.45713 2.34707C2.69047 2.12484 3.00693 2 3.33692 2H20.7558C21.0858 2 21.4023 2.12484 21.6356 2.34707C21.8689 2.56929 22 2.87069 22 3.18496V5.55487C22 5.86914 21.8689 6.17054 21.6356 6.39277C21.4023 6.61499 21.0858 6.73983 20.7558 6.73983H3.33692C3.00693 6.73983 2.69047 6.61499 2.45713 6.39277C2.2238 6.17054 2.09271 5.86914 2.09271 5.55487V3.18496ZM2.09271 12.6646C2.09271 12.3504 2.2238 12.049 2.45713 11.8267C2.69047 11.6045 3.00693 11.4797 3.33692 11.4797H10.8022C11.1321 11.4797 11.4486 11.6045 11.6819 11.8267C11.9153 12.049 12.0464 12.3504 12.0464 12.6646V19.7744C12.0464 20.0886 11.9153 20.39 11.6819 20.6123C11.4486 20.8345 11.1321 20.9593 10.8022 20.9593H3.33692C3.00693 20.9593 2.69047 20.8345 2.45713 20.6123C2.2238 20.39 2.09271 20.0886 2.09271 19.7744V12.6646ZM17.0232 12.6646C17.0232 12.3504 17.1543 12.049 17.3876 11.8267C17.6209 11.6045 17.9374 11.4797 18.2674 11.4797H20.7558C21.0858 11.4797 21.4023 11.6045 21.6356 11.8267C21.8689 12.049 22 12.3504 22 12.6646V19.7744C22 20.0886 21.8689 20.39 21.6356 20.6123C21.4023 20.8345 21.0858 20.9593 20.7558 20.9593H18.2674C17.9374 20.9593 17.6209 20.8345 17.3876 20.6123C17.1543 20.39 17.0232 20.0886 17.0232 19.7744V12.6646Z" stroke="url(#paint0_linear_258_2195)" stroke-width="2.48841" stroke-linecap="round" stroke-linejoin="round"/>
<defs>
<linearGradient id="paint0_linear_258_2195" x1="2.70099" y1="3.80565" x2="21.4079" y2="4.55563" gradientUnits="userSpaceOnUse">
<stop stop-color="#095AD3"/>
<stop offset="1" stop-color="#166FF4"/>
</linearGradient>
</defs>
</svg>
