<svg width="15" height="15" viewBox="0 0 15 15" fill="none" xmlns="http://www.w3.org/2000/svg">
<path fill-rule="evenodd" clip-rule="evenodd" d="M2.56663 0.765839C2.06281 0.765839 1.57963 0.965978 1.22338 1.32223C0.867132 1.67848 0.666992 2.16166 0.666992 2.66547V4.77618C0.666992 5.27999 0.867132 5.76317 1.22338 6.11942C1.57963 6.47567 2.06281 6.67581 2.56663 6.67581H4.67733C5.18115 6.67581 5.66433 6.47567 6.02058 6.11942C6.37683 5.76317 6.57697 5.27999 6.57697 4.77618V2.66547C6.57697 2.16166 6.37683 1.67848 6.02058 1.32223C5.66433 0.965978 5.18115 0.765839 4.67733 0.765839H2.56663ZM2.56663 8.36438C2.06281 8.36438 1.57963 8.56452 1.22338 8.92077C0.867132 9.27702 0.666992 9.7602 0.666992 10.264V12.3747C0.666992 12.8785 0.867132 13.3617 1.22338 13.718C1.57963 14.0742 2.06281 14.2744 2.56663 14.2744H4.67733C5.18115 14.2744 5.66433 14.0742 6.02058 13.718C6.37683 13.3617 6.57697 12.8785 6.57697 12.3747V10.264C6.57697 9.7602 6.37683 9.27702 6.02058 8.92077C5.66433 8.56452 5.18115 8.36438 4.67733 8.36438H2.56663ZM10.1652 0.765839C9.66135 0.765839 9.17817 0.965978 8.82192 1.32223C8.46567 1.67848 8.26553 2.16166 8.26553 2.66547V4.77618C8.26553 5.27999 8.46567 5.76317 8.82192 6.11942C9.17817 6.47567 9.66135 6.67581 10.1652 6.67581H12.2759C12.7797 6.67581 13.2629 6.47567 13.6191 6.11942C13.9754 5.76317 14.1755 5.27999 14.1755 4.77618V2.66547C14.1755 2.16166 13.9754 1.67848 13.6191 1.32223C13.2629 0.965978 12.7797 0.765839 12.2759 0.765839H10.1652ZM10.1652 8.36438C9.66135 8.36438 9.17817 8.56452 8.82192 8.92077C8.46567 9.27702 8.26553 9.7602 8.26553 10.264V12.3747C8.26553 12.8785 8.46567 13.3617 8.82192 13.718C9.17817 14.0742 9.66135 14.2744 10.1652 14.2744H12.2759C12.7797 14.2744 13.2629 14.0742 13.6191 13.718C13.9754 13.3617 14.1755 12.8785 14.1755 12.3747V10.264C14.1755 9.7602 13.9754 9.27702 13.6191 8.92077C13.2629 8.56452 12.7797 8.36438 12.2759 8.36438H10.1652Z" fill="url(#paint0_linear_428_21266)"/>
<defs>
<linearGradient id="paint0_linear_428_21266" x1="1.07975" y1="2.05236" x2="13.7756" y2="2.53711" gradientUnits="userSpaceOnUse">
<stop stop-color="#095AD3"/>
<stop offset="1" stop-color="#166FF4"/>
</linearGradient>
</defs>
</svg>
