<svg width="15" height="15" viewBox="0 0 15 15" fill="none" xmlns="http://www.w3.org/2000/svg">
<path fill-rule="evenodd" clip-rule="evenodd" d="M2.56663 0.765869C2.06281 0.765869 1.57963 0.966009 1.22338 1.32226C0.867132 1.67851 0.666992 2.16169 0.666992 2.6655V4.77621C0.666992 5.28002 0.867132 5.7632 1.22338 6.11945C1.57963 6.4757 2.06281 6.67584 2.56663 6.67584H4.67733C5.18115 6.67584 5.66433 6.4757 6.02058 6.11945C6.37683 5.7632 6.57697 5.28002 6.57697 4.77621V2.6655C6.57697 2.16169 6.37683 1.67851 6.02058 1.32226C5.66433 0.966009 5.18115 0.765869 4.67733 0.765869H2.56663ZM2.56663 8.36441C2.06281 8.36441 1.57963 8.56455 1.22338 8.9208C0.867132 9.27705 0.666992 9.76023 0.666992 10.264V12.3747C0.666992 12.8786 0.867132 13.3617 1.22338 13.718C1.57963 14.0742 2.06281 14.2744 2.56663 14.2744H4.67733C5.18115 14.2744 5.66433 14.0742 6.02058 13.718C6.37683 13.3617 6.57697 12.8786 6.57697 12.3747V10.264C6.57697 9.76023 6.37683 9.27705 6.02058 8.9208C5.66433 8.56455 5.18115 8.36441 4.67733 8.36441H2.56663ZM10.1652 0.765869C9.66135 0.765869 9.17817 0.966009 8.82192 1.32226C8.46567 1.67851 8.26553 2.16169 8.26553 2.6655V4.77621C8.26553 5.28002 8.46567 5.7632 8.82192 6.11945C9.17817 6.4757 9.66135 6.67584 10.1652 6.67584H12.2759C12.7797 6.67584 13.2629 6.4757 13.6191 6.11945C13.9754 5.7632 14.1755 5.28002 14.1755 4.77621V2.6655C14.1755 2.16169 13.9754 1.67851 13.6191 1.32226C13.2629 0.966009 12.7797 0.765869 12.2759 0.765869H10.1652ZM10.1652 8.36441C9.66135 8.36441 9.17817 8.56455 8.82192 8.9208C8.46567 9.27705 8.26553 9.76023 8.26553 10.264V12.3747C8.26553 12.8786 8.46567 13.3617 8.82192 13.718C9.17817 14.0742 9.66135 14.2744 10.1652 14.2744H12.2759C12.7797 14.2744 13.2629 14.0742 13.6191 13.718C13.9754 13.3617 14.1755 12.8786 14.1755 12.3747V10.264C14.1755 9.76023 13.9754 9.27705 13.6191 8.9208C13.2629 8.56455 12.7797 8.36441 12.2759 8.36441H10.1652Z" fill="white"/>
</svg>
