<svg width="19" height="18" viewBox="0 0 19 18" fill="none" xmlns="http://www.w3.org/2000/svg">
<path d="M14.9843 8.4718C14.9059 8.55046 14.8128 8.61287 14.7102 8.65546C14.6077 8.69804 14.4977 8.71996 14.3867 8.71996C14.2756 8.71996 14.1657 8.69804 14.0631 8.65546C13.9605 8.61287 13.8674 8.55046 13.789 8.4718L10.1686 4.85141V15.1873C10.1686 15.4111 10.0797 15.6257 9.92148 15.784C9.76325 15.9422 9.54864 16.0311 9.32486 16.0311C9.10109 16.0311 8.88648 15.9422 8.72824 15.784C8.57001 15.6257 8.48111 15.4111 8.48111 15.1873V4.85141L4.85932 8.4718C4.70081 8.63031 4.48582 8.71936 4.26166 8.71936C4.0375 8.71936 3.82251 8.63031 3.664 8.4718C3.5055 8.31329 3.41645 8.09831 3.41645 7.87414C3.41645 7.64998 3.5055 7.43499 3.664 7.27649L8.7265 2.21399C8.80489 2.13533 8.89804 2.07291 9.00059 2.03033C9.10315 1.98774 9.21311 1.96582 9.32416 1.96582C9.43521 1.96582 9.54517 1.98774 9.64773 2.03033C9.75029 2.07291 9.84343 2.13533 9.92182 2.21399L14.9843 7.27649C15.063 7.35487 15.1254 7.44802 15.168 7.55058C15.2106 7.65314 15.2325 7.76309 15.2325 7.87414C15.2325 7.98519 15.2106 8.09515 15.168 8.19771C15.1254 8.30027 15.063 8.39341 14.9843 8.4718Z" fill="#383D44"/>
</svg>
