<svg width="18" height="16" viewBox="0 0 18 16" fill="none" xmlns="http://www.w3.org/2000/svg">
<path d="M6.25354 2.99792C6.25354 2.33543 6.51671 1.70007 6.98516 1.23162C7.45361 0.763172 8.08897 0.5 8.75146 0.5C9.41395 0.5 10.0493 0.763172 10.5178 1.23162C10.9862 1.70007 11.2494 2.33543 11.2494 2.99792C11.2494 3.6604 10.9862 4.29576 10.5178 4.76421C10.0493 5.23266 9.41395 5.49583 8.75146 5.49583C8.08897 5.49583 7.45361 5.23266 6.98516 4.76421C6.51671 4.29576 6.25354 3.6604 6.25354 2.99792ZM8.75146 1.75021C8.58761 1.75021 8.42536 1.78248 8.27398 1.84518C8.1226 1.90789 7.98506 1.99979 7.86919 2.11565C7.75333 2.23151 7.66143 2.36906 7.59873 2.52044C7.53602 2.67182 7.50375 2.83406 7.50375 2.99792C7.50375 3.16177 7.53602 3.32401 7.59873 3.47539C7.66143 3.62677 7.75333 3.76432 7.86919 3.88018C7.98506 3.99604 8.1226 4.08794 8.27398 4.15065C8.42536 4.21335 8.58761 4.24562 8.75146 4.24562C9.08237 4.24562 9.39973 4.11417 9.63372 3.88018C9.86771 3.64619 9.99917 3.32883 9.99917 2.99792C9.99917 2.667 9.86771 2.34964 9.63372 2.11565C9.39973 1.88166 9.08237 1.75021 8.75146 1.75021ZM12.5021 3.62302C12.5021 3.37675 12.5506 3.13289 12.6448 2.90537C12.7391 2.67785 12.8772 2.47111 13.0513 2.29697C13.2255 2.12284 13.4322 1.9847 13.6597 1.89046C13.8873 1.79621 14.1311 1.74771 14.3774 1.74771C14.6237 1.74771 14.8675 1.79621 15.095 1.89046C15.3226 1.9847 15.5293 2.12284 15.7034 2.29697C15.8776 2.47111 16.0157 2.67785 16.11 2.90537C16.2042 3.13289 16.2527 3.37675 16.2527 3.62302C16.2527 4.12038 16.0551 4.59738 15.7034 4.94907C15.3518 5.30076 14.8748 5.49833 14.3774 5.49833C13.88 5.49833 13.403 5.30076 13.0513 4.94907C12.6997 4.59738 12.5021 4.12038 12.5021 3.62302ZM14.3774 2.99792C14.2116 2.99792 14.0526 3.06378 13.9354 3.18101C13.8181 3.29823 13.7523 3.45723 13.7523 3.62302C13.7523 3.78881 13.8181 3.94781 13.9354 4.06504C14.0526 4.18227 14.2116 4.24812 14.3774 4.24812C14.5432 4.24812 14.7022 4.18227 14.8194 4.06504C14.9366 3.94781 15.0025 3.78881 15.0025 3.62302C15.0025 3.45723 14.9366 3.29823 14.8194 3.18101C14.7022 3.06378 14.5432 2.99792 14.3774 2.99792ZM3.12552 1.74771C2.62816 1.74771 2.15116 1.94528 1.79947 2.29697C1.44779 2.64866 1.25021 3.12566 1.25021 3.62302C1.25021 4.12038 1.44779 4.59738 1.79947 4.94907C2.15116 5.30076 2.62816 5.49833 3.12552 5.49833C3.62288 5.49833 4.09988 5.30076 4.45157 4.94907C4.80326 4.59738 5.00083 4.12038 5.00083 3.62302C5.00083 3.12566 4.80326 2.64866 4.45157 2.29697C4.09988 1.94528 3.62288 1.74771 3.12552 1.74771ZM2.50042 3.62302C2.50042 3.45723 2.56628 3.29823 2.68351 3.18101C2.80074 3.06378 2.95973 2.99792 3.12552 2.99792C3.29131 2.99792 3.45031 3.06378 3.56754 3.18101C3.68477 3.29823 3.75063 3.45723 3.75063 3.62302C3.75063 3.78881 3.68477 3.94781 3.56754 4.06504C3.45031 4.18227 3.29131 4.24812 3.12552 4.24812C2.95973 4.24812 2.80074 4.18227 2.68351 4.06504C2.56628 3.94781 2.50042 3.78881 2.50042 3.62302ZM4.08568 6.74854C3.86565 7.12842 3.75005 7.55975 3.75063 7.99875H1.25021V11.1243C1.25011 11.4352 1.32734 11.7414 1.47495 12.0151C1.62257 12.2888 1.83593 12.5215 2.09583 12.6922C2.35574 12.863 2.65402 12.9664 2.96384 12.9932C3.27365 13.02 3.58527 12.9694 3.87065 12.8458C3.96316 13.2596 4.10818 13.6547 4.29572 14.0235C3.82122 14.2151 3.30694 14.2872 2.79804 14.2336C2.28914 14.18 1.80119 14.0023 1.37703 13.716C0.952879 13.4297 0.6055 13.0437 0.365402 12.5918C0.125303 12.1399 -0.000170088 11.636 1.73045e-07 11.1243V7.99875C1.73045e-07 7.66717 0.131718 7.34918 0.366178 7.11472C0.600637 6.88026 0.918633 6.74854 1.25021 6.74854H4.08568ZM13.2072 14.0235C13.6817 14.2151 14.196 14.2872 14.7049 14.2336C15.2138 14.18 15.7017 14.0023 16.1259 13.716C16.55 13.4297 16.8974 13.0437 17.1375 12.5918C17.3776 12.1399 17.5031 11.636 17.5029 11.1243V7.99875C17.5029 7.66717 17.3712 7.34918 17.1367 7.11472C16.9023 6.88026 16.5843 6.74854 16.2527 6.74854H13.4172C13.6298 7.1161 13.7523 7.54242 13.7523 7.99875H16.2527V11.1243C16.2528 11.4352 16.1756 11.7414 16.028 12.0151C15.8803 12.2888 15.667 12.5215 15.4071 12.6922C15.1472 12.863 14.8489 12.9664 14.5391 12.9932C14.2293 13.02 13.9176 12.9694 13.6323 12.8458C13.5385 13.2596 13.3947 13.6547 13.2072 14.0235ZM6.25104 6.74729C5.91947 6.74729 5.60147 6.87901 5.36701 7.11347C5.13255 7.34793 5.00083 7.66592 5.00083 7.9975V11.7494C5.00083 12.7441 5.39599 13.6981 6.09937 14.4015C6.80274 15.1048 7.75673 15.5 8.75146 15.5C9.74619 15.5 10.7002 15.1048 11.4036 14.4015C12.1069 13.6981 12.5021 12.7441 12.5021 11.7494V7.99875C12.5021 7.66717 12.3704 7.34918 12.1359 7.11472C11.9014 6.88026 11.5835 6.74854 11.2519 6.74854L6.25104 6.74729ZM6.25104 7.9975H11.2519V11.7494C11.2519 12.4125 10.9884 13.0485 10.5195 13.5174C10.0506 13.9864 9.41461 14.2498 8.75146 14.2498C8.08831 14.2498 7.45232 13.9864 6.9834 13.5174C6.51448 13.0485 6.25104 12.4125 6.25104 11.7494V7.9975Z" fill="url(#paint0_linear_3449_42992)"/>
<defs>
<linearGradient id="paint0_linear_3449_42992" x1="0.534811" y1="1.92857" x2="16.9761" y2="2.66108" gradientUnits="userSpaceOnUse">
<stop stop-color="#095AD3"/>
<stop offset="1" stop-color="#166FF4"/>
</linearGradient>
</defs>
</svg>
