<svg width="14" height="13" viewBox="0 0 14 13" fill="none" xmlns="http://www.w3.org/2000/svg">
<path d="M3.80179 2.14111H7.28682C7.78445 2.14127 8.27243 2.27837 8.69733 2.5374C9.12222 2.79644 9.46763 3.16741 9.69573 3.60968C9.92382 4.05195 10.0258 4.54847 9.99049 5.04484C9.95518 5.54121 9.78395 6.01829 9.49556 6.42383C9.99579 6.73502 10.381 7.20077 10.5928 7.75051C10.8046 8.30026 10.8315 8.90405 10.6693 9.47044C10.5072 10.0368 10.1649 10.5349 9.6943 10.8894C9.22369 11.2438 8.65041 11.4351 8.06127 11.4345H3.80179C3.5964 11.4345 3.39941 11.3529 3.25418 11.2077C3.10894 11.0625 3.02734 10.8655 3.02734 10.6601V2.91556C3.02734 2.71017 3.10894 2.51318 3.25418 2.36794C3.39941 2.22271 3.5964 2.14111 3.80179 2.14111ZM4.57625 7.56227V9.88562H8.06127C8.36937 9.88562 8.66485 9.76323 8.8827 9.54537C9.10056 9.32752 9.22295 9.03204 9.22295 8.72394C9.22295 8.41585 9.10056 8.12037 8.8827 7.90251C8.66485 7.68466 8.36937 7.56227 8.06127 7.56227H4.57625ZM7.28682 6.01337C7.59492 6.01337 7.8904 5.89098 8.10825 5.67312C8.32611 5.45526 8.4485 5.15979 8.4485 4.85169C8.4485 4.5436 8.32611 4.24812 8.10825 4.03026C7.8904 3.8124 7.59492 3.69001 7.28682 3.69001H4.57625V6.01337H7.28682Z" fill="#444444"/>
</svg>
