<svg width="15" height="15" viewBox="0 0 15 15" fill="none" xmlns="http://www.w3.org/2000/svg">
<path d="M4.20418 2.57349H8.10467C8.66162 2.57366 9.20778 2.72711 9.68332 3.01702C10.1589 3.30693 10.5455 3.72213 10.8007 4.21712C11.056 4.71212 11.1702 5.26783 11.1306 5.82337C11.0911 6.37892 10.8995 6.91287 10.5767 7.36675C11.1366 7.71505 11.5677 8.23632 11.8047 8.8516C12.0418 9.46688 12.0719 10.1427 11.8904 10.7766C11.709 11.4105 11.3259 11.968 10.7992 12.3646C10.2724 12.7613 9.63081 12.9755 8.97144 12.9748H4.20418C3.97429 12.9748 3.75383 12.8835 3.59127 12.7209C3.42872 12.5584 3.3374 12.3379 3.3374 12.108V3.44026C3.3374 3.21038 3.42872 2.98991 3.59127 2.82736C3.75383 2.66481 3.97429 2.57349 4.20418 2.57349ZM5.07095 8.64091V11.2412H8.97144C9.31627 11.2412 9.64697 11.1043 9.8908 10.8604C10.1346 10.6166 10.2716 10.2859 10.2716 9.94108C10.2716 9.59625 10.1346 9.26555 9.8908 9.02172C9.64697 8.77789 9.31627 8.64091 8.97144 8.64091H5.07095ZM8.10467 6.90736C8.44949 6.90736 8.78019 6.77038 9.02402 6.52655C9.26785 6.28273 9.40483 5.95202 9.40483 5.6072C9.40483 5.26237 9.26785 4.93167 9.02402 4.68785C8.78019 4.44402 8.44949 4.30704 8.10467 4.30704H5.07095V6.90736H8.10467Z" fill="#444444"/>
</svg>
