<svg width="29" height="28" viewBox="0 0 29 28" fill="none" xmlns="http://www.w3.org/2000/svg">
<path fill-rule="evenodd" clip-rule="evenodd" d="M7.67166 8.84939C7.1278 9.39325 6.82227 10.1309 6.82227 10.9V17.1C6.82227 17.8691 7.1278 18.6068 7.67166 19.1506C8.21551 19.6945 8.95314 20 9.72227 20H10.0223V22.328C10.0223 23.0576 10.8455 23.484 11.4411 23.0632L15.7811 20H19.9223C20.6914 20 21.429 19.6945 21.9729 19.1506C22.5167 18.6068 22.8223 17.8691 22.8223 17.1V10.9C22.8223 10.1309 22.5167 9.39325 21.9729 8.84939C21.429 8.30553 20.6914 8 19.9223 8H9.72227C8.95314 8 8.21551 8.30553 7.67166 8.84939ZM15.508 14.5635H17.9366C18.0654 14.5635 18.1889 14.5087 18.28 14.4111C18.3711 14.3135 18.4223 14.1811 18.4223 14.0431C18.4223 13.9051 18.3711 13.7727 18.28 13.6751C18.1889 13.5775 18.0654 13.5227 17.9366 13.5227H15.508V10.9206C15.508 10.7826 15.4568 10.6503 15.3657 10.5527C15.2746 10.4551 15.1511 10.4002 15.0223 10.4002C14.8934 10.4002 14.7699 10.4551 14.6788 10.5527C14.5877 10.6503 14.5366 10.7826 14.5366 10.9206V13.5227H12.108C11.9792 13.5227 11.8556 13.5775 11.7645 13.6751C11.6734 13.7727 11.6223 13.9051 11.6223 14.0431C11.6223 14.1811 11.6734 14.3135 11.7645 14.4111C11.8556 14.5087 11.9792 14.5635 12.108 14.5635H14.5366V17.1655C14.5366 17.3036 14.5877 17.4359 14.6788 17.5335C14.7699 17.6311 14.8934 17.686 15.0223 17.686C15.1511 17.686 15.2746 17.6311 15.3657 17.5335C15.4568 17.4359 15.508 17.3036 15.508 17.1655V14.5635Z" fill="url(#paint0_linear_2612_154610)"/>
<defs>
<linearGradient id="paint0_linear_2612_154610" x1="22.8223" y1="15.6147" x2="6.82227" y2="15.6147" gradientUnits="userSpaceOnUse">
<stop stop-color="#095AD3"/>
<stop offset="1" stop-color="#166FF4"/>
</linearGradient>
</defs>
</svg>
