<svg width="34" height="34" viewBox="0 0 34 34" fill="none" xmlns="http://www.w3.org/2000/svg">
<path fill-rule="evenodd" clip-rule="evenodd" d="M8.85938 16.7032C8.85938 16.0277 9.12772 15.3799 9.60537 14.9022C10.083 14.4246 10.7309 14.1563 11.4064 14.1562H21.5944C22.2699 14.1562 22.9177 14.4246 23.3954 14.9022C23.873 15.3799 24.1414 16.0277 24.1414 16.7032V22.6462C24.1414 23.3218 23.873 23.9696 23.3954 24.4472C22.9177 24.9249 22.2699 25.1932 21.5944 25.1932H11.4064C10.7309 25.1932 10.083 24.9249 9.60537 24.4472C9.12772 23.9696 8.85938 23.3218 8.85938 22.6462V16.7032ZM17.3494 18.4012C17.3494 18.1761 17.2599 17.9601 17.1007 17.8009C16.9415 17.6417 16.7255 17.5522 16.5004 17.5522C16.2752 17.5522 16.0593 17.6417 15.9 17.8009C15.7408 17.9601 15.6514 18.1761 15.6514 18.4012V20.9482C15.6514 21.1734 15.7408 21.3894 15.9 21.5486C16.0593 21.7078 16.2752 21.7972 16.5004 21.7972C16.7255 21.7972 16.9415 21.7078 17.1007 21.5486C17.2599 21.3894 17.3494 21.1734 17.3494 20.9482V18.4012Z" fill="url(#paint0_linear_872_22739)"/>
<path d="M13.1055 15.0053V12.4583C13.1055 11.5576 13.4633 10.6938 14.1001 10.0569C14.737 9.42005 15.6008 9.06226 16.5015 9.06226C17.4021 9.06226 18.2659 9.42005 18.9028 10.0569C19.5397 10.6938 19.8975 11.5576 19.8975 12.4583V15.0053" stroke="url(#paint1_linear_872_22739)" stroke-width="1.698" stroke-linecap="round" stroke-linejoin="round"/>
<defs>
<linearGradient id="paint0_linear_872_22739" x1="9.32632" y1="15.2074" x2="23.6698" y2="15.9657" gradientUnits="userSpaceOnUse">
<stop stop-color="#095AD3"/>
<stop offset="1" stop-color="#166FF4"/>
</linearGradient>
<linearGradient id="paint1_linear_872_22739" x1="13.313" y1="9.62826" x2="19.6936" y2="9.90668" gradientUnits="userSpaceOnUse">
<stop stop-color="#095AD3"/>
<stop offset="1" stop-color="#166FF4"/>
</linearGradient>
</defs>
</svg>
