<svg width="19" height="19" viewBox="0 0 19 19" fill="none" xmlns="http://www.w3.org/2000/svg">
<path d="M14.5391 4.16064L14.5586 3.22314C14.5569 2.64349 14.3259 2.08805 13.9161 1.67817C13.5062 1.26829 12.9507 1.03729 12.3711 1.03564H3.93359C3.27115 1.0376 2.63641 1.30162 2.16799 1.77004C1.69957 2.23846 1.43555 2.87321 1.43359 3.53564V11.9731C1.43524 12.5528 1.66624 13.1082 2.07612 13.5181C2.486 13.928 3.04144 14.159 3.62109 14.1606H4.55859M11.1211 7.59814V13.8481M14.2461 10.7231H7.99609M6.78516 4.16064H15.457C16.6867 4.16064 17.6836 5.15751 17.6836 6.38721V15.0591C17.6836 16.2888 16.6867 17.2856 15.457 17.2856H6.78516C5.55546 17.2856 4.55859 16.2888 4.55859 15.0591V6.38721C4.55859 5.15751 5.55546 4.16064 6.78516 4.16064Z" stroke="url(#paint0_linear_904_13149)" stroke-width="1.5" stroke-linecap="round" stroke-linejoin="round"/>
<defs>
<linearGradient id="paint0_linear_904_13149" x1="1.93012" y1="2.58326" x2="17.2026" y2="3.16639" gradientUnits="userSpaceOnUse">
<stop stop-color="#095AD3"/>
<stop offset="1" stop-color="#166FF4"/>
</linearGradient>
</defs>
</svg>
