<svg width="35" height="34" viewBox="0 0 35 34" fill="none" xmlns="http://www.w3.org/2000/svg">
<path d="M16.0907 11.1635C16.0917 11.2912 16.0529 11.4159 15.9797 11.5205C15.9065 11.6251 15.8026 11.7042 15.6824 11.747L13.2154 12.6444L12.3187 15.1117C12.2745 15.2308 12.1949 15.3335 12.0907 15.406C11.9864 15.4786 11.8624 15.5175 11.7354 15.5175C11.6084 15.5175 11.4845 15.4786 11.3802 15.406C11.2759 15.3335 11.1963 15.2308 11.1521 15.1117L10.255 12.6416L7.78848 11.747C7.66941 11.7028 7.56672 11.6232 7.4942 11.5189C7.42168 11.4146 7.38281 11.2906 7.38281 11.1635C7.38281 11.0365 7.42168 10.9125 7.4942 10.8082C7.56672 10.7039 7.66941 10.6243 7.78848 10.58L10.2578 9.68267L11.1521 7.21536C11.1963 7.09626 11.2759 6.99353 11.3802 6.92099C11.4845 6.84845 11.6084 6.80957 11.7354 6.80957C11.8624 6.80957 11.9864 6.84845 12.0907 6.92099C12.1949 6.99353 12.2745 7.09626 12.3187 7.21536L13.2158 9.68539L15.6824 10.58C15.8026 10.6228 15.9065 10.702 15.9797 10.8065C16.0529 10.9111 16.0917 11.0359 16.0907 11.1635Z" fill="white"/>
<path d="M22.6889 10.3074L21.0609 11.9354L25.4337 16.3078L27.0617 14.6799C27.9026 13.8391 27.9026 12.4769 27.0617 11.636L25.7364 10.3074C24.8955 9.46659 23.5332 9.46659 22.6922 10.3074H22.6889ZM20.3007 12.6955L12.4599 20.539C12.1101 20.8888 11.8544 21.3227 11.7131 21.7969L10.5224 25.8432C10.4383 26.1291 10.5157 26.4351 10.7242 26.6437C10.9328 26.8522 11.2389 26.9296 11.5214 26.8488L15.5679 25.6582C16.0422 25.5169 16.4761 25.2613 16.826 24.9115L24.6735 17.068L20.3007 12.6955Z" fill="white"/>
</svg>
