<svg width="21" height="21" viewBox="0 0 35 34" fill="none" xmlns="http://www.w3.org/2000/svg">
<path d="M16.0868 11.1635C16.0878 11.2912 16.049 11.4159 15.9758 11.5205C15.9026 11.6251 15.7987 11.7042 15.6785 11.747L13.2115 12.6444L12.3148 15.1117C12.2706 15.2308 12.191 15.3335 12.0868 15.406C11.9825 15.4786 11.8585 15.5175 11.7315 15.5175C11.6045 15.5175 11.4806 15.4786 11.3763 15.406C11.272 15.3335 11.1924 15.2308 11.1482 15.1117L10.2511 12.6416L7.78458 11.747C7.66551 11.7028 7.56281 11.6232 7.49029 11.5189C7.41778 11.4146 7.37891 11.2906 7.37891 11.1635C7.37891 11.0365 7.41778 10.9125 7.49029 10.8082C7.56281 10.7039 7.66551 10.6243 7.78458 10.58L10.2539 9.68267L11.1482 7.21536C11.1924 7.09626 11.272 6.99353 11.3763 6.92099C11.4806 6.84845 11.6045 6.80957 11.7315 6.80957C11.8585 6.80957 11.9825 6.84845 12.0868 6.92099C12.191 6.99353 12.2706 7.09626 12.3148 7.21536L13.2119 9.68539L15.6785 10.58C15.7987 10.6228 15.9026 10.702 15.9758 10.8065C16.049 10.9111 16.0878 11.0359 16.0868 11.1635Z" fill="url(#paint0_linear_872_22744)"/>
<path d="M22.685 10.3074L21.0569 11.9354L25.4298 16.3078L27.0578 14.6799C27.8987 13.8391 27.8987 12.4769 27.0578 11.636L25.7325 10.3074C24.8916 9.46659 23.5293 9.46659 22.6883 10.3074H22.685ZM20.2968 12.6955L12.456 20.539C12.1061 20.8888 11.8505 21.3227 11.7092 21.7969L10.5185 25.8432C10.4344 26.1291 10.5118 26.4351 10.7203 26.6437C10.9289 26.8522 11.2349 26.9296 11.5175 26.8488L15.564 25.6582C16.0383 25.5169 16.4722 25.2613 16.822 24.9115L24.6696 17.068L20.2968 12.6955Z" fill="url(#paint1_linear_872_22744)"/>
<defs>
<linearGradient id="paint0_linear_872_22744" x1="7.99948" y1="8.72106" x2="27.0866" y2="9.45852" gradientUnits="userSpaceOnUse">
<stop stop-color="#095AD3"/>
<stop offset="1" stop-color="#166FF4"/>
</linearGradient>
<linearGradient id="paint1_linear_872_22744" x1="7.99948" y1="8.72106" x2="27.0866" y2="9.45852" gradientUnits="userSpaceOnUse">
<stop stop-color="#095AD3"/>
<stop offset="1" stop-color="#166FF4"/>
</linearGradient>
</defs>
</svg>
