<svg width="28" height="28" viewBox="0 0 28 28" fill="none" xmlns="http://www.w3.org/2000/svg">
<rect width="27.5486" height="27.5486" rx="6" fill="url(#paint0_linear_2612_154606)"/>
<path d="M12.5897 9.12715C12.5905 9.23152 12.5588 9.33355 12.499 9.41906C12.4392 9.50456 12.3542 9.5693 12.2559 9.60426L10.2386 10.3381L9.50537 12.3556C9.46923 12.453 9.40416 12.537 9.3189 12.5963C9.23364 12.6556 9.13227 12.6874 9.02841 12.6874C8.92456 12.6874 8.82319 12.6556 8.73792 12.5963C8.65266 12.537 8.58759 12.453 8.55145 12.3556L7.81788 10.3358L5.80096 9.60426C5.70359 9.56811 5.61962 9.50302 5.56032 9.41773C5.50102 9.33244 5.46924 9.23104 5.46924 9.12715C5.46924 9.02326 5.50102 8.92187 5.56032 8.83658C5.61962 8.75129 5.70359 8.6862 5.80096 8.65004L7.8201 7.91625L8.55145 5.89872C8.58759 5.80132 8.65266 5.71732 8.73792 5.65801C8.82319 5.59869 8.92456 5.56689 9.02841 5.56689C9.13227 5.56689 9.23364 5.59869 9.3189 5.65801C9.40416 5.71732 9.46923 5.80132 9.50537 5.89872L10.2389 7.91848L12.2559 8.65004C12.3542 8.68501 12.4392 8.74974 12.499 8.83525C12.5588 8.92075 12.5905 9.02278 12.5897 9.12715Z" fill="white"/>
<path d="M17.9851 8.42714L16.6539 9.75829L20.2296 13.3337L21.5608 12.0025C22.2484 11.315 22.2484 10.2011 21.5608 9.51351L20.4771 8.42714C19.7895 7.73956 18.6755 7.73956 17.9879 8.42714H17.9851ZM16.0323 10.3799L9.62079 16.7936C9.33474 17.0796 9.1257 17.4344 9.01018 17.8222L8.03649 21.1308C7.96773 21.3646 8.03099 21.6149 8.20152 21.7854C8.37206 21.9559 8.62235 22.0192 8.8534 21.9532L12.1623 20.9796C12.5501 20.864 12.9049 20.655 13.191 20.369L19.6079 13.9553L16.0323 10.3799Z" fill="white"/>
<defs>
<linearGradient id="paint0_linear_2612_154606" x1="27.5486" y1="13.7743" x2="0" y2="13.7743" gradientUnits="userSpaceOnUse">
<stop stop-color="#095AD3"/>
<stop offset="1" stop-color="#166FF4"/>
</linearGradient>
</defs>
</svg>
