<svg width="16" height="17" viewBox="0 0 16 17" fill="none" xmlns="http://www.w3.org/2000/svg">
<path d="M11.1276 4.86572H7.20518C7.0318 4.86572 6.86552 4.9346 6.74292 5.0572C6.62032 5.17979 6.55145 5.34607 6.55145 5.51945C6.55145 5.69283 6.62032 5.85911 6.74292 5.98171C6.86552 6.10431 7.0318 6.17318 7.20518 6.17318H8.19885L6.10691 11.403H4.59025C4.41687 11.403 4.2506 11.4719 4.128 11.5945C4.0054 11.7171 3.93652 11.8834 3.93652 12.0568C3.93652 12.2301 4.0054 12.3964 4.128 12.519C4.2506 12.6416 4.41687 12.7105 4.59025 12.7105H8.51264C8.68602 12.7105 8.8523 12.6416 8.9749 12.519C9.0975 12.3964 9.16637 12.2301 9.16637 12.0568C9.16637 11.8834 9.0975 11.7171 8.9749 11.5945C8.8523 11.4719 8.68602 11.403 8.51264 11.403H7.51897L9.61091 6.17318H11.1276C11.3009 6.17318 11.4672 6.10431 11.5898 5.98171C11.7124 5.85911 11.7813 5.69283 11.7813 5.51945C11.7813 5.34607 11.7124 5.17979 11.5898 5.0572C11.4672 4.9346 11.3009 4.86572 11.1276 4.86572Z" fill="#444444"/>
</svg>
