<svg width="17" height="18" viewBox="0 0 17 18" fill="none" xmlns="http://www.w3.org/2000/svg">
<g clip-path="url(#clip0_872_22603)">
<path fill-rule="evenodd" clip-rule="evenodd" d="M3.458 3.26005C3.37695 3.1792 3.26714 3.13379 3.15266 3.13379C3.03817 3.13379 2.92836 3.1792 2.84731 3.26005L0.685579 5.42179C0.607847 5.50346 0.565094 5.61226 0.566437 5.725C0.56778 5.83775 0.613112 5.9455 0.692768 6.0253C0.772423 6.1051 0.8801 6.15062 0.992839 6.15216C1.10558 6.1537 1.21446 6.11114 1.29627 6.03356L2.72085 4.61005V13.3305L1.29627 11.907C1.21446 11.8294 1.10558 11.7868 0.992839 11.7884C0.8801 11.7899 0.772423 11.8354 0.692768 11.9152C0.613112 11.995 0.56778 12.1028 0.566437 12.2155C0.565094 12.3283 0.607847 12.4371 0.685579 12.5188L2.84731 14.6805C2.92836 14.7614 3.03817 14.8068 3.15266 14.8068C3.26714 14.8068 3.37695 14.7614 3.458 14.6805L5.61974 12.5188C5.69747 12.4371 5.74022 12.3283 5.73888 12.2155C5.73754 12.1028 5.69221 11.995 5.61255 11.9152C5.53289 11.8354 5.42522 11.7899 5.31248 11.7884C5.19974 11.7868 5.09086 11.8294 5.00905 11.907L3.58447 13.3305V4.61005L5.00905 6.03356C5.09086 6.11114 5.19974 6.1537 5.31248 6.15216C5.42522 6.15062 5.53289 6.1051 5.61255 6.0253C5.69221 5.9455 5.73754 5.83775 5.73888 5.725C5.74022 5.61226 5.69747 5.50346 5.61974 5.42179L3.458 3.26005ZM11.8001 3.83615C11.9112 3.8362 12.0196 3.87047 12.1105 3.93429C12.2014 3.99811 12.2704 4.08839 12.3081 4.19284L15.5507 13.1857C15.5948 13.3193 15.5851 13.4648 15.5236 13.5913C15.4621 13.7178 15.3537 13.8154 15.2214 13.8632C15.0891 13.9111 14.9433 13.9055 14.8151 13.8476C14.6869 13.7897 14.5863 13.684 14.5347 13.5532L13.4733 10.6089H10.127L9.06554 13.5521C9.01397 13.683 8.91339 13.7886 8.78517 13.8465C8.65695 13.9044 8.51121 13.91 8.37891 13.8622C8.24662 13.8143 8.13819 13.7168 8.07669 13.5902C8.01518 13.4637 8.00544 13.3182 8.04953 13.1846L11.2921 4.19284C11.3299 4.08839 11.3989 3.99811 11.4898 3.93429C11.5807 3.87047 11.6891 3.8362 11.8001 3.83615ZM11.8001 5.96979L13.1415 9.69013H10.4599L11.8001 5.96979Z" fill="#444444"/>
</g>
<defs>
<clipPath id="clip0_872_22603">
<rect width="16.213" height="16.213" fill="white" transform="translate(0.451172 0.86377)"/>
</clipPath>
</defs>
</svg>
