<svg width="10" height="13" viewBox="0 0 10 13" fill="none" xmlns="http://www.w3.org/2000/svg">
<path d="M1.44382 4.48945V5.49951H1.20018V4.71731H1.19426L0.96838 4.8554V4.64432L1.21744 4.48945H1.44382Z" fill="#444444"/>
<path d="M0.879112 8.74243V8.56686L1.24753 8.24431C1.27515 8.21932 1.29865 8.19647 1.31805 8.17575C1.33745 8.15471 1.35225 8.13367 1.36244 8.11263C1.37263 8.09125 1.37773 8.06807 1.37773 8.04309C1.37773 8.01514 1.37165 7.9913 1.35948 7.97157C1.34732 7.95152 1.33055 7.93606 1.30918 7.92521C1.2878 7.91436 1.26331 7.90894 1.23569 7.90894C1.20774 7.90894 1.18325 7.91469 1.1622 7.9262C1.14116 7.93738 1.12472 7.95365 1.11289 7.97503C1.10138 7.9964 1.09562 8.02237 1.09562 8.05295H0.864317C0.864317 7.98423 0.87977 7.92488 0.910677 7.87491C0.941583 7.82493 0.984984 7.78646 1.04088 7.7595C1.0971 7.73221 1.16237 7.71857 1.23668 7.71857C1.31329 7.71857 1.37987 7.73139 1.43642 7.75703C1.49297 7.78268 1.5367 7.81852 1.56761 7.86455C1.59884 7.91025 1.61446 7.96335 1.61446 8.02385C1.61446 8.06232 1.60673 8.10046 1.59128 8.13827C1.57583 8.17608 1.54804 8.21784 1.50793 8.26354C1.46815 8.30924 1.4116 8.36399 1.33827 8.42778L1.21744 8.53924V8.54565H1.62679V8.74243H0.879112Z" fill="#444444"/>
<path d="M1.24296 11.9176C1.16603 11.9176 1.0978 11.9045 1.03829 11.8782C0.979107 11.8515 0.932418 11.8149 0.898223 11.7682C0.864029 11.7215 0.846603 11.6677 0.845945 11.6069H1.09155C1.09254 11.6289 1.09961 11.6485 1.11276 11.6656C1.12591 11.6824 1.14383 11.6955 1.16652 11.7051C1.18921 11.7146 1.21502 11.7194 1.24395 11.7194C1.27288 11.7194 1.29837 11.7143 1.3204 11.7041C1.34275 11.6935 1.36018 11.6792 1.37267 11.6612C1.38517 11.6427 1.39125 11.6217 1.39092 11.598C1.39125 11.5744 1.38451 11.5533 1.3707 11.5349C1.35689 11.5165 1.33733 11.5022 1.31201 11.492C1.28702 11.4818 1.25743 11.4767 1.22324 11.4767H1.12509V11.3031H1.22324C1.25316 11.3031 1.27946 11.2982 1.30215 11.2883C1.32516 11.2784 1.34308 11.2646 1.35591 11.2469C1.36873 11.2288 1.37498 11.2081 1.37465 11.1847C1.37498 11.162 1.36955 11.1422 1.35837 11.1251C1.34752 11.1076 1.33223 11.0942 1.3125 11.0846C1.29311 11.0751 1.27058 11.0703 1.24494 11.0703C1.21798 11.0703 1.19348 11.0751 1.17145 11.0846C1.14975 11.0942 1.13249 11.1076 1.11967 11.1251C1.10684 11.1425 1.1001 11.1627 1.09945 11.1857H0.866166C0.866824 11.1256 0.883592 11.0726 0.916472 11.0269C0.949351 10.9809 0.994067 10.9449 1.05062 10.9189C1.1075 10.8929 1.17227 10.8799 1.24494 10.8799C1.31727 10.8799 1.38089 10.8926 1.4358 10.9179C1.49071 10.9432 1.53345 10.9778 1.56403 11.0215C1.59461 11.0649 1.6099 11.114 1.6099 11.169C1.61023 11.2258 1.59165 11.2727 1.55417 11.3095C1.51701 11.3463 1.46918 11.369 1.41065 11.3776V11.3855C1.4889 11.3947 1.54792 11.42 1.58771 11.4614C1.62782 11.5028 1.64771 11.5546 1.64738 11.6168C1.64738 11.6753 1.63012 11.7272 1.5956 11.7726C1.5614 11.8177 1.51373 11.8532 1.45257 11.8791C1.39174 11.9048 1.32188 11.9176 1.24296 11.9176Z" fill="#444444"/>
<path d="M2.86914 4.82324L9.35434 4.82324" stroke="#444444" stroke-width="1.08087" stroke-linecap="round"/>
<path d="M2.86914 8.06567L9.35434 8.06567" stroke="#444444" stroke-width="1.08087" stroke-linecap="round"/>
<path d="M2.86914 11.3083L9.35434 11.3084" stroke="#444444" stroke-width="1.08087" stroke-linecap="round"/>
</svg>
