<svg width="34" height="34" viewBox="0 0 34 34" fill="none" xmlns="http://www.w3.org/2000/svg">
<path d="M19.7734 19.1735L24.1816 14.7652L19.7734 10.3569" stroke="url(#paint0_linear_872_22753)" stroke-width="1.76331" stroke-linecap="round" stroke-linejoin="round"/>
<path d="M24.1816 14.7654H14.9243C14.2875 14.7654 13.6569 14.8908 13.0686 15.1345C12.4803 15.3782 11.9457 15.7354 11.4954 16.1856C11.0452 16.6359 10.688 17.1705 10.4443 17.7588C10.2006 18.3471 10.0752 18.9777 10.0752 19.6145C10.0752 20.2513 10.2006 20.8818 10.4443 21.4701C10.688 22.0585 11.0452 22.593 11.4954 23.0433C11.9457 23.4936 12.4803 23.8508 13.0686 24.0945C13.6569 24.3381 14.2875 24.4636 14.9243 24.4636H18.0101" stroke="url(#paint1_linear_872_22753)" stroke-width="1.76331" stroke-linecap="round" stroke-linejoin="round"/>
<defs>
<linearGradient id="paint0_linear_872_22753" x1="24.0469" y1="11.1966" x2="19.8993" y2="11.2758" gradientUnits="userSpaceOnUse">
<stop stop-color="#095AD3"/>
<stop offset="1" stop-color="#166FF4"/>
</linearGradient>
<linearGradient id="paint1_linear_872_22753" x1="23.7506" y1="15.689" x2="10.5143" y2="16.4241" gradientUnits="userSpaceOnUse">
<stop stop-color="#095AD3"/>
<stop offset="1" stop-color="#166FF4"/>
</linearGradient>
</defs>
</svg>
