<svg width="18" height="18" viewBox="0 0 18 18" fill="none" xmlns="http://www.w3.org/2000/svg">
<path d="M1.05078 9.42907C1.26114 11.3095 2.15529 13.0471 3.56318 14.3113C4.97108 15.5755 6.79451 16.2782 8.68669 16.2857C10.5789 16.2932 12.4078 15.605 13.8257 14.352C15.2435 13.099 16.1514 11.3685 16.3767 9.48978C16.6019 7.61104 16.1288 5.71504 15.0473 4.16237C13.9658 2.6097 12.3514 1.50866 10.5111 1.06866C8.67077 0.628653 6.73292 0.880376 5.06608 1.77595C3.39924 2.67153 2.11969 4.14849 1.47078 5.92593" stroke="url(#paint0_linear_904_13146)" stroke-width="1.71429" stroke-linecap="round" stroke-linejoin="round"/>
<path d="M1 1.71558V6.00129H5.28571M7.85714 8.57186C7.85714 8.79919 7.94745 9.01721 8.10819 9.17795C8.26894 9.3387 8.48696 9.42901 8.71429 9.42901C8.94161 9.42901 9.15963 9.3387 9.32038 9.17795C9.48112 9.01721 9.57143 8.79919 9.57143 8.57186C9.57143 8.34453 9.48112 8.12652 9.32038 7.96577C9.15963 7.80503 8.94161 7.71472 8.71429 7.71472C8.48696 7.71472 8.26894 7.80503 8.10819 7.96577C7.94745 8.12652 7.85714 8.34453 7.85714 8.57186Z" stroke="url(#paint1_linear_904_13146)" stroke-width="1.71429" stroke-linecap="round" stroke-linejoin="round"/>
<defs>
<linearGradient id="paint0_linear_904_13146" x1="1.52075" y1="2.32657" x2="15.9764" y2="2.8768" gradientUnits="userSpaceOnUse">
<stop stop-color="#095AD3"/>
<stop offset="1" stop-color="#166FF4"/>
</linearGradient>
<linearGradient id="paint1_linear_904_13146" x1="1.2619" y1="2.45019" x2="9.31494" y2="2.79187" gradientUnits="userSpaceOnUse">
<stop stop-color="#095AD3"/>
<stop offset="1" stop-color="#166FF4"/>
</linearGradient>
</defs>
</svg>
