<svg width="18" height="19" viewBox="0 0 18 19" fill="none" xmlns="http://www.w3.org/2000/svg">
<path d="M1.05078 10.4999C1.26539 12.4184 2.1776 14.1911 3.61394 15.4808C5.05027 16.7706 6.91054 17.4874 8.84094 17.4951C10.7713 17.5027 12.6372 16.8006 14.0837 15.5223C15.5302 14.2439 16.4565 12.4786 16.6863 10.5619C16.9161 8.64518 16.4334 6.71088 15.3301 5.12684C14.2267 3.5428 12.5797 2.41953 10.7022 1.97063C8.8247 1.52174 6.8477 1.77855 5.14719 2.69222C3.44668 3.60588 2.14129 5.11268 1.47927 6.92603" stroke="white" stroke-width="1.74892" stroke-linecap="round" stroke-linejoin="round"/>
<path d="M1 2.63184V7.00412H5.37229M7.99566 9.62662C7.99566 9.85854 8.08779 10.081 8.25178 10.245C8.41578 10.4089 8.6382 10.5011 8.87012 10.5011C9.10204 10.5011 9.32446 10.4089 9.48845 10.245C9.65245 10.081 9.74458 9.85854 9.74458 9.62662C9.74458 9.3947 9.65245 9.17228 9.48845 9.00829C9.32446 8.84429 9.10204 8.75216 8.87012 8.75216C8.6382 8.75216 8.41578 8.84429 8.25178 9.00829C8.08779 9.17228 7.99566 9.3947 7.99566 9.62662Z" stroke="white" stroke-width="1.74892" stroke-linecap="round" stroke-linejoin="round"/>
</svg>
