<svg
            width="27"
            height="27"
            viewBox="0 0 26 26"
            fill="none"
            xmlns="http://www.w3.org/2000/svg"
          >
            <rect
              x="0.0566406"
              y="0.199219"
              width="25.1305"
              height="25.1305"
              rx="12.5653"
              fill="#095AD3"
              fill-opacity="0.1"
            />
            <path
              d="M8.68441 5.99365C8.17215 5.99365 7.68087 6.19715 7.31865 6.55937C6.95642 6.92159 6.75293 7.41287 6.75293 7.92513V17.5825C6.75293 18.0948 6.95642 18.5861 7.31865 18.9483C7.68087 19.3105 8.17215 19.514 8.68441 19.514H11.5855C11.5922 19.4039 11.6096 19.2919 11.6376 19.1789L11.7951 18.5483H9.65015V14.2024C9.65015 14.0744 9.70102 13.9515 9.79158 13.861C9.88213 13.7704 10.005 13.7196 10.133 13.7196H15.3905L16.3562 12.7538H10.133C9.74882 12.7538 9.38036 12.9064 9.10869 13.1781C8.83703 13.4498 8.68441 13.8182 8.68441 14.2024V18.5483C8.42828 18.5483 8.18264 18.4465 8.00153 18.2654C7.82042 18.0843 7.71867 17.8386 7.71867 17.5825V7.92513C7.71867 7.669 7.82042 7.42336 8.00153 7.24225C8.18264 7.06114 8.42828 6.95939 8.68441 6.95939H9.65015V9.37374C9.65015 9.75793 9.80277 10.1264 10.0744 10.3981C10.3461 10.6697 10.7146 10.8223 11.0988 10.8223H14.9617C15.3459 10.8223 15.7144 10.6697 15.986 10.3981C16.2577 10.1264 16.4103 9.75793 16.4103 9.37374V6.95939H16.7763C17.0324 6.95945 17.278 7.06123 17.4591 7.24235L19.0246 8.80782C19.2057 8.98888 19.3075 9.23448 19.3075 9.49059V10.8252C19.6343 10.81 19.9612 10.8525 20.2733 10.9508V9.49156C20.2732 8.97934 20.0696 8.48814 19.7073 8.126L18.1419 6.56054C17.9627 6.381 17.7498 6.23853 17.5155 6.14126C17.2812 6.04399 17.03 5.99383 16.7763 5.99365H8.68441ZM10.6159 9.37374V6.95939H15.4446V9.37374C15.4446 9.5018 15.3937 9.62462 15.3031 9.71518C15.2126 9.80573 15.0898 9.85661 14.9617 9.85661H11.0988C10.9707 9.85661 10.8479 9.80573 10.7573 9.71518C10.6668 9.62462 10.6159 9.5018 10.6159 9.37374ZM18.1583 12.3173L13.4938 16.9818C13.2219 17.2536 13.029 17.594 12.9356 17.9669L12.5734 19.4136C12.5377 19.5574 12.5398 19.7081 12.5796 19.8509C12.6193 19.9938 12.6953 20.1239 12.8001 20.2287C12.905 20.3334 13.0352 20.4093 13.1781 20.4489C13.3209 20.4885 13.4716 20.4905 13.6155 20.4546L15.0621 20.0934C15.4351 20.0002 15.7756 19.8072 16.0472 19.5352L20.7117 14.8707C21.046 14.5311 21.2325 14.0731 21.2306 13.5966C21.2286 13.12 21.0384 12.6636 20.7014 12.3267C20.3644 11.9898 19.9078 11.7997 19.4313 11.798C18.9548 11.7962 18.4968 11.9829 18.1573 12.3173H18.1583Z"
              fill="#005CE7"
            />
          </svg>